<svg xmlns="http://www.w3.org/2000/svg" width="287.994" height="280.719" viewBox="0 0 287.994 280.719"><path d="M-54.666,250.714l3.56-149.441,220.946-3.134-8.9,146.852Z" transform="translate(87.001 -42.406)" fill="#fd5df7"/><path d="M-16.971,369.322a2.431,2.431,0,0,0-1.456-.608c-4.943,0-16.733-5.443-23.018-10.628a52.52,52.52,0,0,1-16.716-26.154,31.379,31.379,0,0,0-1.519-4.458s-.6-195.7,0-195.965c.251-.111.941-2.118,1.534-4.458A50.9,50.9,0,0,1-22.139,91.044c2.341-.593,4.347-1.284,4.458-1.534.32-.719,202.551-.568,202.551.152,0,.334.655.608,1.456.608,4.716,0,16.557,5.351,22.583,10.205,7.884,6.351,14.763,17.01,17.152,26.576.585,2.341,1.268,4.347,1.519,4.458.719.32.568,195.256-.152,195.256-.334,0-.608.655-.608,1.456,0,4.64-5,15.715-10.067,22.3-5.957,7.742-17.184,15.071-26.715,17.439-2.341.582-4.347,1.263-4.458,1.513-.32.719-202.551-.152-202.551-.152Zm177.01-80.529a110.053,110.053,0,0,0,22.1-5.355l3.648-1.432-.015-5.283c-.008-2.906-.077-32.5-.152-65.775l-.137-60.492h-26.75l-.008,18.087c0,9.948-.173,18.7-.375,19.455-.35,1.306-.65,1.368-6.6,1.368-10.008,0-20.673,2.249-27.922,5.888-10.193,5.117-19.429,14.821-23.649,24.846-3.164,7.518-3.737,10.823-3.683,21.246.056,10.854,1.033,15.876,4.5,23.136,2.1,4.409,7.872,11.84,11.226,14.463,5.613,4.389,17.658,9.25,25.539,10.307,4.34.582,16.316.335,22.285-.459ZM140.49,264.829c-4.44-1.427-5.746-2.177-8.995-5.159-5.294-4.861-7.766-12.547-7.259-22.571.4-7.927,1.615-11.077,6.142-15.939a28.856,28.856,0,0,1,24.175-8.937c3,.339,3.522.592,3.836,1.842.2.8.347,12.636.326,26.309l-.038,24.859-1.342.36c-2.945.789-13.5.311-16.845-.764Zm-126.117,17.1c3.692-6.818,16.322-30.528,18.379-34.5.866-1.672,2.1-3.942,2.742-5.044l1.169-2,6.671,12.035c3.669,6.619,9.131,16.823,12.137,22.675s5.909,10.981,6.45,11.4c.728.563,5.065.76,16.745.76,15.341,0,15.753-.032,15.451-1.188-.171-.654-3.037-5.647-6.369-11.1-23.884-39.055-31.763-52.105-31.763-52.611,0-.635,3.636-6.741,23.043-38.7,7.087-11.671,12.744-21.588,12.571-22.039-.25-.652-3.061-.818-13.812-.818-11.707,0-13.646.133-14.61,1.006a3.469,3.469,0,0,0-1.112,1.494c0,.268-3.535,7.027-7.856,15.02s-9.521,17.853-11.556,21.912a69.991,69.991,0,0,1-3.991,7.38,26.147,26.147,0,0,1-2.505-4.408c-1.217-2.424-5.018-9.332-8.447-15.351S19.768,173.484,17.68,169.3s-4.1-7.8-4.48-8.046c-1.041-.679-30.037-.566-30.46.118-.2.321,7.753,14.3,17.668,31.069s18.14,30.936,18.276,31.487-2.265,5.1-5.334,10.12-9.194,15-13.61,22.19c-13.943,22.7-17.927,29.418-17.927,30.223,0,.617,3.143.783,14.84.783h14.84Z" transform="translate(59.945 -89.04)" fill="#58044c"/></svg>