<svg xmlns="http://www.w3.org/2000/svg" width="312.2" height="119.405" viewBox="0 0 312.2 119.405"><g transform="translate(-24.987 -178.411)"><path d="M28.84,296.929c-.3-.792.189-2.587,1.166-4.242,2.344-3.972,2.186-5.191-.674-5.191-1.3,0-2.614.4-2.917.891-.384.621-.753.563-1.22-.193a2.864,2.864,0,0,1,.471-2.826c5.246-8.006,19.79-38.247,29.355-61.035,1.857-4.425,3.868-9.133,4.469-10.46s1.866-4.76,2.814-7.629a66.5,66.5,0,0,1,2.525-6.714c.7-1.317.574-1.429-1.077-.917a68.632,68.632,0,0,0-13.286,6.917c-1.887,1.293-3.905,2.094-4.6,1.826-.735-.282-2.472.535-4.246,2-2.183,1.8-3.174,2.2-3.631,1.485-1.115-1.755-.691-2.562,2.374-4.514,7.187-4.577,10.618-7.615,9.763-8.646-1.29-1.555,8.8-7.857,17.347-10.839,22.355-7.8,35.3-7.587,48.165.779,5.457,3.548,6.371,7.024,4.47,17-.75,3.936-1.414,4.977-6.008,9.42a88.5,88.5,0,0,1-8.78,7.481c-3.277,2.255-4.792,4.823-2.844,4.823.424,0,2.144,1.972,3.822,4.382,2.853,4.1,3.235,4.36,5.868,4.05,5.274-.621,8.447-1.385,9.655-2.326a26.89,26.89,0,0,1,4.139-2.262q2.928-1.321,8.425-8.417c3.022-3.9,7.887-9.991,10.811-13.531s6.375-7.936,7.667-9.768C158.9,189.906,163.212,184.693,164,185c2.807,1.095,2.827,6.213.074,18.746-.346,1.577-.228,2.482.323,2.482.478,0,.871-.272.874-.6s1.335-1.509,2.959-2.615c3.836-2.612,5.191-4,4.694-4.8-.726-1.174,9.514-7.129,15.675-9.115,14.562-4.694,24.675-4.58,32.381.365,6.03,3.87,6.971,5.719,5.871,11.541a30.551,30.551,0,0,1-1.7,6.209c-.888,1.563-8.578,8.287-10.9,9.527-2.132,1.141-1.924,2.113,1.294,6.041,1.549,1.89,2.814,3.919,2.812,4.508-.024,5.972-5.406,12.594-17.093,21.033-9.4,6.789-14.571,9.793-18.835,10.946a38.9,38.9,0,0,0-6.228,2.439c-1.725.882-3.445,1.412-3.822,1.179s-.686-.052-.686.4-.6.6-1.339.313q-1.341-.515-.763.418c.376.609.143.766-.673.453-1.872-.718-1.594-1.022,2.573-2.8,5.558-2.374,21.263-10.29,23.074-11.63,3.491-2.583.471-1.584-5.171,1.71-3.86,2.254-6.615,3.367-7.644,3.088-1.061-.287-1.267-.2-.6.268.7.492-.081,1.2-2.615,2.369-1.991.916-3.62,1.381-3.62,1.034s-.72-.443-1.6-.213-1.408.729-1.174,1.108c.44.712-2.853,1.816-5.66,1.9-2.01.058-2.739,2.862-.744,2.862,1.371,0,.909,1.109-.544,1.307l-1.468.2c-.4.055-1.759,1.726-3.015,3.712-2.336,3.692-4.651,5.549-3.723,2.986a16.623,16.623,0,0,1,1.568-2.954,6.733,6.733,0,0,0,1.073-2.119c0-.93-3.051-1.37-3.864-.556-1.688,1.688-1.544-.8.244-4.209,6.8-12.97,19.713-40.064,19.713-41.364,0-.188,1.04-2.629,2.311-5.426,3.428-7.543,5.23-12.7,4.643-13.285-.286-.286.08-1.183.813-1.994.832-.92.976-1.473.381-1.473-1.333,0-10.335,4.615-10.953,5.614a2.732,2.732,0,0,1-2.1.823c-2.033,0-5.682,2.365-5.1,3.307.244.394.059.717-.409.717s-.852-.616-.852-1.368c0-.846-.28-1.076-.734-.6-1.249,1.3-4.684,17.038-3.99,18.279.416.743-.061,2.114-1.338,3.845a10.66,10.66,0,0,0-1.985,3.7c0,1.717-9.558,32.072-13.418,42.613-2.008,5.485-4,9.972-4.418,9.972s-.508.418-.192.929.224.712-.227.434c-.495-.306.369-4.571,2.259-11.151,1.683-5.861,2.9-10.815,2.707-11.009-.44-.44-.506-.263-4.417,11.84a106.762,106.762,0,0,0-3.215,11.2c0,.686-.238,1.009-.529.718s-1.024-.119-1.629.383c-3.009,2.5-2.207-2.277,3.333-19.835,1.955-6.2,4.167-13.437,4.916-16.093s1.885-6.457,2.524-8.449a70.319,70.319,0,0,0,1.8-7.04c.6-3.2.525-3.42-1.175-3.42a11.02,11.02,0,0,0-4.12,1.2,12.024,12.024,0,0,1-4.624,1.207c-3.108.006-5.122,2.267-17.982,20.179-12.306,17.139-14.165,19.547-13.364,17.3.567-1.587.621-1.587-3.245-.015-.855.347-1.04-.305-.821-2.887.193-2.271,1.224-4.618,3.232-7.353,2.6-3.542,8.182-12.405,12.342-19.6,1.048-1.812,1.173-2.652.488-3.291-.982-.917-2.871.445-2.871,2.069,0,.461-.634.81-1.408.775-.841-.038-1-.227-.4-.469,1.415-.571,1.256-2.686-.2-2.686-.664,0-1.207.338-1.207.75s-.706.974-1.568,1.248a3.8,3.8,0,0,0-2.126,2.254c-.838,2.641-9.743,11.592-15.215,15.3-2.655,1.8-7.588,5.357-10.963,7.911s-7.086,4.883-8.247,5.175-2.112.8-2.112,1.125c0,.729-5.158,2.953-8.449,3.643a98.88,98.88,0,0,0-10.208,3.679c-4.287,1.745-8.382,3.173-9.1,3.173-.792,0-1.077.37-.724.941.391.633.143.773-.756.428-2.873-1.1-5.656,1.541-10.753,10.209-.87,1.48-1.016,1.506-1.492.268Zm5.608-12.364c.279-.727.382-1.448.229-1.6-.442-.442-4.574,1.65-4.581,2.319C30.083,286.49,33.954,285.851,34.448,284.565ZM45.7,282.029c4.378-1.99,4.552-3.251.254-1.832a7.945,7.945,0,0,1-3.973.436c-1.209-.464-3.847,1.49-3.847,2.85,0,1.119,3.3.484,7.567-1.454Zm6.1-2.991c.358.221.855-.127,1.1-.774.655-1.708-.66-2.193-3.025-1.116-1.9.864-1.948,1.019-.664,1.966.767.566,1.515.689,1.664.275a.61.61,0,0,1,.921-.351Zm4.462-2.651c-.248-.248-.9,0-1.443.549-.789.795-.7.887.45.45.794-.3,1.24-.752.992-1Zm4.514-1.594a2.06,2.06,0,0,0-1.906.5c-.6.6-.283.7,1.055.352C61.013,275.358,61.378,274.994,60.775,274.793Zm-15.4-1.023c0-.469.379-.618.842-.332,1.043.645,15.712-6.454,24.906-12.053,19.329-11.77,28-22.065,21.323-25.326-3.862-1.888-9.718-1.435-17.778,1.375-4.025,1.4-9.1,2.935-11.289,3.4l-3.971.852-7.821,15.667c-4.3,8.617-7.821,16.027-7.821,16.466a.8.8,0,0,0,.8.8.832.832,0,0,0,.8-.852Zm26.088-3.836c4.391-2.525,8.128-5.025,8.3-5.555s-3.678,1.286-8.566,4.036c-7.775,4.374-10.415,6.327-8.326,6.158.332-.027,4.2-2.115,8.587-4.64Zm-26.542-7.3c-.505-.505-1.941,1.538-1.922,2.734.007.443.541.107,1.186-.746s.976-1.747.735-1.988Zm116.32.979c0-.961-.255-1.047-1.08-.362-.594.493-1.318.658-1.609.367s-.529-.137-.529.342c0,.973,1.683,1.779,2.615,1.252a2.041,2.041,0,0,0,.6-1.6Zm10.338-8.019c1.882-.285,15.592-7.571,21.042-11.183,12.272-8.133,17.509-15.348,12.516-17.246-3.546-1.348-7.2-.955-14.8,1.592a61.349,61.349,0,0,1-8.489,2.414c-.85,0-3.326,4.076-7.324,12.059-6.056,12.092-6.912,14.329-5.034,13.155A6.6,6.6,0,0,1,171.581,255.595Zm27.329-27.386a1.619,1.619,0,0,1,1.542.064c.267.267-.208.458-1.056.423-.937-.039-1.128-.229-.486-.486Zm3.218,0a1.619,1.619,0,0,1,1.542.064c.267.267-.208.458-1.056.423-.937-.039-1.128-.229-.486-.486Zm-32.994,19.437c-.248-.248-.7.2-1,.992-.437,1.147-.344,1.239.45.45.55-.546.8-1.2.549-1.443ZM94.861,234.391a1.762,1.762,0,0,0-1.3-.8c-.443,0-.581.362-.307.8a1.762,1.762,0,0,0,1.3.8C95,235.2,95.135,234.834,94.861,234.391ZM140.1,233.9a1.619,1.619,0,0,0-1.542-.064c-.642.257-.451.448.486.486.848.035,1.323-.155,1.056-.423Zm76.385-6.957c-.223-.553-.406-.1-.406,1.006s.183,1.559.406,1.006a3.105,3.105,0,0,0,0-2.012ZM76.325,225.067c4-1.588,8.72-3.541,10.49-4.339,4.185-1.888,14.888-11.315,17.372-15.3,1.067-1.712,2.581-3.286,3.365-3.5,1.04-.282,1.374-1.072,1.233-2.917-.219-2.876-1.663-4.448-3.454-3.76-.669.257-1.217.16-1.217-.215s-1.009-1.1-2.242-1.61c-3.151-1.305-19.261-.659-20.668.829-.578.611-2.761,5.094-4.852,9.962s-4.124,9.252-4.518,9.742c-.74.92-3.707,8.985-4.482,12.184-.6,2.458.355,2.344,8.972-1.077Zm10.893-30.1c-.664-.429-.845-.78-.4-.78a4.834,4.834,0,0,1,2.012.78c.664.429.845.78.4.78A4.834,4.834,0,0,1,87.217,194.965ZM101.3,227.15a2.187,2.187,0,0,0-1.7-.8c-.664,0-.983.362-.71.8a2.187,2.187,0,0,0,1.7.8C101.253,227.955,101.572,227.593,101.3,227.15Zm44.657-1.663c0-.33-.9-.181-2.005.33s-2.008,1.194-2.012,1.516.9.174,2.005-.33S145.955,225.817,145.955,225.487Zm.206-1.081c.877.877,3.9-1.387,4.723-3.541.955-2.493,1.764-8.2,1.162-8.2-.85,0-9.171,11.644-8.777,12.282.228.369.868.294,1.423-.166s1.215-.629,1.469-.376Zm44.45-4.507a31.6,31.6,0,0,1,4.912-1.921c6.887-2.246,12.79-6.7,19.791-14.932,2.336-2.747,2.813-3.813,2.208-4.942-.953-1.781-2.371-2.724-2.371-1.577a.855.855,0,0,1-.852.852c-.469,0-.64-.344-.38-.764,1.012-1.637-2.983-2.545-9.7-2.2-3.758.191-7.048.563-7.311.826-1.342,1.342-10.723,23.386-10.724,25.2,0,.942,2.859.594,4.425-.538Zm17.9-23.857a3.105,3.105,0,0,1,2.012,0c.553.223.1.406-1.006.406s-1.559-.182-1.006-.406Zm3.42,24.672a.832.832,0,0,0-.852-.8c-.469,0-.628.362-.355.8s.657.8.852.8S211.934,221.156,211.934,220.713ZM114.722,194.79c-.577-.577-.952-.625-.952-.121,0,1.074.952,2.026,1.489,1.489.229-.229-.013-.844-.536-1.368Zm107.672-2.965c0-.786-4.305-2.493-6.289-2.493-1.79,0-.69.8,2.809,2.05C222.694,192.73,222.395,192.692,222.395,191.825ZM115.38,189.286c0-.867-3.943-2.34-7.469-2.79l-3.393-.433L108.138,188c3.334,1.784,7.242,2.477,7.242,1.286ZM217.46,270.4c-.479-.9-.252-5.251.258-4.936.36.222.654.09.654-.294a5.933,5.933,0,0,1,1.16-2.26c1.132-1.524,1.157-1.519,1.04.193-.066.965-.469,1.539-.895,1.276-.448-.277-.551.1-.244.9.315.82.207,1.181-.266.889-.727-.449-1.108.841-1.012,3.425.033.882-.392,1.373-.7.8Zm-1.9-7.871c-1.371-.567-1.4-.674-.2-.722.774-.031,1.408-.458,1.408-.949,0-.538-1.065-.768-2.68-.58-2.155.252-2.846-.039-3.528-1.485-.612-1.3-.594-1.9.064-2.173.619-.254.59-.4-.093-.438-1.615-.1-1.158-2.339.679-3.323.927-.5,2.334-2.41,3.128-4.253s2.967-6.972,4.829-11.4,6.788-15.178,10.944-23.9c4.855-10.183,7.368-16.343,7.027-17.23-.383-1-.241-1.2.513-.736.812.5.857.312.2-.854-.7-1.252-.3-1.957,2.406-4.277,2.836-2.427,3.083-2.9,1.958-3.719s-1.045-1.051.754-1.871a24.608,24.608,0,0,1,5.819-1.372c2.078-.243,6.041-.785,8.807-1.2l10.058-1.522c15.106-2.283,36.163-2.871,35.9-1-.323,2.255.231,4.2,1.052,3.69.633-.391.773-.143.428.757-.283.736-.149,1.339.3,1.339s.379.463-.176,1.056c-1.351,1.446-4.065-.915-2.856-2.484,1.016-1.318.357-1.971-1.336-1.322a2.311,2.311,0,0,0-1.322,2.031c0,.838-.285,1.523-.633,1.523s-.688.724-.755,1.609.218,1.609.633,1.609.755-.565.755-1.254.362-1.031.8-.757.837.024.877-.556.416.136.835,1.59c.5,1.745,1.094,2.445,1.738,2.058.75-.45.759-.317.039.575-.515.638-2.99,6.954-5.5,14.034s-6,15.771-7.767,19.311-3.2,6.521-3.186,6.624-.508,1.449-1.153,2.992a16.234,16.234,0,0,0-1.172,3.664,8.245,8.245,0,0,1-1.331,2.89c-1.237,1.888-1.237,2.114,0,3.193.731.639.967.726.526.193-1.145-1.384-.991-2.256.4-2.256.793,0,1.107.616.923,1.81-.221,1.435-.721,1.757-2.409,1.552s-2.13.079-2.13,1.381c0,1.544.376,1.618,6.473,1.269,3.56-.2,9.625-.753,13.477-1.22,15.963-1.937,16.41-1.944,17.618-.292.766,1.047,1.3,1.238,1.688.606a4.485,4.485,0,0,1,2.583-1.295c1.43-.266,1.1-.406-1.14-.483-4.167-.145-3.484-.576,1.945-1.226,3.084-.37,4.06-.284,3.218.281-.811.545-.877.815-.2.823.553.006,1.006.625,1.006,1.373,0,1.193.156,1.168,1.267-.2.7-.859,1.037-1.109.757-.556-.328.648.1,1.006,1.195,1.006,1.041,0,1.49.347,1.154.891-.37.6.075.733,1.361.41,1.051-.265,1.456-.272.9-.018s-.817.776-.581,1.159-.938.942-2.61,1.243a13.176,13.176,0,0,0-3.844,1.163c-.443.338-2.977.744-5.632.9-4.5.266-7.071,1.23-6.372,2.39.164.272-3.125.674-7.309.893-4.37.229-8.128.83-8.831,1.414-1.027.853-1.224.755-1.224-.606a2.149,2.149,0,0,0-1.006-1.976c-.553-.195-6.075.083-12.271.617s-11.5.834-11.8.667-.356-1.427-.139-2.8c.278-1.767.12-2.327-.543-1.917a2,2,0,0,0-.539,2.1c.219.835.069,1.518-.332,1.518s-.729-.585-.729-1.3c0-.956-.479-1.172-1.81-.816a21.067,21.067,0,0,1-4.368.5,6.4,6.4,0,0,0-3.915,1.369c-1.066,1.066-5.254,1.747-19.477,3.166-9.965.994-18.5,2.194-18.976,2.665a3.3,3.3,0,0,1-2.016.857,3.086,3.086,0,0,0-2.052,1.125,1.928,1.928,0,0,1-2.5.459Zm16.092-7.216c.282-.456-.394-.8-1.562-.8-1.132,0-2.059.362-2.059.8s.7.8,1.562.8A2.682,2.682,0,0,0,231.648,255.311Zm81.468-2.164a6.613,6.613,0,0,0-2.816,0c-.774.2-.141.368,1.408.368S313.891,253.35,313.116,253.147Zm-41.6-4.333a1.09,1.09,0,0,1,1.483-.4c.58.359.895-.295.895-1.861,0-1.328.334-2.62.743-2.873a5.748,5.748,0,0,0,1.263-2.829,31.763,31.763,0,0,1,2.074-5.584,15.522,15.522,0,0,0,1.553-5.109c0-1.042,2.185-7.306,4.855-13.919s5.368-13.472,5.995-15.242,2.067-5.729,3.2-8.8c1.6-4.33,1.835-5.723,1.046-6.224-.653-.415-.226-.65,1.2-.657,1.5-.009,2.213-.433,2.213-1.313,0-.956-.479-1.172-1.81-.816a21.392,21.392,0,0,1-4.425.5c-1.438.006-2.615.373-2.615.816s.564.8,1.254.8c2.979,0,.1,1.322-3.254,1.5a22.181,22.181,0,0,0-5.478.906c-1.669.672-1.64.718.485.766,1.243.027,2.044.4,1.779.829s-1.553.564-2.864.3-2.383-.141-2.383.269-2.721.727-6.047.7c-5.027-.034-5.815.128-4.674.964q2.466,1.806-1.668.233c-3.279-1.247-13.259,2.073-14.9,4.955-.7,1.234-1.67,2.247-2.15,2.25-.794,0-7.575,12.5-7.575,13.962,0,.34,6.47.455,14.378.256,13.364-.337,14.47-.255,15.682,1.161,1.248,1.458,1.167,1.523-1.906,1.523-1.766,0-3.211.362-3.211.8s.746.8,1.657.8,1.452.331,1.2.736,0,.893.556,1.086c.973.337-3.465,1.169-16.289,3.053-14.742,2.166-16.549,2.52-17.455,3.423-.884.88-8.169,17.274-9.4,21.145-.487,1.537-.2,1.692,3.3,1.794,2.11.062,9.629-.378,16.71-.978,13.334-1.129,18.037-.8,13.587.941a28.949,28.949,0,0,1-4.334,1.282c-1.106.2,1.757.241,6.363.081,5.285-.184,8.591-.642,8.962-1.243Zm-12.257-25.434a1.619,1.619,0,0,1,1.542.064c.267.267-.208.458-1.056.423-.937-.039-1.128-.229-.486-.486Zm-10.041-22.347c0-.644.308-.981.684-.749a.847.847,0,0,1,.221,1.172c-.651,1.053-.9.934-.9-.422Zm53.054,48.117a4.607,4.607,0,0,0-2.414-.03c-.783.2-.337.384.99.4s1.968-.151,1.423-.371Zm-82.691-3.5q.583-2.012-.221-1.207a8.1,8.1,0,0,0-1.388,2.816q-.583,2.012.221,1.207A8.1,8.1,0,0,0,219.578,245.656Zm53.29-56.81a1.619,1.619,0,0,0-1.542-.064c-.642.257-.451.448.486.486.848.035,1.323-.155,1.056-.423Zm5.046-.319a.784.784,0,0,0-.757-.8,1.725,1.725,0,0,0-1.254.8c-.273.443.067.8.757.8S277.914,188.97,277.914,188.527Zm-15.288-4.038c0-.487-.9-.6-2.213-.289-3.159.758-3.265,1.109-.335,1.109C261.479,185.309,262.626,184.94,262.626,184.489Zm3-.471a1.619,1.619,0,0,0-1.542-.064c-.642.257-.451.448.486.486.848.035,1.323-.155,1.056-.423Zm12.9,73.138a8.814,8.814,0,0,1,3.218.015c.769.2-.05.359-1.82.35s-2.4-.174-1.4-.366Zm10.064-.793a4.6,4.6,0,0,1,2.414.03c.545.221-.1.387-1.423.371s-1.773-.2-.99-.4Zm28.348-1.052c.273-.443.657-.8.852-.8s.355.362.355.8a.832.832,0,0,1-.852.8C316.824,256.116,316.664,255.754,316.938,255.311Zm-52.049-.55a1.619,1.619,0,0,1,1.542.064c.267.267-.208.458-1.056.423-.937-.039-1.128-.229-.486-.486Zm58.3-.813a4.6,4.6,0,0,1,2.414.03c.545.22-.1.387-1.423.371s-1.773-.2-.99-.4Zm12.658-6.684a.832.832,0,0,1,.852-.8c.469,0,.628.362.355.8s-.657.8-.852.8S335.847,247.708,335.847,247.265ZM159.715,230.606c.586-.976,1.238-1.6,1.45-1.389s-.268,1.01-1.065,1.774C158.714,232.318,158.7,232.3,159.715,230.606ZM121.88,200.932c.039-.937.229-1.128.486-.486a1.619,1.619,0,0,1-.063,1.542c-.267.267-.458-.208-.423-1.056Zm106.21-.8c.039-.937.229-1.128.486-.486a1.619,1.619,0,0,1-.064,1.542c-.267.267-.458-.208-.423-1.056Z" transform="translate(0 0)" fill="#f0d845"/></g></svg>