<svg xmlns="http://www.w3.org/2000/svg" width="159.853" height="179.698" viewBox="0 0 159.853 179.698"><path d="M76.512,237.008,73.8,206.438H94.109l1.353,15.8,21.991,5.654s0,17.964,0,21.292c-.76-.234-40.945-12.176-40.945-12.176Zm-5.6-60.336,46.539-19.613-.017,38.773-44.969-.217Zm-4.145-40.1,50.743-.16-.057,19.634L69.091,155.9s-2.354-19.345-2.324-19.332Z" transform="translate(-37.53 -103.397)" fill="#dddddb"/><path d="M75.176,265.787l40.7-11.931,5.37-60.77-46.23,0,47.935-20.494,1.973-19.441c-17.147-.368-25.98-.187-49.747-.187V133.168h64.848S131.381,231.909,127.9,271.5c-17.884,5.184-52.537,14.347-52.537,14.347l-.187-20.064Zm0-53.33h0l23.962.067c.059.052-1.529,25.466-1.529,25.466L75.175,244.5l-.024-32.056Zm0-39.808,2.4-.017-2.405,1.034,0-1.017Z" transform="translate(4.747 -120.007)" fill="#3b9ad5"/><path d="M109.388,302.041c-17.8-4.8-32.372-8.735-32.379-8.744-5.561-56.917-8.88-101.524-14.965-161.984l-.051-.294H221.846l-.052.241c-5.331,57-9.331,101.524-14.976,162.041-.028.04-64.438,17.365-64.747,17.416-.213.035-10.954-2.816-32.684-8.675Zm85.252-19.524c4.111-46.439,6.232-72.29,12.063-137.829l.061-.508H141.915v19.794l-50.717.2c.8,6.808,1.493,12.139,2.354,19.345,16.946.229,26.428.142,48.363.142q0,.508,0,1.016L95.372,204.291s1.506,18.9,1.552,18.943c15.815.159,28.17.1,44.965.22l.028,32.057s-21.975-5.613-21.994-5.654c-.44-5.352-.862-10.619-1.353-15.8H98.262l.062.562c.974,10.574,1.556,18.863,2.648,30.008,14.4,4.371,0,0,40.945,12.176l.189,20.061,52.535-14.347Z" transform="translate(-61.993 -131.019)" fill="#1f61ae"/></svg>