<svg xmlns="http://www.w3.org/2000/svg" width="467.432" height="125.691" viewBox="0 0 467.432 125.691"><path d="M-5.626,256.194V364H61.221c2.32,0,5.291.462,7.471-.475,3.011-1.3,5.22-5.472,7.122-8,4.875-6.476,9.849-12.88,14.8-19.3,1.8-2.336,3.479-4.818,5.455-7.012.7-.775,1.61-1.851,2.78-1.714s2,1.332,2.677,2.158c1.68,2.058,3.265,4.2,4.891,6.306,5.286,6.833,10.6,13.643,15.85,20.5,2.383,3.113,4.4,7.121,8.629,7.532L108.648,334.81l-5.394-7.061-1.843-4.237,6.7-9.884,13.595-17.891,6.359-9.415c-3.719.814-5.581,4.376-7.758,7.223-4.771,6.241-9.46,12.543-14.275,18.751-1.643,2.118-3.108,4.411-4.835,6.459-.675.8-1.555,1.838-2.726,1.723-1.094-.107-1.911-1.178-2.556-1.957-1.664-2.01-3.091-4.226-4.667-6.306C86.545,306,82.03,299.648,77.394,293.384c-2.135-2.886-3.984-6.262-7.7-7.061,1.243,3.737,4.133,6.775,6.474,9.885l13.179,17.418c1.926,2.566,6.768,6.991,6.772,10.356,0,1.97-1.9,3.84-3.042,5.288-2.795,3.555-5.54,7.15-8.319,10.718q-5.492,7.054-10.946,14.14c-1.741,2.261-3.5,5.509-6.057,6.922-3.154,1.741-9.121.592-12.654.592H5.672c-2.176,0-5.819.662-7.689-.685-2.506-1.805-1.255-8.829-1.255-11.555V320.217c0-2.61-1.06-8.346.946-10.352,1.633-1.633,5.435-.946,7.528-.946H61.692v-2.354H2.376l-4.7-.945-.946-6.116V265.609l1.255-6.376,5.806-.685h62.14v-2.354H-5.626M141.25,307.506l-.471-15.535-1.058-4.86-1.295,4.86v89.914h2.354V356.464l.941-13.181c2.77,6.8,6.009,12.928,12.24,17.2a31.118,31.118,0,0,0,13.181,4.809,35.06,35.06,0,0,0,10.827-.043c13.139-1.869,21.891-12.07,25.534-24.325,5.715-19.224,1.225-48-20.826-54.677a32.071,32.071,0,0,0-9.415-1.342,32.928,32.928,0,0,0-15.535,3.363,31.933,31.933,0,0,0-12.347,11.7c-1.515,2.466-2.444,5.16-4.129,7.532m81.91-2.354h-.471c0-4.55.02-9.1,0-13.651-.01-2.349.127-4.336-2.353-5.179v77.674h2.354V330.1c0-8.15-.5-16.21,2.294-24.008,4.056-11.331,15.8-20.7,28.305-18.83l.471-2.354c-9.215,0-18.489,1.973-24.717,9.425a39.737,39.737,0,0,0-5.882,10.818m98.858,32.482c-2.964.61-2.924,3.121-3.743,5.649a29.438,29.438,0,0,1-3.772,7.938c-5.273,7.432-13.632,11.557-22.614,12.223-15.819,1.172-28.979-7.732-32.633-23.455a68.882,68.882,0,0,1-1.567-9.414c-.123-1.375-.29-3.161.78-4.233,1.155-1.157,3.215-.938,4.7-.945h41.9c5.7,0,11.812-.629,17.418.471.906-4.044.213-8.213-.525-12.24-1.431-7.806-4.987-15.839-11.053-21.148-13.355-11.687-34.9-9.561-46.224,3.782a39.926,39.926,0,0,0-8.519,18.308c-2.734,14.678-.922,34.266,11.252,44.5,12.2,10.258,34.37,8.787,45.618-2.193,5.226-5.1,7.831-12.172,8.98-19.24m12.24.471H331.9c.363,7.759,2.06,16.236,8.483,21.327a27.512,27.512,0,0,0,10.347,4.831c13.532,3.509,35.528,2,39.81-14.389a21.151,21.151,0,0,0,.642-6.12c-.547-15.773-18.826-18.619-31.037-21.557-2.526-.608-5.028-1.312-7.532-2-5.075-1.4-10.607-3.653-13.35-8.451-4.6-8.038.122-17.81,7.781-21.812,7.955-4.157,20.085-3.856,28.165-.168a19.2,19.2,0,0,1,9.864,10.212c1.138,2.859.51,7.83,3.788,8.944-.005-6.5-1.227-12.935-6.3-17.518a24.753,24.753,0,0,0-8.783-4.82c-12.585-4.175-33.878-2.311-38,12.925a21.217,21.217,0,0,0-.563,6.089c.2,8.475,5.21,12.793,12.684,15.7,8.95,3.485,18.751,4.381,27.775,7.652,7.383,2.677,13.541,8.331,13.123,16.689-.621,12.422-14.18,17.781-24.892,17.884-11.155.108-23.138-3.207-27.7-14.589a33.288,33.288,0,0,1-1.953-10.827m70.613,0h-2.354c.074,8.376,2.35,16.931,9.416,22.1a28.088,28.088,0,0,0,10.356,4.349c13.267,3.073,34.153,1.439,38.7-14.205a21.182,21.182,0,0,0,.819-6.12c-.2-16.669-19.513-18.893-31.983-22.2-2.668-.708-5.365-1.36-8-2.175-4.832-1.493-9.816-3.936-12.329-8.572-3.965-7.316-.2-16.618,6.7-20.579,8.153-4.682,20.626-5.027,29.167-1.089a19.7,19.7,0,0,1,10.262,10.37c1.2,2.844.593,7.835,3.86,8.944a30.878,30.878,0,0,0-1.172-8.944c-3.785-12.572-17.035-15.123-28.485-15.062-9.59.049-20.874,4.406-23.584,14.592a19.844,19.844,0,0,0-.629,6.12c.5,8.805,5.962,13.276,13.856,16.044,8.749,3.068,18.174,4.053,26.833,7.36,7.066,2.7,13.346,7.973,13.111,16.139-.353,12.329-13.652,18.172-24.409,18.35-11.25.187-23.818-2.94-28.269-14.584a32.9,32.9,0,0,1-1.859-10.827M289.536,287.165c14.072.089,24.677,8.47,29,21.754a46.241,46.241,0,0,1,1.9,9.884c.12,1.27.329,3.05-.778,3.974-1.188.991-3.271.73-4.7.735H304.13c-14.3,0-29.044,1.057-43.293-.049-3.466-.269-3.312-2.757-2.9-5.6a46.336,46.336,0,0,1,3.7-12.71c5.166-11.223,15.581-18.066,27.9-17.988m-121.926.292a38.337,38.337,0,0,1,11.3.151c21.74,3.844,27.039,30.206,23.438,48.615-2.511,12.838-11.059,25.253-24.85,27.075a40.454,40.454,0,0,1-11.769-.3c-21.812-3.647-27.8-29.394-23.994-47.955,2.694-13.144,11.821-25.672,25.877-27.582Z" transform="translate(5.626 -256.194)" fill="#cecece"/></svg>