<svg xmlns="http://www.w3.org/2000/svg" width="223.149" height="165.898" viewBox="0 0 223.149 165.898"><g transform="translate(0 0)"><path d="M175,175.493c-9.043-4.684-18.949-7.785-27.69-12.94-3.994-6.847-7.727-11.846-16.248-13.2-5.534-2.839-10.627-1.93-15.945.838C83.861,161.464,48.954,161.883,17,153.26c-13.546-4.276-29.658-10.3-34.972-24.8,2.007-9-8.816-7.3-13.326-12.3-12.841-9.688-21.845-28.739-13.643-44.04,6.623-11.337,22.661-10.773,32.19-3.638C-8.26,72.6-5.7,74.095-5.72,66.256c3.274-5.736,1.537-12.544,2.2-18.85.236-9.094.351-18.195.824-27.28,4.766,7.29,8.478,16.72,15.908,22.549A45.117,45.117,0,0,0,40.4,54.787c8.256-6.01,19.909-7.043,28.794-1.768C90.662,49.338,113.8,39.594,123.86,18.946c-.049-7.371,10.626-14.641,11.968-3.967,3.521,30.191,3.5,61.634-6.937,90.557,9.01,5.383,16.705,17.457,10.046,27.55-2.179,4.509,8.314,11.166,13.328,7.977,11.58-1.829,17.076,10.616,19.321,19.852.908,4.559,3.976,10.548,3.41,14.577Zm-32.234-27.71c6.725-7.267-10.117-3.975-9.278-11.516-6.424-2.087-5.617,7.912.135,6.6,1.408,3.139,6.262,3.579,9.143,4.917ZM-30.94,92.136c11.524-.415,10.442-21.42-1.418-19.7C-42.015,74.757-41.18,91.628-30.94,92.136ZM57.271,80.964c12.191-.393,5.512-14.986.915-15.795,6.82,2.973,12.329-7.2,4.1-9.182-5.2-1.984-20.33-1.518-15.636,7.4,8.811,4.545-2.313,16.1,10.618,17.58ZM16.9,77.873c9.5-.854,4.948-13.72-1.58-13.071,4.385.694,13.319-2.388,6.8-7.014-7.3-5.006-22.075,1.647-11.278,9.319-1.408,4.625-.094,11.265,6.057,10.765Z" transform="translate(48.083 -9.595)" fill="#d0d0cf"/><path d="M174.808,174.745c-8.715-4.314-17.919-7.663-26.56-12.1-4.959-6.512-7.956-13.123-17.362-14.086-3.283-2.685-7.982-.126-9.739-3.4-8.424-6.423-16.271,2.088-24.962,3.292-27.194,6.726-56.951,6.16-83.021-4.644C4.817,140.189-3.3,134.1-5.692,124.95c-4.337-5.6-12.022-.963-17.487-4.861-16.983-7.011-29.512-27.536-23.2-45.669,4.356-11.767,19.618-14.366,29.628-8.454,4.746,1.1,11.239,11.712,10.611,1.494,2.327-4.331,2.586-8.976,2.461-13.781.376-11.25.15-22.565,1.119-33.757,5.7,12.3,14.011,24.108,26.6,30.087,5.765,1.846,13.452,7.046,19.026,2.877,7.826-4.8,17.982-4.585,25.931-.188,21.955-3.747,45.743-13.915,55.361-35.454.645-10.612,13.2-9.768,11.557.867,3,32.248,2.981,66.411-11.755,96.086,6.418,3.4-.385,15.194,5.823,15.125,1.82,1.669,4.788,5.316,8.323,6.856,5.144,4.605,10.184,6.881,16.805,4.511,11.226.792,14.3,13.677,16.968,22.59.664,3.6,3.067,8.238,2.733,11.465Zm-32.084-27.1c7.426-7.6-9.432-4.56-8.824-11.733-7.2-3.222-8.809,9.193-.173,8.336,3.006,1.11,5.933,2.45,9,3.4ZM-30.667,91.767c10.863-1.075,10.309-20.02-.679-20.291C-42.651,72.342-42.153,91.973-30.667,91.767Zm79.883-5.841c-3.5-4.182-.641-20.375,1.869-8.5,6.2,9.484,19.679-3.629,10.661-10.208-10.078-4.543,10.674-3.081,11.346,3.4,2.272,2.774,2.965,12.026,3.047,3.438.885-14.8-17.953-25.249-30.243-17.079-8.717,4.206-15.567,20.585-4.471,25.786a28.06,28.06,0,0,0,7.792,3.164ZM8.906,82c-3.351-3.965.914-18.763,1.9-7.557C21.095,85.72,26.7,64.034,16.539,63.97c6.174-4.891,18.318,11.39,13.223-.421C23.418,52.217,4.695,53.23-.116,65.419-4.446,73.446.393,80.56,8.906,82Z" transform="translate(48.286 -9.073)" fill="#b1b1af"/><path d="M174.758,174.422c-9.144-4.342-18.943-7.7-27.65-12.859-3.349-7.814-8.873-11.891-17.3-13.7-5.108-1.721-7.93-1.754-12.547-4.54-8.883-6.684-17.3-3.842-26.459.31a112.432,112.432,0,0,1-64.646-1.765c-11.016-4.781-21.439-10.994-31.6-17.391-4.25-4.851-10.9-1.253-16.18-3.961C-39.065,114.232-52.4,93.754-46.68,75.281-42.92,62.9-26.995,59.9-16.793,66.034c5.157,1.774,11.466,11.709,10.952.861,3.985-8.692,1.525-18.579,2.5-27.839.782-4.782-.945-17.665,1.546-17.631C5.16,38.889,21.244,53.119,40.378,54.792a25.825,25.825,0,0,1,28.286-1.953C90.681,49.034,114.557,39,124.324,17.424c.2-9.65,12.589-10.841,11.279-.16,3.111,33.025,3.482,68.538-12.925,98.428-3.926,5.048-6.88,9.7,1.31,11.713,7.317,2.794,11.618,8.016,19.221,12.277,3.907,4.7,9.02-.463,13.99,1.331,11.158,3.424,12.629,16.773,15.834,26.278a61.913,61.913,0,0,1,1.726,7.13Zm-20.009-22.468c11.42-3.234-5.991-15.936-5.019-3.4A4.589,4.589,0,0,0,154.749,151.954Zm-12.107-4.149c7.473-7.716-9.27-5.588-9.6-12.753-7.883-.905-7.321,9.991.635,9.508,2.977,1.108,5.932,2.292,8.963,3.244ZM56.609,95.42c14.972.3,25.373-18.194,17.512-30.907C67.509,51.375,47.05,50.226,39.032,62.571,30.16,73.987,37.49,92.636,51.72,95.08a17.655,17.655,0,0,0,4.889.34ZM61.2,92.005C51.165,93.716,44,77.352,49.477,73.564c.818,12.757,21.5,5.532,13.716-4.954-3.268-2.978-8.53-4.354-.33-3.921,11.667.45,16.7,17.2,7.4,24.131A13.477,13.477,0,0,1,61.2,92.005Zm-91.667-.143c10.67-1.344,10.111-20.3-.7-20.44C-43.162,71.413-42.461,92.464-30.471,91.862ZM15.091,89.91c3.929.676,14.285-4.276,4.847-2.222C9.808,90.577,4.728,71.214,9.81,71.257c.064,11.618,19.047,4.7,11.178-4.322-6.218-2.737-4.932-3.6,1.47-3.1,4.372,1.236,11.452,9.086,8.23.848C25.494,52.97,7.231,51.87.751,62.979c-7.711,10.927,1,27.2,14.34,26.931Z" transform="translate(48.379 -8.998)" fill="#8a8c87"/><path d="M92.336,93.908c-8.717-4.369-18.013-7.677-26.566-12.3-9.232-5.678-5.907-22.655,5.884-21.153C83,60.161,86.69,72.915,89.221,81.76c.944,4.02,2.764,8.111,3.115,12.147ZM71.912,71.889c11.112-.577.959-16.851-4.48-7.022C65.979,68.069,68.315,72.034,71.912,71.889Zm8.2-1.047C81.049,68.586,78.292,71.593,80.111,70.842ZM37.178,39.9c-7.832,7.179,17.544,7.468,4.753,14.993-2.792,5.475-1.774,12.439-9.333,6.721-7.275-4.444-13.9-7.236-20.939-.706C-91.169,41.087,17.325,5.239,37.178,39.9Z" transform="translate(130.583 71.441)" fill="#b36d21"/><path d="M174.545,174.377c-8.717-4.369-18.013-7.677-26.566-12.3-9.232-5.678-5.907-22.655,5.884-21.153,11.349-.295,15.037,12.459,17.567,21.3.944,4.02,2.764,8.111,3.115,12.147Zm-20.424-22.018c11.112-.577.959-16.851-4.48-7.022C148.189,148.539,150.525,152.5,154.121,152.359Zm8.2-1.047C163.259,149.055,160.5,152.062,162.32,151.312ZM65.7,146.894c-27.056.28-53.31-10.257-75.329-25.47-18.571,2.289-34.314-14.451-37.854-31.567C-49.63,79.37-45.436,66.2-33.841,63.634c16.4-2.874,31.679,10.354,37.129,25.038,4.529,10.23,21.427,6.762,27.883-.426C35.883,86.628,40.176,99.09,47.578,99c15.774,6.087,34.5-7.283,33.927-24.176C81.117,66.5,77.94,57.555,70.059,53.682,76.9,50.194,90.321,48.743,98.624,43.4c12.891-6.543,23.685-17.629,28.218-31.532,9.451-8.631,9.277,10.933,9.586,17.011,1.892,31.055.731,64.722-17.039,91.49-8.258,6.738,15.894,7.2,5.756,13.471a186.909,186.909,0,0,0-44.365-18.08c6.594,7.132,16.991,11.5,25.616,16.574,4.572,3.582,20.536,5.88,13.757,11.92-7.27-.651-14.434-11.136-21.161-5.379a69.188,69.188,0,0,1-33.3,8.016ZM-30.931,91.981c11.037.206,7.238-15.589,7.465-18.149-2.208-9.762-19.57-3.632-17.886,6.007.057,5.123,4.526,12.586,10.421,12.142Zm92.784-.255c-9.479,1.132-17.467-10.617-12.665-18.864.058,13.953,22.414,6.7,14.067-4.381-3.425-2.854-7.418-4.231.016-3.585,11.339.873,15.907,17.274,6.665,23.9a12.142,12.142,0,0,1-8.084,2.93ZM20.415,87.52C10.881,89.95,4.848,73.9,9.592,71.275c1.042,13.758,21.224,1.977,10.044-5.716-7.881-3.257,10.428-1.978,10.341,3.8,2.01,5.507,2.125,14.43-4.74,16.925a12.188,12.188,0,0,1-4.822,1.237ZM-3.268,60.613c-.4-13.056.305-26.763.7-40.038,6.739,15.92,20,30.135,37.529,33.49,10.689-.04-3.636,9.846-6.191,1.415C20.777,50.06,9.959,51.011,4.481,41.53c-4.756-5.76-1.39,9.465-2.842,12.012.18,3.119-3.618,4.525-4.907,7.071ZM6.846,52.008C4.359,49.377,10.183,51.089,6.846,52.008Z" transform="translate(48.374 -9.028)" fill="#605b4d"/><path d="M174.219,173.327c-9.443-5.768-22.015-7.282-29.338-15.9,5.723,1.989,11.95-6.624,14.408-11.514-3.967-10.044-12.585.667-16.456,4.672-.561-13.431,19.7-13.266,23.661-2.356a133.9,133.9,0,0,1,7.725,25.1ZM164.13,153.315C165.382,145.929,156.42,150.4,164.13,153.315Zm-98.379-7.581c-27.022.285-53.2-10.085-75.224-25.238-22.734,2.4-42.073-22.086-37.963-43.7,2.846-13.773,19.6-18.152,30.669-11.181,15.191,7.509,25.238,25.9,21.191,42.64-2.318,5.553-11.866,11.484-1.742,14.236,22.973,13.4,50.633,21.8,77.205,16.2,4.208.464,19.016-10.106,8.76-6.7-19.713,7.193-41.681,3.9-60.732-3.775,9.906.141,27.4-2.438,31.847-5.92-6.142-.626-19.353-2.132-20.283-5.74,12.949-.556,26.92.407,38.445-6.625,11.8.493-5.913-14.192,4.626-8.626C92.978,108.285,96.8,92.145,99.357,84.8a39.291,39.291,0,0,0-4.483-28.687c10.054-5.965,20.99-11.108,28.311-20.6,7.3-4.636,2.01,12.475,3.5,16.937-.369,22.743-4.118,46.638-18.059,65.308,5.99-1.347,11.994-10.962,14.355-17.967,9.379-23.567,8.773-49.558,7.181-74.418-3.108-8.725-7.634,8.167-12.293,9.433C106,46.258,90.155,52.881,74.038,55.545,65.257,48.47,86.3,50.69,90.125,46.44c16.277-6.083,31.3-18.363,36.628-35.385,11.818-6.382,8.227,15.05,9.625,21.957,1.335,29.292-.386,60.757-17.073,85.946-9.175,5.679,16.562,11.027,3.6,12.827A186.492,186.492,0,0,0,80.6,114.855c7.828,8.1,18.662,12.232,28.062,18.075,4.649-.094,18.742,8.852,8.665,9.62-7.994-5.255-17.116-9.135-24.981-1.462-8.606,2.732-17.494,4.842-26.6,4.646ZM-36.435,96.248c-1.131-3.462-3.775-12.258,1.6-5.648,12.5,5.876,12.9-15.12,12.117-16.355,3.147,2.956,14.264,7.6,8.2-.489C-22.57,64.8-41.949,64.829-43.176,79.4c-.969,5.951-.522,15.177,6.741,16.852Zm98.461-5.477c-9.446,3.267-17.647-13.984-12.74-16.484,3.466,13.888,24.752-1.4,11.537-8.519-1.707-5.359,13.685,1.445,12.919,7.167A13.221,13.221,0,0,1,62.026,90.771ZM19.464,86.476C10.98,90.275,4.89,70.1,9.878,73.128,16,84.11,29.942,68.1,18.215,63.209c9.975-1.81,15.444,8.685,11.508,17.042-1.357,4.5-5.934,6.288-10.26,6.226ZM-3.459,59.241c-.112-13.02.468-26.031.848-39.043,6.843,16.62,21.569,31.066,39.881,33.59.942,7.818-9.513,1.247-12.3-1.3C16.2,50.839,5.963,42.111,1.663,39.276.389,46.343,3.549,54.217-3.459,59.241Z" transform="translate(48.551 -8.122)" fill="#4f493a"/><path d="M71.446,87.913c-8.228-3.942-16.589-7.6-24.871-11.426,7.766-1.857,12.432-14.688,7.283-20.162-2.582-2.152-16.5,5.075-7.669-.777,11.061-4.064,18.764,7.019,20.832,16.486,1.514,5.259,3.322,10.572,4.424,15.879Zm-9.3-18.61c1.795-5.113-7.7-7.621-2.243-1.976l1.5,1.393ZM-10.5,44.039C-55.479,12.692-.4,32.863,10.434,33.714c0,0,5.993-.16,7.215-2.249-8.595,6.863,1.736,8.891,7.157,12.665C20.885,51.3,14.164,41.27,8.673,40.65c-32.618-13.756-52.235-20.342-5.329,5.378,3.911,3.948,15.275,3.43,14.9,9.462-2.48,5.157-12.633-3.9-18.085-5.51C-10.5,44.039-9.489,44.39-10.5,44.039Z" transform="translate(151.43 77.281)" fill="#61380c"/><path d="M174.229,173.392c-6.849-4.055-21.174-8.2-23.453-11.9,8.6-2.306,12.567-23.319-.026-19.339-11.425,3.007,6.834-6.148,10.041.426,8.954,6.69,9.607,18.769,12.933,28.616l.259,1.1Zm-9.3-18.61C165.006,146.546,156.718,149.465,164.931,154.782Zm-101.022-9.1c-26.28-.2-51.6-10.386-73.141-24.952-23.824,2.3-44.914-24.823-37.074-47.259,5.318-12.874,22.084-13.659,32.2-6.191C-.045,75.8,9.08,94.455,3.158,110.4c-5.79,4.652-9.422,11.912.91,13.463,24.129,13.426,53.083,21.93,80.512,14.6,4.2.116,15.914-9.875,15.463-1.626-10.675,6.339-23.739,9.046-36.134,8.845Zm-97.629-44.711c-.7-3.419-8.282-16.37.125-9.623,9.244,5.652,18.262-7.952,12.787-15.706,3.286,2.756,15.3,12.33,10.183,1.824-7.1-10.591-27.826-15.536-32.48-.253-1.784,7.7-.2,22.244,9.119,23.735l.265.024Zm149.716,21.9c-7.478-6.563,8.473-14.2,7.75-22.649C133.662,74.145,132.684,45.6,130,18.3c-6.909,10.566-14.972,20.752-26.414,26.655A99.888,99.888,0,0,1,74.076,55.636c-9.178-5.946,10.033-5,13.2-7.963,17.112-5.854,33.379-18.035,39.2-35.762,10.181-8.66,9.124,12.626,9.541,18.871,1.675,30.939.113,64.729-18.791,90.7Zm-50.684-1.046c-4.54,1.689-21.357-2.285-9.366-5.09,8.779-1.212,24.315-3.973,26.659-11.307-10.528-9.58,8.187-1.6,10.532,3.227,5.472,9.766-9.928-1.461-13.712,6.427-3.4,5.418-7.614,7.267-14.113,6.743Zm-4.3-31.081c-10.013,2.684-16.155-16.069-12.053-16.5,3.166,12.683,23.573,1.767,13.423-7.217-8.317-6.115,10.436-1.9,10.288,3.84C77.7,79.564,71.309,91.2,61.008,90.743ZM20.142,86.456c-8.023,3.512-15.4-13.2-10.594-13.835,4.537,12.1,20.833-3.572,8.993-9.107,8.919-1.9,14.688,7.955,11.4,15.891C28.859,83.813,24.521,86.456,20.142,86.456ZM-2.743,58.045c-2.026-8.212.584-17.474-.291-26.114-.543-4.25.514-14.5,3.371-5.274C7.955,41.138,22.4,52.451,38.892,54.32c-6.747,8.188-14.2-6.215-22.752-5C9.823,50.07,2.111,31.038.748,43.076c-.121,4.944,1.66,11.869-3.491,14.97ZM125.647,34.936C125.166,34.551,126.225,33.815,125.647,34.936Z" transform="translate(48.647 -8.198)" fill="#2d3233"/><path d="M173.933,129.155c-5.2-2.407-10.314-4.984-15.493-7.428,3.984-3.052,5.095-11.1,7.659-9.528-.319-3.906-7.557-18.325-.7-8.476,4.339,7.852,6.328,16.868,8.534,25.432ZM69.876,77.165C60.6,72,76.259,67.612,80.969,65c8.6-1.867-8.66-11.244,1.914-6.883,5.79-.336,18.255,15.33,6.6,10.374-10.408-5.113-10.354,10.181-19.6,8.672Zm-84.146-.653c-19.812-1.161-35.363-21.72-33.545-41.042.685-11.46,12.741-19.448,23.579-16.339C-5.4,23.865,9.109,45.348,3.406,64.5c-2.481,7.278-9.751,13-17.677,12.009Zm-10.06-7.88c11.492-1.907-13.176-10.312-1.551-9.573C-16.506,60.68-11.1,47.389-8.5,45.182c.735,4.936,5.33,14.625,6.96,5.871C-3.6,37.038-15.662,23.046-30.569,23.075c-10.744-.164-15.646,11.8-13.274,20.931,2.362,10.476,9.526,20.335,19.512,24.626Zm86.313-22.05c-9.7,2.923-17.1-13.53-13.057-16.569C51.39,37.38,60.69,47.357,67.877,38.6c7.7-7.571-8.232-16.173-6.915-18.4,11.972-.732,18.159,16.428,8.385,23.449a12.824,12.824,0,0,1-7.365,2.93Zm-42.6-4.275C10.741,44.8,5.5,28.186,9.112,27.653c1.121,10.131,18.76,14.394,17.132,1.156C24.4,23.547,11.8,16.627,23.914,20.048,30.759,22,30.144,28.432,30.106,33.9c.41,4.929-6.4,8.58-10.723,8.406Z" transform="translate(48.71 35.816)" fill="#070808"/></g></svg>