<svg xmlns="http://www.w3.org/2000/svg" width="158.914" height="154.972" viewBox="0 0 158.914 154.972"><path d="M175.687,381.141c-8.833,1.594-20.6,1.585-25.765-7.13-1.619-7.81-8.711-11.944-12.826-17.647,6.109-3.393,13.534,2.771,16.392,8.193,4.124,7.913,14.332,9.32,21.851,5.784.374-3.294,5.07-9.934,4.429-11.034-13.079-1.146-27.55-7.54-31.947-20.921-4.584-12.8-4.915-28.948,5.056-39.391-1.77-5.92-4.232-20.849,4.229-21.3,6.863,1.16,13,5.189,18.932,8.2a75.092,75.092,0,0,1,39.26.078c6.6-3.839,13.783-9.043,21.745-8.12,5.406,7.126-.488,16.9,2.722,23.239,8.885,11.481,7.586,27.869,1.943,40.495-5.747,11.885-19.534,16.749-31.873,17.851,7.553,7.158,4.885,18.2,5.368,27.52.324,3.859-.794,8.071.875,11.632,7.1,3.341,14.968-3.786,21.51-6.781,23.981-14.86,39.045-43.122,37.182-71.4-.969-33-25.154-63.33-56.8-72.3-27.361-8.107-58.808-.44-78.8,20.105-24.388,23.693-30.329,63.673-13.92,93.433,9.681,18,26.327,32.648,46.129,38.258,7.2-.671,3.427-10.047,4.309-14.818,0-1.317,0-2.644,0-3.952Z" transform="translate(-116.01 -244.938)" fill="#cecece"/></svg>