<svg xmlns="http://www.w3.org/2000/svg" width="242.665" height="275.473" viewBox="0 0 242.665 275.473"><g transform="translate(0 0)"><path d="M65.907,446.882c-1.2-15.9-2.659-31.805-3.71-47.721v-.151c10,.228,20.176-.354,30.091.1,0,.26,2.1,23.868,2.137,23.981,11.758,3.35,18.441,5.343,34.5,9.083l-.013,31.794ZM60.545,383.87c-2.076-31.645-6.3-63.982-8.1-91.9l76.44-.1v30.149L85.84,322l2.626,31.223,40.418-.012v30.7s-45.745.135-68.34-.037Z" transform="translate(-7.277 -241.29)" fill="#e9e9e9"/><path d="M64.938,505.318q.007-7.835.014-15.669c20.621-5.7,0,0,61.862-17.1l9.15-93.34-71.04-.312V347.7h73.218c.759-10.061,2.188-20.064,2.671-30.146H64.924v-30.7h99.047q-9.49,106.024-18.882,212.058-40.067,11.088-80.165,22.07.007-7.835.014-15.669Zm-.013-71.582V409.594c12.321.083,24.975-.166,37.09.124q-1.85,19.573-3.758,39.141c-11.094,3.009-22.2,5.98-33.291,9-.053-8.039-.033-16.08-.041-24.118Z" transform="translate(56.683 -266.975)" fill="#ed6429"/><path d="M116.589,545.141q-24.716-6.995-49.43-14Q56.057,407.392,45.07,283.63q121.332-.008,242.665-.012c-7.391,82.518-14.574,165.063-22.158,247.558q-49.667,14.015-99.368,27.912c-16.569-4.541-33.084-9.294-49.62-13.946Zm130.253-29.585q9.53-106.02,18.882-212.058H166.678v30.7c-25.48.043-50.963-.107-76.44.1,2.347,30.639,5.411,61.219,8.046,91.835,22.792.222,45.6.055,68.394.106l.041,48.26c-11.377-2.723-34.438-9.013-34.438-9.013l-2.236-23.916-30.108-.153,3.764,47.794,63,17.082-.028,31.338s56.369-15.481,80.165-22.07ZM126.26,395.55l-2.626-31.224,43.044.018v31.193s-40.418.012-40.418.012Z" transform="translate(-45.07 -283.614)" fill="#e24e25"/></g></svg>