<svg xmlns="http://www.w3.org/2000/svg" width="168.243" height="190.916" viewBox="0 0 168.243 190.916"><g transform="translate(0)"><path d="M118.692,419.072s-.1-161.382-.1-161.382H186.4l-13.279,146.69-54.433,14.692Zm50.31-34.2,5.49-60.241-31.023,4.4.573-32.343c10.859-.043,21.722.108,32.578-.167l1.234-18.65c-16.257.043-52.781.215-52.781.215l.142,72.461,29.5-4.084L152.8,369.49l-27.19,7.438-.222,20.167Z" transform="translate(-34.569 -242.709)" fill="#fddb25"/><path d="M188.357,446.16l-68.849-19.8s-9.971-113.78-14.631-170.665c55.041-.807,112.153-.292,168.243-.292-4.585,56.948-14.586,170.9-14.586,170.9L188.356,446.16Zm55.079-29.242,13.279-146.69H188.906c.024,53.794-.072,107.589.1,161.382ZM182.5,290.373l-18.644.22-.424,94.018-32.064-8.654.126,19.541,50.9,14.083Z" transform="translate(-104.877 -255.244)" fill="#e7c832"/></g></svg>