<svg xmlns="http://www.w3.org/2000/svg" width="732.556" height="211.881" viewBox="0 0 732.556 211.881"><path d="M67.551,444.63c-1.073-.431-1.183-.829-1.193-4.3a64.191,64.191,0,0,0-.533-7.441c-.3-2.043-.325-3.871-.069-4.2a73.972,73.972,0,0,0,2.715-7.294l2.261-6.706.926,1.522a9.151,9.151,0,0,0,2.06,2.317l1.134.795-1.068,2.093c-1.339,2.624-2.153,7.536-2.158,13.02,0,4.007-1.62,10.8-2.548,10.708a9.551,9.551,0,0,1-1.528-.508ZM64.834,427c.025-.612.15-.736.317-.317a1.056,1.056,0,0,1-.042,1.007c-.175.175-.3-.136-.276-.69Zm19.924-16.25a26.379,26.379,0,0,1,3.117-2.89,18.682,18.682,0,0,1-2.591,2.89,26.377,26.377,0,0,1-3.117,2.89A18.676,18.676,0,0,1,84.758,410.752Zm-36.846-3.81c-.654-.833-.635-.852.2-.2a3.308,3.308,0,0,1,.919.92c0,.432-.431.154-1.118-.721ZM21.225,349.768c.025-.612.15-.737.317-.317a1.056,1.056,0,0,1-.042,1.007c-.175.175-.3-.136-.276-.69Zm91.946-1.051c.025-.612.15-.737.317-.317a1.056,1.056,0,0,1-.042,1.007c-.175.175-.3-.136-.276-.69ZM20.78,340.086c0-1.011.108-1.425.24-.92a4.314,4.314,0,0,1,0,1.839C20.888,341.511,20.78,341.1,20.78,340.086Zm92.433-6.305c0-.722.119-1.018.265-.657a2.027,2.027,0,0,1,0,1.314C113.332,334.8,113.213,334.5,113.213,333.781Zm-91.988-3.458c.025-.612.15-.737.317-.317a1.056,1.056,0,0,1-.042,1.007c-.175.175-.3-.136-.276-.69Zm.525-5.255c.025-.612.15-.737.317-.317a1.057,1.057,0,0,1-.042,1.007c-.175.175-.3-.136-.276-.69Zm25.7-61.364a3.3,3.3,0,0,1,.919-.919c.833-.654.852-.635.2.2-.686.875-1.118,1.154-1.118.721Zm31.5-4.4-1.811-1.97,1.97,1.811a17.884,17.884,0,0,1,1.97,1.97C81.08,261.517,80.635,261.14,78.95,259.3Zm-24.929-2.758a31.039,31.039,0,0,1,3.382-3.152,22.613,22.613,0,0,1-2.857,3.152,31.045,31.045,0,0,1-3.382,3.152A22.609,22.609,0,0,1,54.021,256.546Zm5.517-4.927a3.3,3.3,0,0,1,.919-.919c.833-.654.852-.635.2.2-.686.875-1.118,1.154-1.118.721Zm6.3-9.753a1.737,1.737,0,0,1,.45-1.3c.247-.153.338.306.2,1.02-.3,1.55-.651,1.7-.651.278Z" transform="translate(-20.78 -240.539)" fill="#aaa193"/><path d="M28.472,412.851c-.856-3.523-.851-3.832.127-7.656.561-2.192,1.435-7.442,1.943-11.666l.923-7.681.393,3.94a70.592,70.592,0,0,0,1.5,8.349l1.1,4.41-2.229,6.625c-1.226,3.644-2.373,6.788-2.548,6.988s-.721-1.289-1.211-3.308Zm11.35-168.73-1-1.182,1.182,1c1.111.941,1.421,1.363,1,1.363a5.829,5.829,0,0,1-1.182-1.182Z" transform="translate(15.437 -228.238)" fill="#a09473"/><path d="M72.516,417.126l-1-1.182,1.182,1c1.111.941,1.421,1.363,1,1.363a5.825,5.825,0,0,1-1.182-1.182ZM51.534,410.3,48.4,407.011l3.284,3.136c1.806,1.725,3.284,3.2,3.284,3.284,0,.388-.518-.086-3.432-3.136Zm14.507-4.378c.025-.612.15-.737.317-.317a1.056,1.056,0,0,1-.042,1.007c-.175.175-.3-.136-.276-.69ZM44.915,403.2c-.654-.833-.635-.852.2-.2a3.308,3.308,0,0,1,.919.92c0,.432-.431.154-1.118-.721Zm22.7-1.489c.025-.612.15-.736.317-.317a1.056,1.056,0,0,1-.042,1.007c-.175.175-.3-.136-.276-.69Zm-.99-1.007c.011-.867.128-1.158.262-.647a3,3,0,0,1-.02,1.576c-.144.356-.253-.062-.242-.93Zm.464-3.722c.025-.612.15-.736.317-.317a1.056,1.056,0,0,1-.042,1.007c-.175.175-.3-.136-.276-.69ZM54.5,315.977c-7.623-22.753-14.053-41.581-14.29-41.84-1.054-1.157,8.6-13.117,16.814-20.836,7.095-6.664,7.795-7.543,8.743-10.98.535-1.937.669-2.11.707-.914.031.974.253,1.349.654,1.1.371-.229.464-.145.24.219-.2.326-.126,5.86.167,12.3.511,11.187,1.417,102.344,1.018,102.329-.106,0-6.429-18.623-14.053-41.376ZM20.855,347.6c.025-.612.15-.736.317-.317a1.056,1.056,0,0,1-.042,1.007c-.175.175-.3-.136-.276-.69Zm92.007-2.058c.011-.867.128-1.158.262-.647a3,3,0,0,1-.02,1.576c-.144.356-.253-.062-.242-.93Zm0-9.983c.011-.867.128-1.158.262-.647a3,3,0,0,1-.02,1.576c-.144.356-.253-.062-.242-.929Zm-92.007-4.247c.025-.612.15-.737.317-.317A1.056,1.056,0,0,1,21.131,332c-.175.175-.3-.136-.276-.69ZM82.22,262.919c-.654-.833-.635-.852.2-.2.875.686,1.154,1.118.721,1.118a3.311,3.311,0,0,1-.919-.92Zm-8.407-8.932c-.654-.833-.635-.852.2-.2.875.686,1.154,1.118.721,1.118a3.309,3.309,0,0,1-.919-.919Z" transform="translate(-20.41 -239.948)" fill="#4bad51"/><path d="M125.594,348.14l-13-.187v-1.331c0-2.5,1.4-4.355,3.548-4.694,3.687-.581,6.652-2.044,7.486-3.694.673-1.331.81-6.738.937-36.908.135-32.111.069-35.518-.728-37.2-1.238-2.609-3.914-3.722-11.374-4.734-1.373-.186-2.492-.607-2.487-.936a10.477,10.477,0,0,1,1.19-2.684l1.182-2.087,28.626,0,28.626,0,5.087,1.386c8.8,2.4,15.095,6.091,20.829,12.221,10.347,11.06,14.082,28.408,9.775,45.394-3.886,15.325-15.613,27.3-31.661,32.331-9.7,3.042-17.519,3.548-48.033,3.108Zm41.064-7.808C176.777,337.946,185.7,328.9,189.2,317.48c2.513-8.213,2.8-20.843.662-29.079-3.5-13.488-12.652-22.919-25.777-26.571-4.86-1.352-14.878-2.21-19.391-1.66-5.821.709-5.354-2.7-5.186,37.832.137,33.03.2,35.107,1.133,36.983,1.153,2.32,4.049,4.193,8.219,5.313,3.841,1.032,13.488,1.05,17.8.031Zm61.653,7.771c-11.182-.145-11.69-.2-11.69-1.175a8.932,8.932,0,0,1,.876-2.861c.764-1.6,1.185-1.88,3.284-2.167,7.035-.963,8.294-1.877,9.009-6.539.32-2.085.466-16.766.376-37.686l-.148-34.271-1.365-1.365c-1.13-1.13-2.284-1.507-6.7-2.188-5.875-.906-5.986-1.014-4.339-4.241l.995-1.949,24.619.031c21.318.024,25.1.148,28.2.919,7.909,1.968,12.883,5.541,15.71,11.284,1.6,3.258,1.727,3.883,1.727,8.773,0,4.587-.176,5.637-1.371,8.155a22.142,22.142,0,0,1-9.085,9.67l-3.5,2.049,4.353,1.64c8.195,3.088,13.252,7.544,15.7,13.83,1.676,4.308,1.683,11.629.018,16.552q-3.517,10.387-16.135,16.643c-7.953,3.941-16.241,5.361-30.165,5.169-4.768-.066-13.93-.187-20.359-.271Zm41.979-8.625a18.555,18.555,0,0,0,8.776-8.768c1.252-2.671,1.391-3.573,1.391-9.019,0-5.781-.077-6.208-1.729-9.567-2.646-5.377-7.219-8.727-14.558-10.664-3.456-.912-16.08-1.665-18.354-1.094l-1.427.358.171,16.4c.162,15.586.227,16.5,1.3,18.5,2.445,4.563,5.208,5.558,14.9,5.367,5.835-.115,6.9-.284,9.535-1.513Zm-3.878-46.909a14.757,14.757,0,0,0,4.345-3.327c2.786-3.165,3.86-6.864,3.549-12.229q-.973-16.8-23.271-16.773a17.3,17.3,0,0,0-4.96.483c-1.128.714-1.55,6.073-1.58,20.089-.024,11.408.049,12.462.893,12.709.506.148,4.939.206,9.851.128,7.153-.113,9.378-.328,11.174-1.079Z" transform="translate(436.34 -173.29)" fill="#8c704d"/><path d="M40.691,356.708l-18.838-56.2,1.427-4.077c2.682-7.662,10.952-23.792,11.78-22.976.182.179,6.638,19.045,14.347,41.925l14.017,41.6.227-5.78c.125-3.179.138.567.029,8.323-.217,15.441-.925,30.688-1.749,37.65-.291,2.456-.791,6.712-1.112,9.457a36.856,36.856,0,0,1-.936,5.637c-.194.355-8.831-24.646-19.192-55.557Zm22.415-31.255c.006-1.156.113-1.567.239-.913a5.745,5.745,0,0,1-.01,2.1c-.132.5-.234-.031-.228-1.188Zm.093-34.94c0-6.791.075-9.569.166-6.174s.092,8.952,0,12.347S63.2,297.3,63.2,290.513ZM75.517,260.7c-.654-.833-.635-.852.2-.2.875.686,1.154,1.118.721,1.118a3.3,3.3,0,0,1-.919-.919Zm-12.925-1.708c0-1.3.1-1.832.228-1.182a7.486,7.486,0,0,1,0,2.365c-.125.65-.228.118-.228-1.182Zm-.586-11.559c0-.723.119-1.018.265-.657a2.028,2.028,0,0,1,0,1.313C62.125,248.448,62.006,248.152,62.006,247.43Zm-.567-6.086c.025-.612.15-.737.317-.317a1.057,1.057,0,0,1-.042,1.007c-.175.175-.3-.136-.276-.69Z" transform="translate(-15.284 -239.3)" fill="#37a442"/><path d="M60.156,415.559c-4.291-3.329-15.06-14.391-18.55-19.055-19.8-26.456-25.231-54.452-17.142-88.351,1.8-7.534,2.4-9.265,2.83-8.144.167.434,8.678,25.786,18.914,56.34C63.783,408.813,64.79,412.023,64.324,414.1c-.867,3.859-1.011,3.91-4.168,1.461Zm12.48-.915c-1.594-1.663-3.088-5.528-4.1-10.6-.829-4.156-.854-17.253-.065-33.889.658-13.883-.026-105.763-.893-119.793-.285-4.624-.52-8.761-.522-9.195s.884.867,1.968,2.89C72,249.6,72.592,250.4,78.669,256.926c11.97,12.862,18.936,23.366,24.838,37.453,5.468,13.052,8.324,24.348,9.243,36.557a97.727,97.727,0,0,1-26.524,75.08c-4.009,4.261-10.76,10.108-11.673,10.108a5.445,5.445,0,0,1-1.918-1.48Z" transform="translate(-20.387 -237.763)" fill="#1d9036"/><path d="M338.4,359.285c-6.2-.912-12.168-4.044-15.525-8.14-3.726-4.547-4.932-10.842-2.858-14.907,1.169-2.291,5.276-6.12,10.567-9.851,3.385-2.387,4.506-3.848,2.954-3.848a11.336,11.336,0,0,1-3.126-1.548,12.461,12.461,0,0,1-5.432-7.233c-.322-1.612-.2-1.757,3.535-4.13,6.743-4.287,7.277-4.676,7.281-5.314,0-.343-1.533-1.38-3.411-2.3a19.17,19.17,0,0,1-9.065-9.3c-1.061-2.317-1.4-4.047-1.6-8.042-.3-6.308.411-9.487,3.05-13.571,3.581-5.54,10.506-9.561,19.739-11.462a19.692,19.692,0,0,1,8.893-.237,51.96,51.96,0,0,1,8.838,2.253c7.327,2.724,14.314,2.659,18.348-.172,1.3-.912,1.48-.929,1.773-.165.557,1.451-.165,5.582-1.229,7.035-1.709,2.333-4.2,3.309-7.507,2.944l-2.89-.318V278.5c0,7.191-.067,7.669-1.522,10.819a20.017,20.017,0,0,1-4.884,6.441c-5.237,4.9-10.777,7.271-19.049,8.155-2.769.3-3.667.641-4.914,1.888-1.227,1.226-1.456,1.807-1.169,2.957.863,3.458,2.555,4.083,13.148,4.858,10.457.764,17.709,1.853,20.4,3.062,6.739,3.032,10.084,10.925,8.029,18.947-1.244,4.856-3.242,8.21-7.409,12.437-8.772,8.9-21.972,13.135-34.966,11.222Zm17.085-7.348c6.667-.963,11.071-3.688,13.664-8.452,2.932-5.387,1.7-11.818-2.837-14.812-3.883-2.562-11.309-4.043-20.175-4.021-5.6.012-7.692.764-11.477,4.127-3.411,3.031-4.862,6.186-4.491,9.771.521,5.047,3.492,8.788,9.04,11.385,4.823,2.257,10.056,2.9,16.276,2Zm-2.121-55.3c4.345-2.4,6.35-7.633,5.965-15.572-.383-7.9-2.947-12.411-8.557-15.068-4.658-2.206-10.727-1.339-13.766,1.967-2.464,2.68-3.567,6.159-3.561,11.228.006,5.5,1.029,9.384,3.42,12.993,3.672,5.543,10.96,7.51,16.5,4.452Zm-167.5,25.623c-12.45-3.133-20.4-14.081-21.174-29.144-.528-10.311,2-17.493,8.45-23.965,5.828-5.852,13.814-9.293,23.162-9.98a29.061,29.061,0,0,1,26.075,12.247c6.082,8.81,6.855,23.322,1.814,34.082a34.752,34.752,0,0,1-10.771,12.284,45.44,45.44,0,0,1-6.939,3.274c-3.91,1.462-5.131,1.663-10.968,1.812a37.6,37.6,0,0,1-9.65-.609Zm19.107-6.594c6.558-2.969,9.212-9.114,9.172-21.237-.045-13.672-4.842-23.387-13.521-27.382-4.295-1.977-10.474-2.142-13.777-.369-6.742,3.62-9.626,10.756-9.046,22.386.343,6.876,1.269,10.762,3.8,15.949,2.258,4.625,6.793,9.055,10.877,10.625,3.785,1.454,9.316,1.467,12.495.031Zm206.293,6.594a26.98,26.98,0,0,1-17.344-13.982,35.547,35.547,0,0,1-3.83-15.425c-.532-10.014,2.06-17.286,8.45-23.7,9.786-9.826,26.2-12.872,38.349-7.116,8.09,3.833,13.544,11.118,15.336,20.483,2.21,11.548-.718,23.021-7.74,30.333a29.2,29.2,0,0,1-12.6,8.205c-3.91,1.462-5.131,1.663-10.968,1.812a37.6,37.6,0,0,1-9.65-.609Zm19.37-6.753c4.924-2.328,7.6-6.78,8.707-14.467,2.175-15.158-3.419-29.435-13.319-33.992-4.3-1.98-10.462-2.141-13.813-.362-4.446,2.361-7.448,6.931-8.662,13.185-.8,4.105-.38,13.853.78,18.238,2.166,8.187,7.63,15.256,13.55,17.531,4.007,1.54,9.339,1.485,12.757-.131Zm-191.293,6.55a10,10,0,0,1-.219-2.721v-2.5l2.994-.622c4.315-.9,5.307-1.483,5.988-3.547.406-1.231.628-7.943.672-20.354.077-21.623.652-19.64-6.565-22.631-3.976-1.648-4.665-2.114-4.665-3.154,0-1.587.876-2,6.568-3.1,2.6-.5,7.4-1.718,10.671-2.7s6.2-1.627,6.508-1.435c.376.232.452,1.824.228,4.74s-.154,4.391.214,4.391a21.2,21.2,0,0,0,4.075-2.669c4.32-3.272,9.852-5.961,13.981-6.8a18.245,18.245,0,0,1,19.367,9.331c2.744,5.041,3.1,7.838,3.377,26.666.2,13.708.413,17.583,1,18.507.68,1.068,2.947,1.951,7.7,3,1.275.281,1.445.56,1.445,2.367,0,3.67,1.035,3.452-16.162,3.411l-15.625-.037-.157-2.673c-.156-2.649-.142-2.676,1.576-3,4.358-.831,6.281-1.557,6.877-2.6.463-.807.618-5.4.571-16.9-.074-17.934-.433-20.286-3.638-23.834-2.8-3.1-6.4-4.419-11.248-4.135-4.692.275-9.849,2.344-11.891,4.77l-1.316,1.564.156,19.155c.181,22.233-.288,20.594,6.2,21.688,3.66.617,3.678.629,3.641,2.281-.086,3.86.953,3.627-16.457,3.7-8.6.037-15.743-.037-15.863-.155ZM41.392,320.463c-.468-2.447.4-3.541,3.15-3.953,2.828-.424,4.877-1.342,5.99-2.682.569-.686.831-3.708,1.106-12.776.479-15.778.032-27.637-1.092-29.02-.46-.565-2.846-1.835-5.3-2.823-4.3-1.729-5.508-2.847-4.336-4.018a38.147,38.147,0,0,1,6.845-1.78,111.822,111.822,0,0,0,10.863-2.8c2.659-.894,4.637-1.308,4.821-1.011a16.672,16.672,0,0,1-.053,4.4c-.489,5.217.012,5.348,5.773,1.515,6.4-4.259,11.551-6.2,16.544-6.233,5.372-.037,8.555,1.412,12.371,5.629a20.814,20.814,0,0,1,2.866,3.6c0,1.008,1.778.285,4.836-1.966,4.27-3.144,10.9-6.3,14.966-7.119a17.958,17.958,0,0,1,19.96,10.368c2.295,5.012,2.757,9.532,2.777,27.132.017,15.29.073,16.211,1.04,17.178,1.077,1.077,5.68,2.656,7.743,2.656,1.059,0,1.217.258,1.21,1.97a6.2,6.2,0,0,1-.394,2.5c-.242.329-6.029.525-15.491.525H122.478V319.5c0-1.337.266-2.335.657-2.46.361-.116,2.033-.592,3.715-1.06,4.682-1.3,4.674-1.266,4.468-20.71l-.171-16.079-1.478-3.01a16.6,16.6,0,0,0-3.415-4.612,16.1,16.1,0,0,0-9.07-3.148c-2.885,0-8.438,1.875-11.3,3.814l-2.512,1.7.135,19.416c.082,11.751.343,19.806.664,20.4.652,1.219,3.056,2.256,6.381,2.752l2.522.376-.158,2.409-.158,2.409-15.393.055-15.393.055.156-2.378.156-2.378,3.415-.676c4.871-.964,5.578-1.922,6.049-8.208.2-2.729.268-10.249.141-16.712-.209-10.674-.341-12.033-1.432-14.832-3.011-7.723-10.4-10.533-18.886-7.187-3.771,1.486-7.276,3.768-7.9,5.145-.751,1.648-.759,35.392-.009,38.092.646,2.327,2.255,3.326,6.2,3.849l2.709.359v4.856H41.638l-.246-1.287Z" transform="translate(80.207 -147.855)" fill="#cecece"/></svg>