<svg xmlns="http://www.w3.org/2000/svg" width="868.88" height="409.614" viewBox="0 0 868.88 409.614"><path d="M236.891,388.845c-16.844-22.242-43.27-59.014-58.726-81.716s-37.706-55.241-49.444-72.31S95.4,186.342,80.754,165.02L54.131,126.251l-1.1,108.072C51.96,338.965,51.664,342.4,43.718,342.4c-7.992,0-8.206-3.087-8.206-117.919V106.557h9.572c7.758,0,17.811,12.347,53.056,65.166,23.917,35.841,72.732,108.455,108.479,161.363s64.072,96.2,62.945,96.2-15.83-18.2-32.673-40.439Zm-2.777-164.368V106.557H315.14c62.98,0,80.643,1.152,79.306,5.172-1.267,3.81-20.43,5.47-72.751,6.3l-71.031,1.132v94.968h66.2c56.087,0,66.2.948,66.2,6.206s-10.114,6.206-66.2,6.206h-66.2V329.983H323.07c61.6,0,72.407.926,72.407,6.206,0,5.3-11.723,6.206-80.682,6.206H234.113ZM406.8,337.224c2.234-2.845,14.841-20.067,28.017-38.272s31.4-42.935,40.5-54.955l16.54-21.855-13.7-19.52c-7.535-10.736-25.735-35.882-40.445-55.88-25.2-34.263-29.292-44.043-16.336-39.071,3.06,1.174,21.931,24.816,41.936,52.537s36.95,49.8,37.656,49.061,13.544-18.1,28.529-38.579S560.013,129,564.017,123.553c22.4-30.462,80.639-103.884,82.4-103.884,1.136,0-10.54,18.153-25.947,40.341s-33.8,48.719-40.873,58.96-25.327,36.573-40.565,58.517-27.7,41.651-27.7,43.792,11.637,19.563,25.86,38.715c44.872,60.419,57.523,79.011,55.284,81.25-6.66,6.66-18.941-7.3-74.526-84.7-8.579-11.947-16.837-21.7-18.35-21.673S479.38,259.1,458.034,288.657C430.647,326.578,416.8,342.4,410.98,342.4c-6,0-7.138-1.406-4.181-5.172Zm282.25,0c-.1-2.845-.025-53.049.182-111.566l.373-106.395-42.256-1.181c-29.25-.818-42.784-2.773-43.971-6.353-1.338-4.033,18.4-5.172,89.655-5.172,78.46,0,91.37.877,91.37,6.206,0,5.1-7.356,6.206-41.375,6.206H701.653V230.683c0,96.542-.843,111.713-6.206,111.713-3.413,0-6.292-2.327-6.4-5.172Zm93.5,1.388a4.607,4.607,0,1,1,6.341,1.5A4.621,4.621,0,0,1,782.554,338.612Zm27.71,1.044c-6.141-2.478-6.99-13.81-1.034-13.81a4.15,4.15,0,0,1,4.138,4.138c0,6.749,15.448,4.7,18.176-2.407,1.381-3.6,2.512-15.7,2.512-26.894s1.862-20.349,4.137-20.349c5.311,0,5.386,37.553.109,51.45-3.92,10.31-14.575,13.3-28.031,7.873Zm52.671-3.566c-2.879-3.468-3.783-7.658-2.009-9.309s4.056-.676,5.072,2.169c2.506,7.016,24.554,6.588,27.285-.53,2.67-6.957-4.7-14.986-13.752-14.986-23.879,0-27.46-30.554-3.984-34,6.936-1.018,15.8.478,19.687,3.324,9.555,6.987,3.8,11.883-6.441,5.485-4.471-2.792-11.307-3.858-15.19-2.368-10.514,4.035-6.047,16.175,7.263,19.734,14.147,3.783,23.526,11.111,23.526,18.38,0,15.968-30.79,24.956-41.458,12.1Z" transform="translate(-35.512 -19.669)" fill="#cecece"/></svg>