<svg xmlns="http://www.w3.org/2000/svg" width="622.911" height="381.45" viewBox="0 0 622.911 381.45"><g transform="translate(-0.158 -0.055)"><path d="M177.853,167.7q-.2-50.5.049-101.011c.217,33.735.118,67.473.073,101.208l-.125-.2Zm-4.933-9.011q-18.552-33.8-37.091-67.606c7.178-4.455,14.691-8.482,21.959-12.829,6.287-3.55,12.529-7.224,18.8-10.8.1,32.64.006,65.281.006,97.922l-3.672-6.683Z" transform="translate(31.621 31.278)" fill="#80bd77"/><path d="M241.548,358.248a.455.455,0,0,1,.312,0c.086.037.018.063-.156.063s-.241-.031-.156-.063Zm1.122,0a.455.455,0,0,1,.312,0c.086.037.018.063-.156.063s-.241-.031-.156-.063Zm-82.152-151.8c-.136-.354-.087-141.249.049-141.333q.125-.077.124,70.727c0,38.942-.024,70.8-.049,70.8s-.083-.089-.125-.2Zm-4.525-8.271-7.214-13.1c-2.172-3.942-4.166-7.567-4.432-8.055l-.483-.888V74.7l6.722-3.887c3.7-2.138,6.782-3.887,6.855-3.887a.126.126,0,0,0,.133-.117c0-.064.2-.188.436-.274s.436-.2.436-.249.126-.13.281-.177a1.519,1.519,0,0,0,.467-.249c.191-.167.209,20.8.093,113.251l-.031,25Zm-12.969-23.564-.53-.977,0-49.088,0-49.088.591-.325.591-.325-.031,32.171c-.018,17.694-.043,40.37-.062,50.391l-.031,18.219-.53-.977Z" transform="translate(65.782 23.195)" fill="#7ab673"/><path d="M351.142,322.5c-.155-.2-.151-.2.049-.049a.788.788,0,0,1,.218.218c0,.1-.1.037-.265-.171ZM449.49,292.21l-.3-.343.343.3c.32.282.4.383.3.383a2.081,2.081,0,0,1-.343-.343ZM339.136,215.566c-.184-.332-1.241-2.249-2.351-4.26l-2.017-3.657.031-70.895.031-70.894.612-.263a7.687,7.687,0,0,1,4.072-.567,2.781,2.781,0,0,1,.82,1.027c.308.526,1.558,2.668,2.778,4.758s2.575,4.408,3.013,5.149.795,1.37.795,1.4.3.545.666,1.149.806,1.349.978,1.656.639,1.119,1.038,1.8,1.017,1.751,1.373,2.368.893,1.542,1.194,2.057l.548.935.062,60.835L352.841,209l-5.547,3.193c-5.6,3.223-6.588,3.745-7.387,3.894-.424.079-.45.061-.772-.521ZM353.28,148.5l0-60.171.59,1,.59,1,.062,58.863c.062,58.782.062,58.863-.187,58.941a2.163,2.163,0,0,0-.546.31,1.169,1.169,0,0,1-.4.232c-.061,0-.107-26.391-.106-60.171Zm-19.321,57.651-.561-1.033.062-69.23.062-69.23.561-.33.561-.33-.031,45.067c-.018,24.787-.043,56.553-.062,70.592l-.031,25.525Zm-1.87-3.339c-.073-.137-.105-.249-.071-.249s.123.112.2.249.105.249.071.249-.123-.112-.2-.249Zm-1.371-2.493c-.073-.137-.105-.249-.071-.249s.123.112.2.249.105.249.071.249S330.791,200.455,330.718,200.318Zm-57.867-22.157a10.59,10.59,0,0,1-.524-1.127c-.084-.276-.049-.27.827.17.5.252.933.475.956.5a4.792,4.792,0,0,1-.725,1.24c-.055.034-.295-.317-.535-.779Zm.386-1.306c-.745-.348-1.1-.587-1.151-.767a14.781,14.781,0,0,1-.006-2.817,29.19,29.19,0,0,1,3.55,1.779,23.023,23.023,0,0,1-1.293,2.323c-.006-.006-.5-.239-1.1-.517Zm-1.31-17.918c0-.446.024-.628.049-.405a3.582,3.582,0,0,1,0,.81C271.945,159.565,271.927,159.382,271.927,158.937Zm.018-26.923c0-14.225.012-20.044.031-12.932s.018,18.751,0,25.863-.031,1.293-.031-12.932Zm-163.427,6.918c0-.411.024-.565.049-.341a3.308,3.308,0,0,1,0,.748c-.031.187-.049,0-.049-.407ZM381.657,98.957c-7.1-9.612-12.891-17.5-12.863-17.528a23.2,23.2,0,0,1,3.032,1.75.251.251,0,0,0,.218.1c.1,0,.176.059.176.132s.065.092.144.043.111-.035.07.031,5.129,7.16,11.488,15.766L395.484,114.9l-.378.768a3.1,3.1,0,0,1-.457.768c-.043,0-5.889-7.865-12.992-17.477Zm3.277.441c-6-8.123-10.953-14.852-11.011-14.954s.187-.015.561.2.848.481,1.071.593.4.248.4.3a.115.115,0,0,0,.125.1,9.213,9.213,0,0,1,1.257.654c.622.36,1.337.77,1.588.911,2.276,1.277,22.511,13.006,22.893,13.27a5.864,5.864,0,0,1,.791.658l.292.314-1.431,2.6c-.787,1.428-2.338,4.252-3.446,6.274s-2.054,3.714-2.1,3.759-4.994-6.564-10.992-14.687Zm-142.8,6.94c0-.446.024-.628.049-.405a3.575,3.575,0,0,1,0,.81C242.153,106.966,242.135,106.784,242.135,106.338Z" transform="translate(-108.358 22.292)" fill="#6ba469"/><path d="M278.547,358.922a12.328,12.328,0,0,1-4.539-1.357c-1.114-.626-18.921-11.182-19.617-11.629a3.479,3.479,0,0,1-.96-.843c-.156-.3-.15-.364.062-.591a2.389,2.389,0,0,1,.773-.448,42.613,42.613,0,0,0,7.891-3.495,4.841,4.841,0,0,1,1.284-.573c.421,0-.1-.3,9.934,5.672,5.982,3.56,5.561,3.342,6.336,3.277.671-.055.688-.064,6.191-3.259.582-.338,2.686-1.551,4.674-2.694,5.451-3.136,9.23-5.319,12.526-7.237.446-.259,2.829-1.635,5.3-3.057s5.721-3.3,7.229-4.169l10.47-6.044,3.739-2.161c2.279-1.319,3.764-2.171,5.422-3.109s1.96-1.181,2.2-1.738c.255-.6.255-65.78,0-66.38s-.526-.794-3.568-2.543c-1.542-.886-14.218-8.2-28.169-16.25-29.156-16.827-25.889-15.174-27.83-14.072-1.506.855-43.564,25.127-45.023,25.982-.617.362-3.2,1.849-5.734,3.306s-4.743,2.767-4.9,2.911c-.687.619-.643-1.74-.642,33.879,0,32.5,0,32.948.245,33.343.3.493.049.334,6.548,4.08,2.948,1.7,5.808,3.353,6.357,3.677,3.664,2.166,5.579,2.973,7.728,3.256,4.123.543,7.462-1.4,8.683-5.057l.292-.872.062-32.968c.049-26.463.094-33.023.222-33.247a1.669,1.669,0,0,1,.561-.5c.352-.193.848-.224,4.039-.257a32.96,32.96,0,0,1,4.125.093,1.556,1.556,0,0,1,1.144.93c.088.232.129,10.828.129,33.335,0,35.851.024,34.432-.681,37.22-1.547,6.1-5.527,9.946-11.6,11.211a26.987,26.987,0,0,1-8.438.126,35.475,35.475,0,0,1-9.76-3.8l-5.422-3.126c-2.434-1.4-5.287-3.045-6.34-3.648a18.05,18.05,0,0,1-4.379-3.054,12.277,12.277,0,0,1-3.139-5.428l-.288-1v-68.8l.344-1.1a12.651,12.651,0,0,1,3.076-5.2,16.851,16.851,0,0,1,3.935-2.792c.823-.472,13.527-7.814,28.231-16.316,15.219-8.8,27.185-15.642,27.779-15.885a12.237,12.237,0,0,1,8.99-.064c.885.347,56.417,32.33,58.261,33.554A12.393,12.393,0,0,1,347.256,247l.281,1.059V316.49l-.281,1.059a12.534,12.534,0,0,1-6.325,7.845c-.411.231-1.056.6-1.433.824s-3.1,1.793-6.045,3.49-6.369,3.672-7.6,4.388c-2.174,1.262-2.932,1.7-7.977,4.61l-3.988,2.3-2.836,1.637-2.43,1.405c-.668.387-2.533,1.462-4.144,2.389s-6.519,3.762-10.906,6.3-8.342,4.8-8.787,5.017a11.744,11.744,0,0,1-6.232,1.165Zm14.458-44.753c-10.062-.573-17.5-3.42-21.513-8.235a13.916,13.916,0,0,1-2.2-3.28,18.913,18.913,0,0,1-1.942-7.229c-.143-1.862-.1-2.349.225-2.766.51-.65.528-.652,4.865-.656,5.157,0,4.9-.115,5.367,2.265.678,3.438,1.827,5.569,3.8,7.047,2.967,2.222,7.438,3.147,15.211,3.147,7.21,0,11.49-.844,14.178-2.8a5.6,5.6,0,0,0,1.731-1.78c1.286-1.881,1.572-5.37.582-7.1-1.479-2.585-6.494-4.082-17.874-5.333-8.176-.9-10.844-1.373-14.77-2.621a18.534,18.534,0,0,1-7.674-4.354,10.153,10.153,0,0,1-2.343-3.267,15.369,15.369,0,0,1-1.419-7.75,15.193,15.193,0,0,1,1.908-7.322c3.26-5.721,9.949-9.105,19.591-9.912a85.041,85.041,0,0,1,10.877.188c8.508,1.068,13.967,3.684,17.37,8.321a21.15,21.15,0,0,1,3.65,10.475c.069,1.073.055,1.179-.211,1.512-.532.669-.764.7-4.918.7-4.964,0-4.778.085-5.484-2.493-1.053-3.839-3.127-6.32-6.356-7.6a24.789,24.789,0,0,0-4.362-1.107,55.025,55.025,0,0,0-11.729-.083c-3.581.455-6.309,1.543-7.728,3.082a6.054,6.054,0,0,0-1.589,4.652,3.807,3.807,0,0,0,.311,2.057c1.212,2.637,4.183,3.468,20.485,5.733,10.972,1.524,16.834,3.546,20.219,6.974,2.515,2.548,3.648,5.766,3.649,10.371,0,6.851-3.067,11.986-9.161,15.327a25.975,25.975,0,0,1-6.606,2.543,55.1,55.1,0,0,1-16.141,1.291Zm72.067-57.386a11,11,0,0,1-8.273-7.911,12,12,0,0,1,0-5.3,11.031,11.031,0,0,1,7.957-7.8,11.947,11.947,0,0,1,4.682-.067,10.757,10.757,0,0,1-.056,21.072,13.2,13.2,0,0,1-4.312.007Zm4.707-1.742a9.443,9.443,0,0,0,6.258-6.294,7.121,7.121,0,0,0,.284-2.617,6.2,6.2,0,0,0-.391-2.775,8.741,8.741,0,0,0-1.971-3.306,9.385,9.385,0,0,0-4.9-2.76,12.908,12.908,0,0,0-3.94.053,9.342,9.342,0,0,0-5.508,3.8,10.542,10.542,0,0,0-1.253,2.875,11.6,11.6,0,0,0,.006,4.479,9.313,9.313,0,0,0,6.865,6.68,13.36,13.36,0,0,0,4.547-.137Zm-6.6-8.869v-6.065l2.836.077c3.357.091,3.9.206,4.7,1.006a3.085,3.085,0,0,1-.869,4.886c-.569.217-.632.427-.129.427a1.623,1.623,0,0,1,1.141.89,11.006,11.006,0,0,1,.432,2.014,23.835,23.835,0,0,0,.45,2.611c.055.2-.055.218-1.131.218a3.916,3.916,0,0,1-1.193-.094,40.315,40.315,0,0,0-.63-4.172c-.218-.479-.622-.6-2.056-.6h-1.3v4.861h-2.244Zm5.224-.884a1.609,1.609,0,0,0,.838-1.657c-.143-1.322-.61-1.615-2.575-1.615h-1.244v3.49H366.7a3.751,3.751,0,0,0,1.7-.218ZM201.122,216.006a.25.25,0,0,1,.239.01c.043.042-.031.071-.164.065s-.175-.036-.075-.075Zm.74,0a.485.485,0,0,1,.312,0c.086.034.018.063-.156.063s-.241-.028-.156-.063Zm-.467-2.161c-.073-.137-.105-.249-.071-.249s.122.112.2.249.105.249.071.249S201.468,213.985,201.394,213.848Zm14.582-65.842V87.274l-.576-1-1.224-2.119c-.356-.617-.974-1.683-1.374-2.368s-.866-1.5-1.038-1.8-.612-1.052-.978-1.656-.666-1.121-.666-1.149-.358-.657-.8-1.4-1.513-2.581-2.39-4.089-2.112-3.622-2.745-4.7a17.212,17.212,0,0,1-1.094-2.011,4.449,4.449,0,0,1,1.656.534c.459.234,5.368,3.06,22.631,13.028,2.468,1.425,4.526,2.658,4.575,2.739.235.4,25.688,34.8,25.826,34.9.123.1-1.214,2.622-5.821,11-3.289,5.979-6.021,10.847-6.07,10.817s-1.7-2.791-3.672-6.135-3.994-6.753-4.495-7.576-1.295-2.152-1.763-2.953l-.852-1.458-.031,38.975-.031,38.975-.778.445c-.427.245-3.554,2.045-6.947,4-8.237,4.748-9.486,5.463-9.546,5.463-.031,0-.049-26.432-.049-58.738V90.264l-.62-1.058-.62-1.058,0,60.22c0,54.8-.018,60.226-.2,60.3a1.273,1.273,0,0,1-.249.076c-.031,0-.055-27.329-.055-60.731Zm-79.4,30.825a.264.264,0,0,1,.123-.193c.07-.043.091.006.049.117-.083.216-.172.255-.172.076Zm.374-.631c.073-.137.162-.249.2-.249s0,.112-.071.249-.162.249-.2.249,0-.112.071-.249Zm.319-.535c.037-.1-.258-.316-.826-.591a3.372,3.372,0,0,1-1-.649c-.065-.121-.089-.22-.055-.22s.538.219,1.117.486a3.625,3.625,0,0,0,1.14.405c.049-.045-.006.1-.119.324-.2.4-.378.565-.255.244Zm.737-1.272a5.442,5.442,0,0,1,.477-.748c.07-.069-.031.156-.22.5a5.44,5.44,0,0,1-.477.748C137.72,176.96,137.821,176.736,138.01,176.393Zm.674-1.145a1.263,1.263,0,0,0,.14-.388,10.656,10.656,0,0,0-1.807-.971l-1.807-.856v-14.99c0-8.245.018-14.991.043-14.991.086,0,17.1,8.37,17.181,8.452s0,.252-5.9,10.431l-5.895,10.158c-1.014,1.748-1.9,3.234-1.966,3.3s-.061,0,.018-.148Zm388.642-20.829c-1.827-.948-11.471-6.615-11.743-6.9l-.343-.359v-6.984c0-5.741.031-7.044.175-7.321.254-.491,11.969-7.254,12.561-7.252.313,0,1.859.836,6.334,3.418,3.475,2.005,6.023,3.553,6.17,3.746.241.319.25.555.287,7.021.024,4.381-.006,6.844-.091,7.134a1.8,1.8,0,0,1-.412.7c-.452.414-11.988,7.018-12.26,7.018a1.977,1.977,0,0,1-.678-.224ZM258.509,115.084l.183-.359L247.582,99.691,235.937,83.932l-.535-.725.664.376a6.73,6.73,0,0,1,.914.6c.137.125,5.157,6.882,11.155,15.015,10.822,14.674,10.908,14.785,11.129,14.517.122-.149.018.122-.238.6a9.034,9.034,0,0,1-.581,1c-.066.069-.037-.037.063-.235Zm1.4-2.57a1.068,1.068,0,0,1,.256-.374c.037,0-.025.168-.131.374a1.088,1.088,0,0,1-.255.374c-.037,0,.024-.168.131-.374Zm.686-1.246c.073-.137.162-.249.2-.249s0,.112-.071.249-.162.249-.2.249S260.526,111.4,260.6,111.268Zm.748-1.371c.073-.137.162-.249.2-.249s0,.112-.071.249-.162.249-.2.249,0-.112.071-.249Zm.748-1.371c.073-.137.162-.249.2-.249s0,.112-.071.249-.162.249-.2.249S262.022,108.663,262.095,108.526Zm.623-1.122c.073-.137.162-.249.2-.249s0,.112-.071.249-.162.249-.2.249,0-.112.071-.249Zm.81-1.5a1.079,1.079,0,0,1,.255-.374c.037,0-.025.168-.131.374a1.079,1.079,0,0,1-.255.374C263.36,106.282,263.422,106.114,263.528,105.908Zm.686-1.246c.073-.137.162-.249.2-.249s0,.112-.071.249-.162.249-.2.249,0-.112.071-.249Zm.623-1.122c.073-.137.162-.249.2-.249s0,.112-.071.249-.162.249-.2.249,0-.112.071-.249Zm.748-1.371c.073-.137.162-.249.2-.249s0,.112-.071.249-.162.249-.2.249S265.511,102.306,265.585,102.169Z" transform="translate(28.446 22.471)" fill="#669c63"/><path d="M200.692,186.7c-1.44-.184-2-.482-13.629-7.216-1.748-1.012-5-2.893-7.229-4.18L172.6,171.13l-7.229-4.175-6.481-3.743-7.229-4.175-7.1-4.1c-1.268-.733-3.225-1.862-4.348-2.508a16.4,16.4,0,0,1-2.836-1.923l-.794-.748,2.694-4.612c2.873-4.918,10.663-18.33,12.271-21.126a14.926,14.926,0,0,0,.926-1.748c-.025-.036-3.917-1.967-8.653-4.29l-8.612-4.224.031-19.268.031-19.268.284-.7a9.033,9.033,0,0,1,1.723-2.644,6.265,6.265,0,0,1,1.594-1.183c.018.024,3.877,7.054,8.577,15.623,11.8,21.52,11.405,20.8,23.156,42.191l13.622,24.8c1.713,3.119,6.531,11.889,10.708,19.489s7.576,13.832,7.555,13.849a5.041,5.041,0,0,1-1.8.057Zm34.359-57.159V90.548l.763,1.309c.42.72.923,1.561,1.119,1.87.576.907,1.5,2.455,5.287,8.885,1.971,3.344,3.624,6.1,3.673,6.135.087.054,4.23-7.428,14.805-26.736,2.91-5.313,5.328-9.73,5.374-9.815.126-.235,1,1.008,1.4,1.989a8.958,8.958,0,0,1,.472,1.785c.181,1.3.184,68.883,0,70.329a7.616,7.616,0,0,1-1.08,3.018,9.186,9.186,0,0,1-2.142,2.1c-.562.351-8.533,4.952-21.951,12.67l-7.2,4.142-.53.306V129.541Z" transform="translate(28.438 51.73)" fill="#5b8762"/><path d="M500.685,290.511a9.9,9.9,0,0,1-2.6-.831c-.381-.2-13.9-8-30.053-17.327s-29.472-17.018-29.609-17.093a9.927,9.927,0,0,1-2.274-1.971,6.687,6.687,0,0,1-1.275-2.606c-.252-.909-.253-1.113-.253-36.192V179.213l.258-.931a9.95,9.95,0,0,1,.652-1.671,8.515,8.515,0,0,1,2.517-2.656c.473-.288,36.612-21.154,45.182-26.088l4.861-2.8c11.39-6.572,10.878-6.3,12.492-6.53a7.194,7.194,0,0,1,3.409.434c.417.166,3.641,1.962,7.167,3.992,6.391,3.68,6.941,3.995,8.061,4.616.326.181.649.373.718.427a3.139,3.139,0,0,0,.717.247,2.56,2.56,0,0,0,2.866-1.29l.279-.522.031-46.45c.031-44.067.043-46.478.249-47.01a3.45,3.45,0,0,1,2.615-2.185c1.112-.235,1.7-.051,4,1.251.255.144,1.137.638,1.959,1.1,13.085,7.293,31.7,17.7,32.237,18.027a7.456,7.456,0,0,1,3.159,4.354c.169.67.186,10.259.158,87.872l-.031,87.119-.291.776a7.462,7.462,0,0,1-2.825,3.585c-.343.225-14.113,8.2-30.6,17.718C515.112,283.766,504.2,290,503.679,290.172a8.618,8.618,0,0,1-2.991.339Zm1.2-50.7c.427-.152,19.109-10.849,20.66-11.83,1.174-.742,1.074.515,1.074-13.463,0-13.272.031-12.641-.642-13.254-.161-.146-4.938-2.945-10.617-6.22-11.2-6.458-10.971-6.346-11.921-5.855-.4.2-20.194,11.622-20.686,11.929a2.043,2.043,0,0,0-.5.609c-.257.457-.259.542-.258,12.783,0,13.987-.1,12.727,1.074,13.472,1.357.861,20.208,11.672,20.613,11.822a1.24,1.24,0,0,0,1.2.007Zm161.769,49.023a9.394,9.394,0,0,1-1.433-.332c-.377-.127-9.211-5.088-19.631-11.025s-19.142-10.9-19.382-11.039c-.415-.233-20.327-11.581-21.382-12.187a7.848,7.848,0,0,1-3.2-3.674l-.406-.935-.031-35.71c-.025-24.738.006-35.906.1-36.348a7.527,7.527,0,0,1,2.782-4.211c1.5-1.063,60.692-35.145,61.591-35.463a7.818,7.818,0,0,1,4.362-.046c.656.207,8.192,4.526,30.412,17.433,16.247,9.437,29.708,17.251,29.914,17.366a7.643,7.643,0,0,1,3.761,4.572c.2.665.221,1.624.259,9.684.049,10.113.031,10.374-.794,12.05a8.8,8.8,0,0,1-2.853,3.069c-.274.142-8.491,4.906-18.26,10.587-12.3,7.156-17.962,10.382-18.415,10.5a3.646,3.646,0,0,1-3.99-1.937c-.2-.424-.223-1.253-.28-9.873l-.062-9.41-.288-.636a4.467,4.467,0,0,0-.81-1.14c-.6-.578-19.078-11.289-20.091-11.645a3.149,3.149,0,0,0-2.244,0c-.5.172-15.8,8.893-19.132,10.9a4.03,4.03,0,0,0-1.786,1.834l-.27.561v23.433l.283.569a4.764,4.764,0,0,0,.81,1.076c.353.34,6.363,3.854,18.288,10.694,9.769,5.6,19.444,11.154,21.5,12.336,8.274,4.755,13.039,7.491,17.047,9.79,2.315,1.328,4.4,2.608,4.641,2.846a3.181,3.181,0,0,1,.993,2.451,3.276,3.276,0,0,1-1.492,2.895c-.359.246-35.6,19.85-36.6,20.358a7.49,7.49,0,0,1-3.913.608Zm-552.629-14.87a4.346,4.346,0,0,1-2.127-1.948l-.271-.561-.075-46.616c-.043-27.352-.031-47.028.037-47.613a7.364,7.364,0,0,1,3.217-5.076c1.384-.9,60.407-34.8,60.95-35a7.276,7.276,0,0,1,5.8.335c.91.466,59.943,34.473,60.451,34.823a7.485,7.485,0,0,1,2.7,3.588l.288.834-.006,47.177c-.006,44.3-.018,47.216-.222,47.814a3.61,3.61,0,0,1-2.8,2.375c-1.215.144-1.572.006-4.843-1.871-1.7-.977-9.743-5.582-17.866-10.233s-15.05-8.64-15.393-8.864a7.537,7.537,0,0,1-2.722-3.336l-.393-.893-.031-8.226c-.018-4.524-.049-14.873-.067-23-.031-13.6-.055-14.829-.252-15.518a7.235,7.235,0,0,0-2.9-4.112c-.839-.557-14.847-8.638-15.858-9.148a6.9,6.9,0,0,0-3.258-.8,6.711,6.711,0,0,0-3.189.671c-.411.2-4.2,2.339-8.413,4.764-6.645,3.822-7.784,4.52-8.555,5.242a7.322,7.322,0,0,0-2,3.2c-.218.653-.232,1.787-.292,23.682l-.063,23-.265.692a7.371,7.371,0,0,1-2.442,3.452c-.475.363-26.567,15.386-36.43,20.976a4.115,4.115,0,0,1-2.712.2Z" transform="translate(-108.314 -50.65)" fill="#cecece"/></g></svg>