<svg xmlns="http://www.w3.org/2000/svg" width="211.719" height="188.219" viewBox="0 0 211.719 188.219"><path d="M228.121,30.331C215.78,19.1,200.966,7.272,183.426,7.193c-12.294.012-19.058,12.752-19.836,23.607-1.428,11.7.381,23.473,3.012,34.864-16.091,5.123-34.146,11.75-42.668,27.432-6.032,12.378,4.308,24.826,14.336,31.205,8.542,5.884,18.291,9.711,28.155,12.729-3.364,16.441-6.783,35.606,2.873,50.629,8.21,11.383,24.315,7.951,34.954,2.266,8.956-4.444,16.811-10.784,24.131-17.5,12.578,11.187,27.691,23.954,45.643,22.7,13.951-1.674,18.732-17.618,19.058-29.633,1.722-9.6-3.653-22.1-1.623-29.441,15.543-5.289,33.011-12.315,40.841-27.832,5.623-12.375-4.993-24.186-14.906-30.2-7.728-6.645-21.889-8.186-27.628-13.794,3.439-16.47,6.155-35.732-3.943-50.44-8.237-10.607-23.657-6.977-33.722-1.37a103.615,103.615,0,0,0-23.978,17.917m42.367-14.337c11.378-.3,13.033,13.81,13.244,22.427-.335,8.006-.3,18.493-3.791,25.019a243.106,243.106,0,0,0-27.652-4.4,253.865,253.865,0,0,0-17.766-22.26c9.974-9.416,21.806-19.285,35.964-20.782M175.444,63.5c-3.02-13.867-6.214-29.71.707-42.917,5.461-7.944,16.417-3.437,23.356-.106,6.7,4.608,20.7,10.489,20.855,17.843A239.292,239.292,0,0,0,203.7,59.058,239.408,239.408,0,0,0,175.443,63.5m65.1-5.2c-8.331-.323-16.678-.376-25.008,0,4.735-3.092,10.205-20.215,15.762-11.516,3.217,3.726,6.35,7.534,9.246,11.516M225.33,67.041c9.355,1.349,23.3-4.021,26.842,8.149a256,256,0,0,1,14.416,25.867,231.012,231.012,0,0,1-19.474,33.55,270.235,270.235,0,0,1-38.334-.034,237.8,237.8,0,0,1-19.3-33.387,235.351,235.351,0,0,1,19.235-33.37c5.516-.543,11.074-.7,16.615-.775M197.1,68.917q-6.676,10.542-12.461,21.613c-2.571-5.976-4.754-12.114-6.746-18.3A180.185,180.185,0,0,1,197.1,68.917Zm81.125,3.395c-2.529,3.361-4.7,22.678-8.486,15.106-3.415-6.26-7.044-12.4-10.807-18.458a176.831,176.831,0,0,1,19.293,3.352ZM169,128.3c-13.609-4.326-28.733-9.954-36.611-22.661-4.647-10.456,7.566-18.292,15.33-22.743,6.254-1.708,18.251-11.822,22.263-5.77.9,9.224,10.756,18.074,8.166,26.939A226.768,226.768,0,0,0,169,128.3m118.379-.473a227.173,227.173,0,0,0-10.664-26.813c4.654-8.04,6.615-20.483,11.688-26.075,13.191,4.492,28.346,9.7,35.658,22.465,3.211,10.356-8.468,17.386-16.014,21.953A100.779,100.779,0,0,1,287.377,127.827ZM226.963,82.085c-13.589.136-22.677,16.9-15.322,28.373,6.483,12.459,26.471,12.343,32.812-.192,7.541-12.494-3-29.381-17.489-28.18M271.521,111.5a188.586,188.586,0,0,1,7.09,18.648c-6.514,1.445-13.107,2.5-19.723,3.352q6.657-10.8,12.633-22m-86.84.344c2.483,7.07,12.4,18.066,10.566,21.61-6.822-1.883-22.488.465-15.034-10.276,1.351-3.808,2.838-7.73,4.467-11.334M281.1,138.828c3.122,14.2,5.846,30.569-1.957,43.712-7.747,8.191-20,1.073-27.855-3.463-4.881-4.968-22.524-10.945-12.308-18.206,7.634-8.15,11.629-21.458,25.172-18.952,5.7-.765,11.341-1.847,16.95-3.091m-105.715.478a247.785,247.785,0,0,0,28.448,4.1,272.713,272.713,0,0,0,18.1,22.41c-10.347,9.837-22.957,19.809-37.833,20.362-12.085-1.534-12.109-16.953-11.957-26.4a99.2,99.2,0,0,1,3.244-20.47m65.368,4.721c-4.724,3.1-10.034,20.523-15.686,11.687-1.92-3.613-14.52-13.27-4.918-11.5,6.869.087,13.74.138,20.6-.184Z" transform="translate(-122.144 -6.991)" fill="#01d7ff"/></svg>