<svg xmlns="http://www.w3.org/2000/svg" width="362.745" height="362.805" viewBox="0 0 362.745 362.805"><path d="M36,179.64a36.175,36.175,0,0,0-11.782,3.234,38.483,38.483,0,0,0-7.855,5.07A34.907,34.907,0,0,0,4.433,209.108c-.825,5.36-.455,10.907-.455,16.314V494.9c0,11.317-.523,22.3,6.336,32.023a33.475,33.475,0,0,0,5.748,6.41,36.167,36.167,0,0,0,16.011,7.94c7.055,1.434,14.589.755,21.751.755H324.809a75.931,75.931,0,0,0,12.386-.534,35.339,35.339,0,0,0,28.663-28.165c1.133-6.224.64-12.733.64-19.032V227.839c0-6.272.544-12.826-.5-19.032a36.331,36.331,0,0,0-7.664-16.615,35.018,35.018,0,0,0-21.739-12.282c-5.837-.87-11.936-.407-17.824-.407H45.668a87.87,87.87,0,0,0-9.667.141m293.34,173.872v33.231c-3.251-1.68-6.275-3.7-9.667-5.121-11.1-4.655-23.992-6.945-35.95-5.1-7.008,1.079-15.107,3.978-17.951,11.13-2.122,5.336.159,10.68,4.065,14.467,6.294,6.1,14.724,9.413,22.646,12.809,16.77,7.189,36.159,16.326,41.762,35.26a42.539,42.539,0,0,1,1.707,9.667,60.314,60.314,0,0,1-.553,13.292,48.861,48.861,0,0,1-6.287,17.522c-4.649,7.387-12.344,12.4-20.316,15.586-15.282,6.124-33.054,6.535-49.242,5a99.256,99.256,0,0,1-22.96-4.682c-2.215-.767-6-1.609-7.55-3.471-.7-.838-.6-2.039-.606-3.064V469.221c4.386,2.6,8.376,5.684,12.99,7.922,11.98,5.811,26.38,8.588,39.575,6.083,7.86-1.488,16.724-5.855,17.156-14.912a12.861,12.861,0,0,0-.5-3.927c-2.624-9.676-13.8-14.685-22.1-18.509-15.538-7.166-32.77-13.31-42.258-28.619-9.868-15.921-7.1-38.538,5.209-52.26,4.675-5.213,11.03-8.932,17.413-11.644,10.228-4.344,21.924-5.578,32.929-5.578,9.154,0,18.171.292,27.189,2.063,4.535.89,8.879,2.348,13.292,3.677M214.24,351.7v29H168.925v129.6h-35.95v-129.6H87.66v-29H214.24m14.2,116.007v1.208l-1.209-.906Z" transform="translate(-3.895 -179.379)" fill="#3177c5"/></svg>