<svg xmlns="http://www.w3.org/2000/svg" width="1285.074" height="318.373" viewBox="0 0 1285.074 318.373"><path d="M121.226,296.56c-1.225-.587-3.409-1.8-4.853-2.689-6.492-4.011-24.444-14.064-66.822-37.423l-12.866-7.092-.193-5.259c-.657-17.936-.5-47.875.258-49.1.394-.637,15.142,7.379,45.679,24.829,39.233,22.419,78.872,45.8,84.255,49.7,1.29.934,1.3.951.794,1.72-1.837,2.8-20.739,14.521-37.233,23.08-7.046,3.656-6.389,3.494-9.02,2.233Z" transform="translate(116.22 -194.96)" fill="#8dd5fa" fill-rule="evenodd"/><path d="M40.915,287.668c-14.181-7.886-26.335-15.449-27.948-17.392-.842-1.014.267-2.063,6.279-5.942,15.718-10.14,76.231-44.7,107.625-61.475,12.112-6.47,16.056-8.212,16.834-7.435.728.728,1.02,7.871,1.033,25.268l.018,24.253-2.341,1.864C136.495,251.521,58.3,294.884,55.7,294.9c-.974,0-7.628-3.248-14.788-7.23Z" transform="translate(-5.187 -193.441)" fill="#8dd5fa" fill-rule="evenodd"/><path d="M11.953,351.078c-1.021-11.291-.131-140.443.975-141.548,1.228-1.227,5.56.605,18.888,7.99,13.06,7.236,25.211,15.161,25.964,16.932,1.252,2.949,2.069,38.462,1.536,66.715l-.547,28.945-2.359,2.166C52.436,335.923,16,357.343,13.768,357.343c-.922,0-1.4-1.639-1.815-6.265Z" transform="translate(-11.504 -121.066)" fill="#8dd5fa" fill-rule="evenodd"/><path d="M122.483,320.157C81.4,298.263,13.6,259.105,13.6,257.275c0-1.551,40.066-25.717,44.357-26.754,1.322-.319,8.014,2.9,22.618,10.868,25.985,14.184,55.159,30.752,57.527,32.669,1.727,1.4,1.8,2.228,1.768,20.884-.034,22.216-.731,32.824-2.154,32.819-.533,0-7.385-3.423-15.228-7.6Z" transform="translate(-0.63 -10.254)" fill="#8dd5fa" fill-rule="evenodd"/><path d="M36.256,301.2l.228-27.751,23.333-12.964c31.364-17.425,55.065-30.051,56.416-30.051,1.992,0,45.126,25.638,45.126,26.823,0,1.724-121.752,71.694-124.752,71.694-.318,0-.476-12.488-.351-27.751Z" transform="translate(116.913 -10.58)" fill="#8dd5fa" fill-rule="evenodd"/><path d="M86.692,353.291c-9.283-4.9-20.649-11.544-30.03-17.543l-5.833-3.73V233.644l14.043-8.191c7.724-4.505,17.834-10.213,22.467-12.684,7.665-4.088,8.482-4.35,9.074-2.9.875,2.136.52,138.764-.374,143.925l-.7,4.067Z" transform="translate(192.874 -121.655)" fill="#8dd5fa" fill-rule="evenodd"/><path d="M58.439,216.7c0-.21.035-.3.077-.191a.59.59,0,0,1,0,.382C58.474,216.992,58.439,216.906,58.439,216.7Z" transform="translate(232.429 -83.221)" fill="#1b77c0" fill-rule="evenodd"/><path d="M36.734,327.938c-.219-3.581-.4-21.018-.4-38.748V256.954l4.125-2.715c7.534-4.959,56.46-33.157,64.941-37.428,3.734-1.88,4.195-1.984,4.611-1.041.753,1.708.948,25.5.436,53.229l-.478,25.9-7.027,3.934c-7.993,4.474-52.876,29.2-60.009,33.065a38.262,38.262,0,0,1-5.254,2.547c-.3,0-.726-2.93-.945-6.511Z" transform="translate(117.551 -89.837)" fill="#1b77c0" fill-rule="evenodd"/><path d="M80.326,281.454c-27.043-15.6-45.357-26.5-53.532-31.849l-3.633-2.379,1.257-1c1.461-1.167,16.086-9.917,23.942-14.325,14.344-8.048,47.368-26.107,47.78-26.128.731-.037,69.933,38.007,72.845,40.047.773.541.742.625-.6,1.64-5.844,4.418-53.072,32.73-68.182,40.873l-4.114,2.217Z" transform="translate(49.081 -138.778)" fill="#1b77c0" fill-rule="evenodd"/><path d="M86.236,330.617C81.364,328,64.915,318.94,49.682,310.493l-27.7-15.358-.312-33.557c-.3-32.624-.168-41.771.666-45.088.366-1.455.5-1.569,1.415-1.22,2.225.846,27.2,14.973,67.018,37.905l5.185,2.986-.06,36.922c-.033,20.307-.227,38.133-.432,39.611l-.372,2.689Z" transform="translate(40.587 -90.272)" fill="#1b77c0" fill-rule="evenodd"/><path d="M111.787,334.024c-7.14-.69-6.563-.048-10.329-11.509-7.119-21.668-29.957-99.3-31.153-105.9-.517-2.855.89-4.677,4.207-5.445,3.4-.789,22.193-.738,25.963.071,2.007.431,3.412,1.134,3.967,1.986,1.238,1.9,5.548,17.067,11.923,41.956,6.262,24.447,8.527,32.387,9.24,32.387.743,0,3.143-8.082,12.726-42.849,5.341-19.379,8.949-30.749,10.134-31.933,1.668-1.668,7.45-2.368,17.076-2.067,5.053.158,9.958.6,10.9.985,2.893,1.178,4.661,6.417,14.253,42.255,6.9,25.788,9.23,33.609,10,33.609.82,0,2.778-6.8,10.031-34.831,6.789-26.239,9.672-36.437,11.056-39.115,1.188-2.3,5.487-3.048,17.43-3.048,9.493,0,15.562.67,16.741,1.849.929.928-1.032,9.711-6.407,28.7-7.777,27.481-23.682,79.688-26.887,88.253-1.157,3.092-1.484,3.444-3.823,4.115-1.618.464-7.5.75-16,.777-15.279.049-16.772-.261-18.6-3.864q-2.317-4.577-10.951-34.306c-6.156-21.195-9.169-30.533-9.854-30.533-.95,0-3.8,8.6-10.723,32.387-5.544,19.042-10.006,32.248-11.469,33.949-1.091,1.268-2.186,1.681-5.628,2.125-4.824.621-17.392.62-23.828,0Z" transform="translate(293.555 -113.836)" fill="#cecece" fill-rule="evenodd"/><path d="M150.979,337.517c-20.173-3.725-38.106-17.987-45.933-36.529-5.8-13.742-5.986-24.312-.78-44.411a79.579,79.579,0,0,1,8.013-20.066c5.771-9.754,20.195-20.791,31.672-24.235,5.126-1.538,23.3-2.529,29.778-1.623,16.62,2.325,33.387,14.594,40.571,29.687,5.438,11.425,8.661,29.673,6.582,37.275-.818,2.991-1.943,4.327-4.1,4.865-.9.226-19.328.61-40.943.853-33.431.376-39.385.576-39.871,1.334-1.447,2.254,1.786,8.975,6.758,14.05C153.083,309.285,171.221,310.73,183.9,302c6.36-4.381,9.793-6.356,11.053-6.359,3.275-.007,19.887,13.486,19.887,16.153,0,4.045-14.3,16.323-24.64,21.164-9.92,4.642-27.627,6.7-39.217,4.561Zm29.484-78.95c3.068-.352,3.208-.447,3.208-2.184,0-2.795-3.516-8.755-7.094-12.025-4.438-4.056-8.57-5.161-18.031-4.821-6.019.216-7.372.465-10.036,1.847-5.473,2.838-9.774,8.681-11.8,16.036l-.652,2.361,20.6-.423c11.33-.232,22.044-.588,23.809-.791Z" transform="translate(451.129 -115.191)" fill="#cecece" fill-rule="evenodd"/><path d="M181.931,375.564a66.117,66.117,0,0,1-20.544-7.316c-3.009-1.727-5.8-3.264-6.193-3.417-.425-.163-1.128.913-1.708,2.613-1.8,5.275-1.369,5.131-15.292,5.124-6.754,0-13.311-.177-14.571-.385l-2.292-.379.038-78.6c.021-43.228.237-80.585.481-83.018s.729-4.709,1.079-5.058c1.113-1.113,8.217-1.939,17.039-1.98,9.859-.046,12.255.35,13.262,2.192q.725,1.326,1.173,19.963c.532,22.129.95,29.99,1.634,30.674.6.6,5.374-1.011,12-4.067,7.151-3.3,13.342-4.6,21.911-4.6,15.422-.01,28.124,4.8,38.376,14.518,9.888,9.377,16.134,22.347,18.608,38.641,3.865,25.453-6.381,51.907-25.092,64.78-10.723,7.378-28.652,12.012-39.913,10.316Zm10.481-32.624a22.314,22.314,0,0,0,11.21-6.182c8.969-8.969,11.591-30.066,5.32-42.807-2.407-4.891-7.964-10.749-12.289-12.955a28.954,28.954,0,0,0-26.585.365c-6.678,3.634-12.954,12.613-14.548,20.813-1.144,5.881-.45,16.5,1.434,21.964,3.645,10.568,9.2,16.491,17.556,18.738,4.4,1.182,13.489,1.216,17.9.066Z" transform="translate(559.298 -152.404)" fill="#cecece" fill-rule="evenodd"/><path d="M146.141,376.8a4.129,4.129,0,0,1-2.1-1.632c-.26-.57-.584-33.03-.721-72.133-.267-76.116-.075-82.9,2.482-88.087,1.945-3.944,3.528-4.33,15.244-3.713,10.648.561,13.3,1.384,15.284,4.74,1.609,2.727,2.965,2.623,9.345-.714,8.567-4.481,10.393-4.838,24.729-4.83,14.317.008,17.572.518,24.821,3.889,13.616,6.332,23.579,16.784,30.184,31.665,3.685,8.3,3.962,10.207,3.929,27.015-.04,20.392-1.255,26.073-8.017,37.492-4.005,6.763-12.357,15.081-18.765,18.689-14.9,8.39-31.042,10.747-44.374,6.48-7.154-2.29-13.863-5.583-15.043-7.383-1.292-1.972-2.548-1.906-3.379.176-.4,1.013-.878,10.359-1.191,23.536-.323,13.558-.772,22.327-1.184,23.1a4.754,4.754,0,0,1-2.195,1.823c-2,.759-26.933.664-29.049-.111Zm68.052-71.49a21.8,21.8,0,0,0,11.732-6.292c6.3-6.229,9.036-14.138,9-26.018-.055-17.5-7.085-28.456-20.415-31.807-4.577-1.151-15.2-.449-19.631,1.3-12.494,4.921-20.024,22.832-16.552,39.37,2.2,10.491,9.792,20.385,17.839,23.255,2.869,1.023,13.581,1.139,18.028.195Z" transform="translate(673.102 -114.549)" fill="#cecece" fill-rule="evenodd"/><path d="M198.916,337.726c-14.953-3.447-28.435-14.349-32.815-26.534-1.532-4.262-2.219-18.531-1.168-24.242,1.108-6.021,4.01-10.976,9.842-16.8A44.781,44.781,0,0,1,190.8,259.235c3.829-1.613,3.871-1.616,20.03-1.594,13.208.018,16.961.215,20.356,1.069,5.656,1.422,5.529,1.461,5.064-1.55-1.163-7.534-4.849-13-9.993-14.811-3.863-1.362-14.637-1.88-20.691-.995a101.468,101.468,0,0,0-13.008,3.389c-4.5,1.476-8.491,2.557-8.86,2.4-2.318-.973-11.366-17.246-11.366-20.441,0-4.367,9.218-9.679,22.82-13.151,19.676-5.022,39.991-4.227,52.952,2.071,5.863,2.849,14.834,11.5,17.25,16.635,3.68,7.82,3.714,8.323,3.973,57.55l.236,45.024-2.633.392c-1.448.215-7.6.3-13.67.2-11.024-.2-11.039-.2-13.032-1.876a7.282,7.282,0,0,0-2.878-1.68,44.165,44.165,0,0,0-6.382,2.149,93.715,93.715,0,0,1-9.306,3.086c-5.418,1.334-18.161,1.686-22.75.628Zm22.711-27.914c5.62-.782,8.422-1.847,10.8-4.1,6.8-6.455,4.214-18.371-4.941-22.8-3.585-1.735-12.116-1.915-17.3-.364-8.837,2.641-14.1,10.561-11.361,17.107a18.951,18.951,0,0,0,6.556,8.109c3.817,2.645,8.109,3.188,16.251,2.055Z" transform="translate(783.277 -115.36)" fill="#cecece" fill-rule="evenodd"/><path d="M234.22,337.532a64.153,64.153,0,0,1-33.639-17.956c-8.762-8.846-13.855-18.5-16.5-31.292-1.122-5.431-1.268-7.673-.988-15.229.368-9.932,1.409-15.539,4.341-23.369,5.594-14.938,16.94-26.886,32.42-34.14,7.067-3.312,10.858-4.149,22.271-4.92,11.279-.762,18.586-.193,24.807,1.931,5.572,1.9,14.331,6.53,17.349,9.165l2.707,2.363-2.023,6.611c-4.241,13.857-6.622,18.526-9.443,18.526-.691,0-4.433-1.514-8.316-3.365-13.577-6.472-22.952-6.771-33.788-1.077-10.735,5.641-15.318,14.375-15.318,29.19,0,12.008,2.351,18.353,9.16,24.722a28.716,28.716,0,0,0,15.771,7.767c8.324,1.489,15.053.336,25.406-4.351,8.9-4.029,8.206-4.047,10.383.267,1.44,2.853,7.949,20.18,7.949,21.161,0,.616-8.785,7.08-11.423,8.405-11.065,5.557-29.047,8-41.129,5.589Z" transform="translate(879.659 -115.214)" fill="#cecece" fill-rule="evenodd"/><path d="M209.8,372.417c-6.154-.71-6.709-1.122-7.214-5.352-1.368-11.471-1.948-88.094-.985-130.336.657-28.845.879-31.532,2.7-32.542,1.832-1.019,22.423-1.4,26.786-.49,3.149.654,3.429.852,3.753,2.662.631,3.52,1.614,30.121,2.193,59.311.312,15.749.688,28.755.834,28.9s5.3-6.369,11.456-14.48,14.023-18.141,17.487-22.289c6.27-7.509,6.313-7.545,9.792-8.267,4.264-.885,25.034-.446,28.437.6,1.411.434,2.292,1.084,2.292,1.692,0,2.207-3.655,7.5-20.813,30.131-13.091,17.267-17.073,22.8-17.073,23.711,0,.358,4.862,7.885,10.8,16.727s14.222,21.163,18.4,27.38,8.8,13.358,10.273,15.866c2.437,4.15,2.582,4.619,1.614,5.194-.648.385-8,.7-18.785.814l-17.721.182-18.474-27.985-18.474-27.985-.054,7.333c-.139,19.034-1.077,44.749-1.687,46.252a3.946,3.946,0,0,1-2.984,2.284c-3.158.872-17.227,1.3-22.551.686Z" transform="translate(973.987 -152.216)" fill="#cecece" fill-rule="evenodd"/></svg>