<svg xmlns="http://www.w3.org/2000/svg" width="363.5" height="362.805" viewBox="0 0 363.5 362.805"><path d="M130.334,183.191c-15.439,1.552-30.007,2.647-44.04,10.016C47.787,213.426,44.77,254.715,44.77,293.359v105.7c0,36.214-6.192,82.5,17.148,113.2,17.725,23.315,42.391,28.208,69.674,30.943,34.219,3.429,70.047.562,104.438.562,32.266,0,66.122,2.894,98.147-1.186A94.385,94.385,0,0,0,360.6,535.6a79.444,79.444,0,0,0,17.592-10.592c30.7-24.545,28.965-64.109,28.965-99.525V313.492c0-33.2,4.331-71.147-16.772-99.4-19.257-25.784-49.82-31.423-80.117-31.459H194.507c-21.191,0-43.081-1.559-64.173.561m5.1,77.24c9.463-1.165,18.914,10.786,25.1,16.479q21.781,20.045,44.04,39.637c5.607,4.942,12.954,13.556,20.961,14.087,7.935.528,15.263-8.319,20.563-13.078,15.5-13.92,31.223-27.617,46.557-41.721,6.148-5.656,17.6-19.568,27.2-14.162,14.527,8.183-4.618,23.428-10.839,29.169-15.316,14.133-31.163,27.677-46.557,41.716-9.891,9.021-19.785,19.137-33.974,19.82-17.105.823-28.318-10.2-40.265-20.846-16.784-14.952-33.66-29.824-50.324-44.906-6.018-5.448-19.447-24.1-2.459-26.2m85.5,114.008c16.153-2.431,28.068,7.859,39.321,17.821,16.76,14.839,33.31,29.915,50.017,44.812,5.856,5.22,25.439,24.124,7.425,28.85-9.766,2.562-19.982-10.46-26.3-16.114l-41.524-37.2c-6.039-5.422-13.176-14.3-21.391-16.248-9.578-2.271-18.934,9.473-25.166,15.112-15.56,14.079-30.925,28.39-46.557,42.388-5.818,5.209-12.656,13.493-21.328,12.632-7.068-.7-10.718-7.96-8.249-14.372,1.948-5.057,6.811-8.969,10.716-12.5,16.592-14.985,33.5-29.672,50.318-44.418,9.673-8.482,19.389-18.76,32.716-20.765Z" transform="translate(-44.026 -182.078)" fill="#fd3b19"/></svg>