<?xml version="1.0" encoding="UTF-8" standalone="no"?>
<!-- Created with Inkscape (http://www.inkscape.org/) -->

<svg
   width="186.84392mm"
   height="142.86617mm"
   viewBox="0 0 186.84392 142.86617"
   version="1.1"
   id="svg17469"
   inkscape:version="1.1 (c68e22c387, 2021-05-23)"
   sodipodi:docname="back-end.svg"
   xmlns:inkscape="http://www.inkscape.org/namespaces/inkscape"
   xmlns:sodipodi="http://sodipodi.sourceforge.net/DTD/sodipodi-0.dtd"
   xmlns="http://www.w3.org/2000/svg"
   xmlns:svg="http://www.w3.org/2000/svg">
  <sodipodi:namedview
     id="namedview17471"
     pagecolor="#ffffff"
     bordercolor="#666666"
     borderopacity="1.0"
     inkscape:pageshadow="2"
     inkscape:pageopacity="0.0"
     inkscape:pagecheckerboard="0"
     inkscape:document-units="mm"
     showgrid="false"
     inkscape:zoom="0.67081229"
     inkscape:cx="366.71958"
     inkscape:cy="324.23377"
     inkscape:window-width="1680"
     inkscape:window-height="987"
     inkscape:window-x="-8"
     inkscape:window-y="-8"
     inkscape:window-maximized="1"
     inkscape:current-layer="layer1" />
  <defs
     id="defs17466" />
  <g
     inkscape:label="Layer 1"
     inkscape:groupmode="layer"
     id="layer1"
     transform="translate(-4.7891993,-2.3239088)">
    <path
       id="path12381"
       style="fill:#cecece;fill-opacity:1;stroke-width:0.0594"
       d="m 31.593475,2.3239088 -0.39804,0.18834 c -0.48822,0.2313 -0.8629,0.59576 -1.09192,1.06219 l -0.1731,0.35305 -0.0159,7.3179302 -0.0161,7.31717 -0.25087,0.0313 c -0.13827,0.0173 -0.57254,0.0609 -0.9646,0.0975 -2.03962,0.19026 -4.29499,0.70648 -6.36172,1.45566 -8.87258,3.21619 -15.4297895,10.98218 -17.0987995,20.25184 -1.0242,5.6884 -0.22478,11.40513 2.31729,16.57267 1.82056,3.70085 4.5985795,7.04734 7.8966995,9.51169 3.16535,2.36518 6.88524,4.03912 10.66235,4.79704 1.15962,0.2327 2.77168,0.44999 3.35663,0.45294 0.16334,7.4e-4 0.33014,0.0223 0.37057,0.0481 0.0578,0.0367 0.0767,2.05081 0.0885,9.4286 l 0.0159,9.38208 0.16547,0.3378 c 0.21608,0.43994 0.7585,0.94425 1.21317,1.12777 l 0.3439,0.13878 66.23119,0.0145 c 44.498575,0.01 66.338045,-0.005 66.557565,-0.045 0.70412,-0.12959 1.31214,-0.58699 1.64016,-1.23453 l 0.17159,-0.33932 0.0168,-3.84617 c 0.0155,-3.61865 0.0226,-3.84616 0.12055,-3.84616 0.28582,0 1.65237,0.19909 2.28753,0.33322 6.15801,1.30019 11.21793,5.85605 13.15581,11.84427 0.614,1.8973 0.85387,3.44095 0.85325,5.493981 -4.7e-4,2.3001 -0.39068,4.38981 -1.20933,6.47 -1.99868,5.07853 -6.32884,9.03082 -11.52172,10.51595 -1.09177,0.31225 -2.52299,0.58211 -3.37569,0.63671 l -0.26767,0.0175 -0.0297,-4.12754 -0.0298,-4.12677 -0.15784,-0.3378 c -0.21192,-0.45202 -0.59241,-0.85124 -1.02788,-1.07897 l -0.35839,-0.18758 H 98.092295 31.474505 l -0.35838,0.18758 c -0.43548,0.22773 -0.81598,0.62695 -1.02789,1.07897 l -0.15784,0.3378 v 16.80981 16.81058 l 0.1731,0.35304 c 0.29249,0.59571 0.87658,1.0673 1.50445,1.21547 h 7.7e-4 c 0.12896,0.0304 28.22095,0.0479 66.60254,0.0435 l 66.379115,-0.008 0.39958,-0.18911 c 0.47911,-0.22697 0.86768,-0.60766 1.09725,-1.07515 l 0.16624,-0.34009 0.0161,-8.20398 0.0152,-8.20322 0.57875,-0.0404 c 9.92961,-0.68933 18.72801,-6.94926 22.63244,-16.10296 3.74624,-8.78288 2.50745,-18.908021 -3.24452,-26.522061 -2.9583,-3.91591 -6.96431,-6.95457 -11.53318,-8.74766 -2.3634,-0.92754 -5.20634,-1.58339 -7.54361,-1.73931 -0.27771,-0.0186 -0.59191,-0.0465 -0.69771,-0.0626 l -0.19217,-0.0289 -0.0152,-8.5067 -0.0161,-8.5067 -0.18912,-0.36144 c -0.23904,-0.45732 -0.74037,-0.92182 -1.19181,-1.10412 l -0.34161,-0.13797 -66.231185,-0.0152 c -44.50841,-0.0103 -66.33802,0.004 -66.55757,0.045 -0.70336,0.1294 -1.33665,0.60756 -1.65009,1.24519 l -0.16166,0.32865 -0.0168,2.95554 c -0.0103,1.73114 -0.0393,2.95477 -0.071,2.95477 -0.18388,0 -1.50756,-0.19737 -1.99932,-0.29815 -3.49773,-0.71737 -6.57862,-2.42132 -9.14189,-5.05673 -2.73353,-2.81046 -4.40576,-6.33613 -4.87251,-10.27271 -0.11126,-0.9382 -0.12557,-2.88523 -0.0282,-3.7966 0.65615,-6.13504 4.29455,-11.37581 9.77403,-14.07846 1.93612,-0.95496 3.81556,-1.50633 5.98351,-1.75532 l 0.34084,-0.0397 0.0152,5.01129 0.0159,5.0113 0.15784,0.33704 c 0.2112,0.45048 0.5638,0.82061 1.01491,1.06524 l 0.37136,0.20132 h 66.58804 66.587315 l 0.33704,-0.15786 c 0.47197,-0.22126 0.84473,-0.58586 1.07364,-1.05075 l 0.1929,-0.3927 V 20.738859 3.9275088 l -0.17311,-0.35304 c -0.22898,-0.46643 -0.60369,-0.8309 -1.0919,-1.06219 l -0.39806,-0.18835 H 98.091315 Z m 2.05042,3.3917 H 163.02722 V 35.598869 H 33.643895 c -0.0156,-4.00882 -0.0251,-8.01768 -0.0373,-12.02651 -1.01695,0.11185 -2.0339,0.22361 -3.05085,0.33552 -1.31178,0.13693 -2.62617,0.28789 -3.90716,0.61307 -3.8476,0.95128 -7.42679,2.98792 -10.18959,5.83253 -2.97536,3.04652 -4.9654,7.02194 -5.67317,11.21747 -0.27093,1.46579 -0.3081,2.96158 -0.25926,4.44779 0.0304,1.60172 0.32982,3.18369 0.73507,4.72917 0.56421,2.12211 1.4934,4.14583 2.70391,5.97664 2.38011,3.56029 5.81505,6.4354 9.79918,8.03091 1.57973,0.62866 3.23372,1.08997 4.92513,1.28866 0.61491,0.0637 1.22973,0.21778 1.85064,0.14869 0.89688,-0.0685 1.78095,-0.51202 2.27613,-1.27951 0.69087,-1.049 0.80533,-2.34799 0.82962,-3.57167 -0.003,-0.88894 -0.0201,-1.77827 -0.007,-2.6673 43.13067,0.006 86.261015,0.0167 129.391705,0.026 0.0103,6.04351 0.023,12.08701 0.0351,18.13051 0.30157,0.0457 0.6028,0.0915 0.90435,0.13723 0.9081,0.13044 1.81218,0.29216 2.72374,0.39575 1.36478,0.0835 2.72806,0.26954 4.04975,0.6245 2.57473,0.60435 5.02933,1.68912 7.23709,3.1416 3.86458,2.53374 6.93724,6.25376 8.68592,10.53196 1.85751,4.49812 2.24377,9.586361 1.082,14.312551 -1.04549,4.33172 -3.38668,8.33681 -6.64462,11.37684 -3.67909,3.463 -8.51229,5.68263 -13.54392,6.17491 -1.49587,0.12559 -2.99489,0.21476 -4.49203,0.32407 -0.0133,5.92534 -0.0277,11.85058 -0.0373,17.77593 -2.84837,3.8e-4 -5.69642,0.001 -8.54482,0.002 -40.27841,0.009 -80.557035,-0.004 -120.835435,0.0564 V 111.74641 H 163.0402 c 0.026,3.3623 0.0477,6.72511 0.0717,10.08742 1.08226,-0.0705 2.16456,-0.14147 3.24682,-0.21198 0.97548,-0.048 1.94668,-0.16414 2.90369,-0.36144 3.15053,-0.58222 6.15069,-1.92466 8.7034,-3.8576 3.46034,-2.60405 6.10437,-6.281 7.43309,-10.40539 0.83715,-2.53061 1.11775,-5.22302 0.97528,-7.878381 -0.0817,-1.94483 -0.51409,-3.86011 -1.15978,-5.69223 -1.62132,-4.64118 -4.93465,-8.6577 -9.16172,-11.16103 -2.18162,-1.30795 -4.60472,-2.19714 -7.10522,-2.65435 -1.171,-0.21616 -2.39615,-0.40746 -3.57163,-0.11819 -0.81394,0.18986 -1.52269,0.7675 -1.8499,1.53953 -0.47509,1.09157 -0.48251,2.30643 -0.49488,3.47635 0.0171,1.38714 0.0152,2.77462 0.006,4.16184 -43.12975,-0.004 -86.259705,-0.0177 -129.389445,-0.029 -0.003,-1.81393 -0.007,-3.62822 -0.0103,-5.44214 -0.0103,-2.3297 0.003,-4.65898 0.0328,-6.98851 -0.003,-1.61143 0.0398,-3.23824 -0.23791,-4.83211 -0.17264,-0.96402 -0.55369,-1.97386 -1.39847,-2.54225 -0.58368,-0.37071 -1.23457,-0.76718 -1.95358,-0.70609 -0.43943,0.10477 -0.8853,-0.0158 -1.32527,-0.0572 -3.31542,-0.3957 -6.523,-1.56616 -9.3531,-3.32994 -4.49572,-2.78354 -7.96489,-7.17113 -9.6573495,-12.17901 -1.89416,-5.49733 -1.58825,-11.70774 0.8158995,-16.99967 2.143,-4.76203 5.94852,-8.75203 10.60669,-11.11302 2.55468,-1.29087 5.34835,-2.12413 8.20016,-2.39203 1.41893,-0.14151 2.83105,-0.34434 4.2465,-0.51623 0.0103,-5.27594 0.0198,-10.55175 0.0313,-15.8276702 z m 6.61717,9.2707502 -0.77243,0.37058 c -1.03272,0.44738 -1.92022,1.19446 -2.59333,2.09161 -0.49539,0.63144 -0.76467,1.40434 -0.88834,2.18997 -0.1916,1.00552 -0.0626,2.04595 0.23257,3.01806 0.3055,0.85479 0.80455,1.65402 1.48082,2.26469 0.76382,0.70084 1.75614,1.03774 2.69323,1.43507 4.35628,-0.009 8.71258,-0.0201 13.06887,-0.032 0.28079,-0.11761 0.55349,-0.27012 0.83114,-0.40109 1.27124,-0.5677 2.34253,-1.58403 2.93115,-2.84955 0.45383,-1.02933 0.62435,-2.19428 0.43997,-3.30707 -0.21381,-1.4195 -1.0061,-2.72165 -2.1282,-3.60901 -0.6683,-0.57283 -1.51424,-0.83838 -2.31197,-1.17124 z m 32.17769,0 c -1.23783,5.6e-4 -2.47641,-6.2e-4 -3.71422,0.0118 -1.03444,0.0272 -2.07992,-0.007 -3.1012,0.18529 -1.29817,0.32794 -2.41276,1.21148 -3.1698,2.29976 -0.90511,1.28028 -1.23159,2.94759 -0.86394,4.47296 0.43941,1.94551 1.96498,3.61183 3.88658,4.17025 0.90528,0.2368 1.85217,0.19158 2.77941,0.2173 3.57956,0.009 7.15901,-0.0133 10.73857,-0.019 0.27568,-0.10978 0.54393,-0.25333 0.81667,-0.37593 1.32646,-0.56346 2.44803,-1.61823 3.02951,-2.94334 0.44956,-1.11442 0.59163,-2.36122 0.34697,-3.54192 -0.20751,-1.22755 -0.91576,-2.3324 -1.85751,-3.13091 -0.69041,-0.61232 -1.55868,-0.94379 -2.37526,-1.34585 z m 18.96624,0 c -0.26364,0.12587 -0.52787,0.25233 -0.79148,0.37821 -1.0536,0.45512 -1.97821,1.20095 -2.63301,2.14498 -0.46612,0.63036 -0.70803,1.3901 -0.83038,2.15641 -0.19269,0.99659 -0.058,2.02717 0.23332,2.99062 0.3055,0.85476 0.80382,1.65401 1.48004,2.26469 0.76381,0.70087 1.7569,1.03772 2.69401,1.43507 4.35339,-0.009 8.707075,-0.0201 13.060505,-0.032 0.29528,-0.12336 0.58238,-0.28128 0.8746,-0.41787 1.21498,-0.54109 2.24339,-1.50296 2.81601,-2.70772 0.92106,-1.85904 0.74322,-4.21832 -0.49719,-5.8905 -0.59113,-0.78771 -1.36418,-1.46183 -2.27384,-1.85445 -1.09123,-0.48694 -2.30889,-0.4365 -3.47708,-0.46438 -3.551925,-0.007 -7.103585,-7.8e-4 -10.655505,-0.003 z m -50.60406,3.55336 h 5.76162 5.76164 l 0.35685,0.14327 c 0.25121,0.10108 0.46265,0.24992 0.71754,0.5048 0.47645,0.47645 0.63913,0.87379 0.64357,1.57994 0.003,0.44798 -0.018,0.54994 -0.1853,0.90436 -0.22619,0.4791 -0.60623,0.86659 -1.0744,1.0965 l -0.33932,0.16547 -5.79137,0.0152 -5.79135,0.0148 -0.33323,-0.13796 c -0.60094,-0.24831 -0.96735,-0.59317 -1.23527,-1.16438 -0.13413,-0.28601 -0.15482,-0.40767 -0.1548,-0.92341 10e-6,-0.52635 0.0192,-0.63191 0.16241,-0.92341 0.21939,-0.44632 0.64782,-0.86553 1.11481,-1.08965 z m 31.3923,0 h 5.73264 l 0.3996,0.18986 c 0.4791,0.22696 0.86689,0.6069 1.09646,1.07439 0.14909,0.30356 0.16702,0.40314 0.16702,0.93486 0,0.55109 -0.0147,0.62392 -0.19294,0.98747 -0.22882,0.46523 -0.60131,0.8301 -1.07364,1.05151 l -0.33699,0.15784 -5.76241,0.0133 c -5.40699,0.0118 -5.78009,0.007 -6.06815,-0.0939 -1.05458,-0.36598 -1.68925,-1.52286 -1.42592,-2.59942 0.17801,-0.72774 0.75207,-1.37213 1.43582,-1.61199 0.27519,-0.0968 0.71714,-0.10447 6.02851,-0.10447 z m 19.75087,7.6e-4 h 5.73188 c 6.450275,0 6.048105,-0.0272 6.655305,0.45293 1.30765,1.03365 1.09252,3.0403 -0.40415,3.77525 l -0.34083,0.16624 -5.791365,0.0147 -5.79137,0.0152 -0.33321,-0.13796 c -0.60097,-0.2483 -0.96737,-0.59394 -1.23531,-1.16514 -0.13413,-0.28601 -0.15402,-0.40766 -0.15402,-0.92342 0,-0.53113 0.0174,-0.63008 0.16698,-0.93485 0.22219,-0.45255 0.63618,-0.85541 1.10948,-1.07973 z m -45.38612,49.41375 c -2.04014,0.007 -4.07987,0.0133 -6.12001,0.0207 -0.22566,0.0748 -0.44531,0.17921 -0.66873,0.26535 -1.10672,0.39973 -2.05923,1.16023 -2.77329,2.08779 -0.52275,0.64764 -0.82629,1.44128 -0.96992,2.25477 -0.15869,0.75313 -0.13738,1.53351 0.0221,2.28453 0.12277,0.69839 0.38026,1.37383 0.79607,1.95129 0.27596,0.44424 0.70094,0.75762 1.04161,1.14683 0.75856,0.67459 1.70701,1.15756 2.71306,1.32298 1.24644,0.10772 2.49925,0.10344 3.74932,0.12661 2.66873,0.0193 5.33927,0.0298 8.00649,-0.0747 1.14337,-0.0103 2.25245,-0.45899 3.16142,-1.13693 1.31432,-0.97011 2.15759,-2.5376 2.2441,-4.16871 0.12543,-1.93384 -0.82106,-3.88519 -2.40043,-5.00291 -0.7496,-0.53041 -1.63078,-0.89725 -2.54682,-0.99433 -2.08343,-0.0916 -4.16992,-0.0831 -6.25497,-0.0831 z m 25.96998,0 c -2.06052,0.002 -4.1222,-0.009 -6.18099,0.0847 -1.53308,0.1959 -2.96786,1.06443 -3.8454,2.33866 -0.49885,0.69224 -0.8132,1.50358 -0.94859,2.34399 -0.19266,0.93599 -0.0596,1.90521 0.22038,2.80913 0.5286,1.59718 1.8141,2.92982 3.40466,3.48932 1.00664,0.39048 2.10278,0.35258 3.16371,0.37057 3.47689,-0.004 6.95362,-0.0161 10.43055,-0.0207 0.22929,-0.0751 0.4523,-0.18039 0.6794,-0.26688 1.14934,-0.41184 2.15386,-1.19199 2.86327,-2.1831 0.47967,-0.63817 0.7578,-1.40212 0.88378,-2.18539 0.16608,-0.84241 0.12808,-1.71609 -0.0801,-2.54759 -0.27133,-1.27009 -1.11497,-2.35075 -2.13508,-3.12253 -0.64578,-0.51439 -1.43262,-0.77701 -2.18463,-1.08964 l -6.13829,-0.0207 c -0.044,-1.3e-4 -0.0887,1.2e-4 -0.13265,0 z m 25.20521,0 c -2.0488,0.007 -4.09713,0.0133 -6.14593,0.0207 -0.22839,0.0751 -0.45094,0.17974 -0.67714,0.26612 -1.08499,0.39001 -2.04177,1.10657 -2.74201,2.02068 -0.52038,0.65233 -0.85423,1.43764 -0.99204,2.25859 -0.17198,0.82894 -0.14756,1.68972 0.0426,2.51327 0.23441,1.22853 0.99902,2.30073 1.95971,3.07679 0.80901,0.63098 1.77813,1.11479 2.81217,1.20479 1.91541,0.11627 3.83588,0.10403 5.75401,0.11509 2.04248,-0.009 4.086835,10e-4 6.126855,-0.11126 0.97911,-0.09 1.93691,-0.45046 2.73287,-1.02865 1.04784,-0.78007 1.79895,-1.9449 2.10534,-3.21249 0.20689,-0.79084 0.26071,-1.62614 0.0869,-2.42865 -0.25377,-1.43975 -1.06712,-2.78486 -2.26089,-3.63647 -0.73154,-0.51237 -1.59046,-0.85382 -2.47669,-0.96535 -2.10646,-0.10284 -4.217375,-0.0924 -6.325875,-0.0931 z m -0.23487,3.5526 c 3.958085,-0.0133 5.593235,0.001 5.848565,0.0503 0.74701,0.14372 1.28309,0.54992 1.61732,1.22614 0.20559,0.41595 0.22186,0.48861 0.22186,0.96917 0,0.48056 -0.0162,0.55322 -0.22186,0.96917 -0.33431,0.67642 -0.87565,1.08673 -1.6135,1.22309 v 7.5e-4 c -0.41949,0.0769 -10.909265,0.0788 -11.301355,0.002 -0.67722,-0.13369 -1.30625,-0.62992 -1.59749,-1.26045 -0.15008,-0.32499 -0.17081,-0.43792 -0.17081,-0.93409 0,-0.49736 0.0204,-0.60826 0.17233,-0.93714 0.21886,-0.47395 0.72476,-0.95705 1.2063,-1.15142 l 0.34391,-0.1387 z m -51.17366,7.5e-4 c 3.82798,-0.0118 5.58062,0.003 5.85085,0.0488 1.49436,0.25685 2.30524,1.7976 1.66383,3.16218 -0.29394,0.62529 -0.92021,1.096 -1.63029,1.22614 v 7.5e-4 c -0.43016,0.0785 -10.9145,0.0781 -11.3166,-7.5e-4 -0.66508,-0.13044 -1.28938,-0.6346 -1.59595,-1.28867 -0.13767,-0.29383 -0.15937,-0.41544 -0.15937,-0.90435 0,-0.51842 0.0168,-0.59813 0.19521,-0.96078 0.24088,-0.48969 0.70965,-0.93598 1.18648,-1.12853 l 0.34161,-0.13723 z m 26.07675,0 5.46503,0.0176 0.3416,0.13723 c 0.45222,0.18262 0.95296,0.64767 1.19107,1.10489 0.17428,0.3353 0.18845,0.40471 0.18908,0.95545 6.7e-4,0.531 -0.0176,0.6333 -0.17155,0.96687 -0.21887,0.47392 -0.72554,0.95705 -1.20708,1.15142 l -0.34312,0.13958 -5.55423,0.0103 c -4.23141,0.009 -5.63168,-0.006 -5.88058,-0.0626 -0.70429,-0.15849 -1.24713,-0.60086 -1.56164,-1.27265 -0.16305,-0.34822 -0.18606,-0.46108 -0.18606,-0.90282 0,-0.44173 0.023,-0.55461 0.18606,-0.90283 0.33178,-0.70863 0.92488,-1.16374 1.68746,-1.29477 0.26208,-0.0447 2.06989,-0.059 5.84396,-0.0472 z m -32.18912,49.506791 c -0.25159,0.11843 -0.50332,0.2369 -0.75491,0.35533 -0.92871,0.39841 -1.77357,1.00792 -2.38744,1.81634 -0.52458,0.66859 -0.88145,1.46398 -1.03094,2.30129 -0.19191,0.88256 -0.1508,1.80172 0.0618,2.67645 0.15582,0.76288 0.53691,1.46312 1.04618,2.04738 0.82678,0.94993 1.9098,1.72413 3.1454,2.02526 0.84857,0.13411 1.71239,0.11294 2.56894,0.13191 3.45212,0.007 6.90444,-0.0112 10.35658,-0.016 0.23839,-0.0775 0.47136,-0.18363 0.70762,-0.27221 0.73348,-0.26125 1.42396,-0.65289 1.98257,-1.20098 1.44744,-1.30267 2.13418,-3.38357 1.74312,-5.29115 -0.20847,-1.23856 -0.88241,-2.37507 -1.82243,-3.2003 -0.67295,-0.62104 -1.52808,-0.9649 -2.33331,-1.3733 z m 25.50562,0 c -0.57345,0.29725 -1.17618,0.54629 -1.70882,0.91579 -1.41022,0.90492 -2.37044,2.46677 -2.54301,4.13287 -0.21288,1.83489 0.54695,3.74537 1.96426,4.93048 0.64056,0.56501 1.43008,0.92803 2.24563,1.16055 0.8857,0.23214 1.81063,0.19218 2.71837,0.21656 3.51487,0.008 7.03007,-0.0106 10.54494,-0.0152 0.27789,-0.11165 0.54783,-0.25746 0.82276,-0.38202 0.95619,-0.41302 1.82146,-1.05007 2.44542,-1.88953 0.47763,-0.61492 0.80506,-1.33959 0.94627,-2.10533 0.1837,-0.82025 0.20213,-1.67533 0.0267,-2.49879 -0.21511,-1.23573 -0.91068,-2.36131 -1.86511,-3.16523 -0.67183,-0.59182 -1.51367,-0.91539 -2.30894,-1.3001 z m 25.63755,0 c -0.31744,0.14944 -0.63495,0.29893 -0.95241,0.44837 -1.61415,0.71766 -2.89525,2.21995 -3.21328,3.9735 -0.19641,0.89865 -0.16287,1.83608 0.0549,2.72754 0.1558,0.76284 0.53693,1.46315 1.04613,2.04738 0.82678,0.94993 1.90982,1.72413 3.14543,2.02526 0.84856,0.13411 1.71161,0.11294 2.56818,0.13191 3.45596,0.007 6.912035,-0.0112 10.368005,-0.016 0.26188,-0.0884 0.51807,-0.20609 0.77777,-0.30577 2.06524,-0.75129 3.58887,-2.77196 3.75162,-4.9625 0.16589,-1.82678 -0.71913,-3.64184 -2.09389,-4.81533 -0.62997,-0.56255 -1.4214,-0.87396 -2.16326,-1.25434 z m -50.61399,3.55488 h 5.85085 5.85083 l 0.33932,0.16699 c 0.46817,0.22991 0.84821,0.61741 1.0744,1.09651 0.1673,0.35442 0.18825,0.45637 0.1853,0.90435 -0.006,0.70615 -0.16712,1.10274 -0.64357,1.57919 -0.25489,0.25487 -0.46633,0.40371 -0.71754,0.50479 l -0.35685,0.1426 -5.64268,0.0106 c -3.16346,0.005 -5.74111,-0.0137 -5.86609,-0.0435 -0.61164,-0.14617 -1.22446,-0.64759 -1.51513,-1.2391 -0.14461,-0.29407 -0.16317,-0.39786 -0.16318,-0.92646 -2e-5,-0.55154 0.0153,-0.62338 0.19368,-0.98671 0.22886,-0.46489 0.60166,-0.83026 1.07364,-1.05152 z m 25.54146,0 h 5.85159 5.85088 l 0.33699,0.15784 c 0.47233,0.22141 0.84482,0.58629 1.07364,1.05152 0.17916,0.36397 0.19278,0.43577 0.19216,0.98747 -5.2e-4,0.53019 -0.0183,0.63145 -0.16624,0.93409 -0.22843,0.46698 -0.61696,0.84801 -1.09646,1.07516 l -0.3996,0.1891 -5.64343,0.0122 c -6.20205,0.0128 -5.99913,0.0234 -6.57751,-0.34771 -1.20656,-0.77423 -1.38749,-2.44116 -0.37441,-3.45423 0.14892,-0.14889 0.42404,-0.34637 0.61155,-0.43845 z m 25.6017,0 h 5.85083 5.850865 l 0.33092,0.16242 c 0.69005,0.33888 1.19512,1.05008 1.27496,1.79498 0.1027,0.95958 -0.49107,1.93254 -1.40915,2.30892 l -0.31495,0.12886 -5.643405,0.01 c -3.16346,0.005 -5.74112,-0.0137 -5.86609,-0.0435 -0.61165,-0.14617 -1.22448,-0.64759 -1.51514,-1.2391 -0.14461,-0.29407 -0.16242,-0.39709 -0.16242,-0.9257 0,-0.55154 0.0148,-0.62414 0.1929,-0.98747 0.22891,-0.46489 0.60171,-0.83026 1.07364,-1.05152 z" />
  </g>
</svg>
