<svg xmlns="http://www.w3.org/2000/svg" width="1086.814" height="601.607" viewBox="0 0 1086.814 601.607"><g transform="translate(-20.757 -119.49)"><path d="M994.252,119.49l-1.969,2.695h4.594l-2.625-2.695M53.133,137.68v.674H66.915v.674H62.321v.674l6.563.674v.674l-11.157-.674v.674L69.54,142.4v.674c-9.485-2.819-22.314-.675-22.314,11.453h.656c.376-14.666,15.35-10.779,24.939-10.779v18.864H69.54v4.716l-8.532-.674L47.882,154.522h-.656l5.962,7.694c-7.917-4.491-9.814-13.465-2.025-19.146V142.4c-8.53,3.457-7.422,16.938.656,20.211v.674a14,14,0,0,1-7.875-8.758h-.656c.492,4.8,5.058,8.544,9.188,10.105l-.656-1.347h.656l1.969.674L53.133,165.3l2.625.674-1.313.674v.674l4.594-1.347v.674l-2.625.674V168c18.166,3.435,42.453,8.523,59.723-1.572,11.462-6.7,5.939-26.823-6.563-28.071-17.766-1.773-22.15,27.546-4.594,28.969V168H72.822v-.674h8.532v-4.716H78.072v-8.084c6.556.177,4.553,9.361,8.75,12.463,1.469,1.086,5.242.337,7,.337v-4.716c-5.1,0-5.525-4.937-7.876-8.758C91.7,151.673,93.842,142.8,87.26,139.7c-3.783-1.78-9.693-.674-13.782-.674-6.7,0-13.447-1.347-20.345-1.347m-11.813,8.758h.656c2.137-3.789,6.143-7.057,10.5-7.411-3.486-2.6-10.2,4.017-11.157,7.411M55.1,139.027v.674H59.7l-4.594-.674m13.126.225.219.225c-.324.111-.726-.225-.219-.225M43.288,150.48h.656c.974-5.427,5.063-9.665,10.5-10.105-4.841-3.614-10.827,5.818-11.157,10.105m61.691-10.667c18.459-3.158,21.831,25.249,3.281,26.836-15.286,1.308-18.4-24.248-3.281-26.836M84.635,152.5c.819,3.995,3.479,11.334,7.876,11.453v2.021H87.26c-.529-2.579-6.482-17.872-10.172-11.453-1.238,2.154-.328,6.968-.328,9.432H80.7v2.021H70.853v-2.021h3.281V142.4H70.853v-2.021c4.57,0,12.345-1.523,16.407.786,5.137,2.921,2.758,10.9-2.625,11.341M53.789,141.049v.674H57.07l-3.281-.674m765.234,22.906V155.87H816.4V152.5h2.625c0-4.551,6.478-11.27,7.219-4.042-3,.081-3.281,1.133-3.281,4.042h2.625v3.368H822.96v8.084c14.6-2.761,10.691-24.366-3.938-22.906-12.785,1.276-11.774,20.68,0,22.906M52.257,141.947l.437.225-.437-.225m726.737,0c-1.779.747-1.313,2.888-1.313,4.491,0,3.406-1.674,13.259.328,15.944.893,1.2,3,.9,4.266.9,3.708,0,11.9,1.6,15.095-.337,2.376-1.44,2.507-18.424.545-20.435-2.034-2.089-16.2-1.706-18.921-.562M76.76,142.4v8.758c2.36,0,5.638.607,7.875-.225,2.926-1.088,3.6-5.608,1.2-7.635-2.1-1.776-6.526-.9-9.078-.9m27.564.225c-12.519,4.284-4.991,26.714,7.875,20.66,11.339-5.335,4.46-24.881-7.875-20.66m3.938.786c12.277.525,10.407,20.612-1.969,19.2-10.568-1.205-8.967-19.668,1.969-19.2m-30.189,6.4v-6.063c9.537,0,9.537,6.063,0,6.063m703.653-4.6c2.212-.745,3.5,2.712,1.2,3.144-1.9.356-3.308-2.437-1.2-3.144M40.881,147.56l.219.449-.219-.449m303.644-.449v.674c2.9,1.929,2.9,7.5,0,9.432v.674h5.907v-.674l-1.969-4.716H352.4l-1.313,4.716v.674h5.25v-.674c-2.086-1.745-2.086-7.687,0-9.432v-.674h-5.25v.674l1.313,4.042h-3.938l1.969-4.042-5.907-.674m67.6,9.432-5.907-2.021v2.695c2.336.19,9.782,1.234,6.891-4.042-1.107-2.02-3.7-2.6-4.922-4.716l5.25,1.347c-.451-3.931-7.455-3.438-6.891.674.365,2.656,4.293,3.844,5.578,6.063m10.5-9.432V157.89h3.938l-.656-10.779h-3.281m19.032.674v.674h2.625l-2.625-.674m55.129,10.105v-.674c-8.674-.937-2.286-14.083,1.969-6.737h.656v-3.367c-2.727.294-6.1-.7-8.313,1.572-4.872,5,1.014,9.207,5.688,9.207m-58.41-10.105-2.625,2.695c1.725,2.657.273,8.488,4.594,6.737-1.36-2.093-2.088-4.317,0-6.063v-.674l-1.969-2.695m81.38,0-2.625,2.695c1.725,2.657.273,8.488,4.594,6.737-1.36-2.093-2.088-4.317,0-6.063v-.674l-1.969-2.695m20.345,0-2.625,2.695c.664,2.354,1.173,10.817,4.594,5.39-2.525,0-1.282-3.643,0-4.716v-.674l-1.969-2.695M40.006,149.133c0,8.76,5.1,15.639,13.782,17.516v-.674c-4.658-1.761-10.119-5.182-12.251-10.105-.935-2.161-.356-5.078-1.531-6.737m744.233.674v10.105h-3.281V149.807h3.281m5.25,1.347c5.126-6.458,6.563,5.523,6.563,8.758h-3.281c0-7.962-3.281-7.962-3.281,0h-3.281V149.807l3.281,1.347m-430.527-.337c-3.239,1.963-.821,9.182,3.281,6.737,3.614-2.154.718-9.16-3.281-6.737m5.907-.337v.674a3.986,3.986,0,0,1,0,6.063v.674h3.938c-.75-2.66-1.1-4.459,1.313-6.063l-.656,6.063h3.281c-.75-2.66-1.1-4.459,1.313-6.063l-.656,6.063h3.938c-.606-2.149-1.129-10.429-4.594-6.063h-.656c-1.23-1.549-2.052-1.549-3.281,0l-3.938-1.347m19.032,5.39-2.625.674-.656-2.695h3.938c-.213-.674-.411-1.963-.984-2.47-6.915-6.113-5.276,13.382.328,4.491m32.815-5.053c-3.239,1.963-.821,9.182,3.281,6.737,3.614-2.154.718-9.16-3.281-6.737m10.5-.337c1.694,6.007,1.219,7.411,7.875,7.411l-.656-7.411h-3.281l.656,6.063H430.5v-6.063h-3.281m13.782,0v7.411h3.938l-.656-7.411H441m6.563.337c-3.64,2.109-.718,9.16,3.281,6.737,3.276-1.985.7-9.042-3.281-6.737m5.907-.337v7.411h7.875c-1.7-6.015-.973-7.411-7.875-7.411m11.813,4.716-1.313,2.021v.674c4.439-.48,3.4-4.013,0-5.39l1.313-1.347c-2.691-1.883-3.5,2.973,0,4.042m37.409-4.379c-3.64,2.109-.718,9.16,3.281,6.737,3.276-1.985.7-9.042-3.281-6.737m5.907-.337v7.411h7.875c-1.7-6.015-.973-7.411-7.875-7.411m14.438,2.695h1.969l-.656-2.021c2.577.856,2.587,3.775.656,5.39l.656-2.695-2.625,4.042,6.563-.674c-.789-2.8-4.326-11.765-6.563-4.042m13.126,2.695c-3.149,0-3.393-1.993-2.625-4.716l2.625,1.347a2.659,2.659,0,0,0-5.141,0c-1.349,4.027,3.545,7.836,5.141,3.368M42.63,151.154v2.695h.656l-.656-2.695m318.957,0v6.063c-2.691-.894-2.262-3.749-1.313-6.063h1.313m20.345,0,.656,2.021H380.62l1.313-2.021m37.409,0v6.063c-2.691-.894-2.262-3.749-1.313-6.063h1.313m29.533,0h.656c.949,2.315,1.379,5.169-1.313,6.063l.656-6.063m17.064,0,.656.674-.656-.674m38.065,0h.656c.949,2.315,1.379,5.169-1.313,6.063l.656-6.063m-45.94.674v5.39H456.75l1.313-5.39m55.128,0v5.39h-1.313l1.313-5.39m-15.751,5.39,1.969-.674-1.969.674m-34.783-.674.656.674-.656-.674m-408.87,6.063,4.594,2.021v.674H54.442l1.313-1.347-2.625-.674.656-.674m2.407,2.246.437.225-.437-.225m3.5.674c.507,0,.105.336-.219.225l.219-.225m1.313,1.123v.674H59.037l1.969-.674m3.281,0-.656.674.656-.674M336.648,390.316c1.984-1.659,4.831-10.312,2.516-12.688-4.9-5.03-4.942,4.8-4.266,7.3a39.616,39.616,0,0,0,1.75,5.39m65.629-13.25c-18.143,4.4-11.316,33.832,7.219,29.868,18.937-4.05,12.21-34.577-7.219-29.868m-140.447.45v.674c4.348,2.584,10.595,13.665,11.157,18.863.455,4.205.366,8.624-4.594,8.758v.674h15.751v-.674c-5.178-.14-4.765-4.538-4.594-8.758.228-5.627,6.8-15.688,11.157-18.863v-.674h-7.875v.674c5.863,1.789-1.991,10.555-3.281,14.148h-1.313l-5.907-14.148h2.625l-13.126-.674m210.013,0v.674c2.3,1.529,1.969,3.378,1.969,6.063,0,4.971,2.21,18.783-1.969,21.558v.674h9.844v-.674c-3.066-2.037-3.65-14.881.656-16.506,2.136-.806,2.567,2.275,2.625,3.705.2,4.979.344,9.176-1.969,13.474h9.844v-.674c-4.773-3.17,1.571-23.7-9.844-18.976a12.812,12.812,0,0,0-3.282,2.134V377.516h-7.875m50.534,0v.674c5.676,2.362,8.566,16,11.047,21.558,1.092,2.446,1.487,6.447,4.047,7.411,1.5-7.31,8.088-25.195,14.438-28.969v-.674h-9.188v.674c7.1.767-.453,16.24-3.938,18.863-.327-4.261-9.914-18.147-3.281-18.863l-13.126-.674M404.9,378.3c11.327-2.423,11.8,24.248,3.281,27.285C396.775,409.653,395,380.419,404.9,378.3m59.722,1.235-7.219,9.432h2.625c0,4.636-1.358,11.025.219,15.495,1.919,5.436,8.754,2.233,9.626-2.021l-3.938,2.021-.656-15.495h4.594v-2.021h-4.594l-.656-7.411M294.646,386.5c-11.059,3.469-6.753,24.2,5.25,20.436,11.058-3.469,6.736-24.2-5.25-20.436m58.41,4.492H352.4v-4.042h-7.875v.674c3.33,2.212,3.33,15.978,0,18.19v.674h10.5c-2.636-2.46-5.085-12.523-.656-15.383,2.14-1.382,5.145,3.561,6.453-.786,1.81-6.015-6.531-3.706-7.766.674m24.939,10.779c-5.7,3.387-9.65,1.5-9.844-6.063h10.5c-.6-3.323-.936-6.494-3.938-8.534-6.443-4.378-12.47,3.835-12.47,9.881,0,9.07,12.779,15.256,15.751,4.716m53.816-12.8c-.376-3.28-5.255-2.021-7.875-2.021v.674c3.33,2.212,3.33,15.978,0,18.19v.674h9.844v-.674c-2.686-1.785-3.887-15.433.656-16.393,2.3-.485,2.6,2.757,2.625,4.266.068,4.853.142,8.465-1.969,12.8h9.844c-3.374-4.453-.2-23.189-9.188-19.987-1.436.512-2.642,1.735-3.938,2.47M511.221,401.1h-.656c-4.763,6.7-8.817.334-9.844-5.39h10.5c0-11.777-14.66-12.2-15.751-.674-.354,3.733.193,8.232,3.281,10.667,4.452,3.511,11.356.827,12.47-4.6m55.128.674c-1.706.507-2.907,2.245-4.594,2.582-4.233.845-5.828-5.619-5.907-8.646h10.5c-.742-9.634-12.872-13.618-15.532-2.695-2.664,10.939,9.665,20.808,15.532,8.758m10.5-11.453v-3.368h-7.875v.674c3.327,2.212,3.327,15.978,0,18.19v.674h10.5c-2.743-2.562-5.027-12.44-.656-15.383,2-1.349,3.564,2.724,5.69.449,1.595-1.706.683-5.169-1.752-5.277s-4.371,2.465-5.907,4.042m15.095,8.758v1.347c-4.837,1.961-3.866,5.541-1.969,9.432-3.157.963-3.176,3.88,0,5.165,4.4,1.783,18.337,1.72,16.191-6.513-1.424-5.46-7.665-3.417-11.6-4.042-1.247-.2-2.966-1.053-2.3-2.695.879-2.162,4.515-1.13,6.235-1.572,5.447-1.4,7.127-6.784,3.938-11.229h3.938v-2.021c-4.85,0-12.2-2.341-16.407.9-4.161,3.2-3.091,10.134,1.969,11.228m32.158,2.695c-5.7,3.387-9.648,1.5-9.844-6.063h10.5c-.6-3.323-.938-6.494-3.938-8.534-6.445-4.378-12.47,3.835-12.47,9.881,0,9.07,12.778,15.256,15.751,4.716M309.083,386.948v.674c4.685,3.111-1.977,23.292,9.188,19.313,1.435-.512,2.642-1.735,3.938-2.471.376,3.28,5.255,2.021,7.875,2.021v-.674c-5.191-3.35-1.969-13.526-1.969-18.864H320.24a21.412,21.412,0,0,1,1.859,13.474c-.311,1.533-1.835,4.544-3.828,3.705-2.935-1.235-1.313-14.261-1.313-17.179h-7.875m-12.47.786c5.184-1.5,5.351,16.868,1.313,17.965-5.287,1.437-5.208-16.84-1.313-17.965m76.786,6.624h-5.25c0-8.038,5.25-8.038,5.25,0m133.227,0H500.72c0-7.886,5.706-7.818,5.907,0m54.472,0h-5.25c0-7.8,5.25-7.954,5.25,0m34.127-6.624c4.568-1.32,5.29,10.131,1.313,11.228-4.43,1.222-4.62-10.273-1.313-11.228m24.283,6.624h-5.25c0-8.038,5.25-8.038,5.25,0M603.1,411.2c-1.03,3.567-10.474,5.654-12.141,1.347-1.713-4.437,10.468-2.386,12.141-1.347M267.08,426.92c-18.353,4.448-10.752,34.382,7.875,29.868,18.922-4.587,11.456-34.552-7.875-29.868m24.283,9.881h-2.625v2.021h2.625c0,4.252,1.973,15.439-2.625,16.842v.674h11.157v-.674c-4.6-1.4-2.625-12.59-2.625-16.842h2.625V436.8H297.27l.656-8.758h1.313l.656.674c-1.2,4.674,4.594,5.211,4.594,1.347,0-4.251-6.741-3.856-9.188-2.582-3.69,1.92-3.938,5.541-3.938,9.319m23.626,9.432h-.656v10.779h.656c3-4.754,13.268,4.076,17.61-4.716,6.365-12.886-12.83-11.563-14-20.211-.424-3.132,3.9-4.65,6.235-3.818,3.44,1.226,5.089,4.834,6.563,7.86h.656L331.4,426.7h-.656v2.021c-2.756-.223-5.063-1.941-7.875-2.021-6.1-.173-11.383,7.023-7.657,12.8,2.22,3.443,6.445,4.606,9.626,6.737,1.791,1.2,4.065,2.888,3.828,5.39-.895,9.445-13.22.5-13.672-5.39M452.155,426.92c-3.894,1.5-.946,7.507,2.625,5.5,3.377-1.9.784-6.814-2.625-5.5M546,444.886v-.674H532.879v.674c5.474,1.627,4.668,11.536-1.969,10.779-15.912-1.815-6.537-39.048,7.875-24.253a18.551,18.551,0,0,1,3.281,5.39h.656V426.7c-6.084,4.23-14.891-2.854-22.314,3.593-12.861,11.172-.224,28.121,13.782,26.724,1.848-.185,7.026-.667,8.2-2.245,2.541-3.406-2.194-8.156,3.61-9.881m78.755,2.021c1.923-2.713,6.149-20.474,0-20.211-6.451.276-1.03,16.561,0,20.211M425.247,427.37v.674c4.179,2.776,1.969,16.587,1.969,21.558,0,2.685.333,4.534-1.969,6.063v.674h9.844v-.674c-3.065-2.036-3.65-14.88.656-16.505,2.136-.806,2.567,2.275,2.625,3.705.2,4.979.345,9.176-1.969,13.474h9.844v-.674c-4.773-3.17,1.571-23.7-9.844-18.976a12.812,12.812,0,0,0-3.281,2.134V427.37h-7.875m-155.541.786c11.717-2.506,12.314,24.451,3.281,27.285-11.521,3.613-12.884-25.231-3.281-27.285m148.322,1.235-7.219,9.432c4.876,1.619.529,13.031,3.5,16.73,3.07,3.821,8.191.542,8.97-3.256l-3.938,2.021-.656-15.495h4.594V436.8h-4.594l-.656-7.411m194.262,0-7.875,9.432h2.625c0,4.516-1.4,12.159.984,16.169,2.769,4.661,8.505,1.238,9.516-2.695-6.983,3.96-4.594-8.567-4.594-13.474h4.594V436.8h-4.594l-.656-7.411m-269.08,6.961c-11.246,3.527-6.792,24.213,5.25,20.436,10.615-3.329,6.741-24.2-5.25-20.436m22.314,2.47c-.376-3.28-5.255-2.021-7.875-2.021v.674c3.33,2.212,3.33,15.978,0,18.19v.674h10.5v-.674c-3.171-1.935-5.025-16.248.656-16.505,4.964-.225,2.745,14.734,0,16.505v.674h10.5v-.674c-3.816-2.462-4.535-14.575.656-16.505,2.139-.8,2.567,2.267,2.625,3.705.2,4.979.345,9.176-1.969,13.474h9.844v-.674c-4.607-3.06-.439-12.664-3.172-17.516-2.274-4.037-8.182-1.712-9.954,1.347-4.159-4.157-7.168-3.936-11.813-.674m43.315,12.126h-.656c-4.975,7-8.329-.013-9.844-5.39h10.5c0-11.777-14.66-12.2-15.751-.674-.354,3.733.193,8.232,3.281,10.667,4.452,3.511,11.356.827,12.47-4.6m59.722-12.126c-.376-3.28-5.255-2.021-7.875-2.021v.674c4.29,3.229,2.157,14.856,0,18.863h9.188c-1.057-2.291-3.494-18.354,1.969-17.067,3.282.773,1.415,15.017-.656,16.393v.674h9.844c-3.491-4.608.145-29.1-12.47-17.516m19.689,10.105v1.347c-4.84,1.961-3.864,5.541-1.969,9.432-3.154.963-3.175,3.88,0,5.165,4.7,1.9,20.217,1.031,15.751-7.86-1.629-3.243-14.84-1.975-13.454-5.39.878-2.162,4.515-1.13,6.235-1.572,5.5-1.413,7.345-6.8,3.938-11.229h3.938V436.8c-4.849,0-12.2-2.341-16.407.9-4.16,3.2-3.094,10.134,1.969,11.228m68.254-8.084h-.656V436.8h-7.875v.674c3.33,2.212,3.33,15.978,0,18.19v.674h10.5c-2.638-2.46-5.085-12.523-.656-15.382,2.14-1.382,5.145,3.561,6.451-.786,1.811-6.015-6.53-3.706-7.764.674m24.939,10.779c-5.7,3.387-9.648,1.5-9.844-6.063h10.5c-.473-2.622-.656-5.451-2.625-7.411-6.307-6.271-13.782,1.876-13.782,8.758,0,9.07,12.778,15.256,15.751,4.716m13.782,2.021c.5,4.766,5.907,3.888,7.875.674-6.248-1.906.282-12.719-4.049-16.618-3.491-3.145-17.037-.448-13.342,5.726,1.214,2.029,4.745,1.951,5.362-.561.256-1.068-.643-9.265,3.281-4.042a5.021,5.021,0,0,1,.545,4.716c-1.838,3.356-7.094,3.185-9.188,6.737-4.666,7.907,5.893,6.4,9.516,3.368M448.219,436.8v.674c3.33,2.212,3.33,15.978,0,18.19v.674h10.5v-.674c-4.7-2.869-2.625-13.719-2.625-18.863h-7.875m-103.038.786c4.652-1.283,4.889,16.933,1.313,17.965-5.351,1.545-5.5-16.809-1.313-17.965m58.41,6.625h-5.25c0-7.819,6.466-7.9,5.25,0m87.943-6.625c4.681-1.351,4.78,10.272,1.313,11.228-4.429,1.222-4.623-10.272-1.313-11.228m85.318,6.625H571.6c0-8.039,5.25-8.039,5.25,0m18.376,2.021c0,1.343.054,2.7,0,4.042-.342,8.418-9.72-1.153,0-4.042m28.221,4.379c-3.734,1.975-1.194,7.645,2.625,6.176,3.964-1.527,1.431-8.319-2.625-6.176M499.409,461.055c-1.033,3.567-10.476,5.654-12.141,1.348-1.716-4.437,10.469-2.386,12.141-1.348M188.983,518.993l-1.313,3.369,1.969,2.021-2.625-1.347-1.969,4.042h2.625V526.4l-1.313-.674,3.938-.674-.656,2.021h3.938l-4.594-8.084m19.032,7.411v-.674c-5.912,1.6-5.68-7.8.656-4.716-2.555-7.153-13.843,5.662-3.281,6.063a4.9,4.9,0,0,0,2.625-.674m72.192-1.347c-6.909,3.36-6.694-7.3,0-4.042-1.3-3.627-6.87-2.137-7.766,1.348-1.254,4.876,5.67,6.019,7.766,2.695m.656-6.063-.059.674c.3.253,1.363-.154,1.357.24-.024,1.6.009,6.416.009,6.416l-1.284.027-.022.725h4.594l-.073-.736-1.035-.007-.2-2.624,3.053,3.251,2.509.014-2.937-3.941c5.585-5.07-3.776-4.042-5.907-4.042m11.813.224c-5.579,2.075-1.09,10.216,3.938,7.523,5.156-2.761.99-9.356-3.938-7.523m55.785-.224v1.348h1.313V518.99h-1.313m5.25,0,.656,2.021c-5.651.61-3.457,7.2,2.625,5.39l-.656-7.411h-2.625m15.751,0,.656,2.695c-5.03-2.039-4.861,7.521,1.969,4.716l-.656-7.411h-1.969m26.908,0,.656,2.021c-5.651.61-3.457,7.2,2.625,5.39L399,518.99h-2.625m9.844,0v1.348h1.969V518.99h-1.969m35.44,0v8.084h2.625l-.656-8.084h-1.969m15.095,0v1.348h1.313V518.99H456.75m54.472,0v1.348h1.313V518.99h-1.313m13.782,0v1.348h1.313V518.99H525m17.72,0c-2.034,2.405-2.623,7.648,1.313,8.084l.656-5.39v-.674l-1.969-2.022m1.969,0v8.084H550.6l-.656-6.063-2.625.674v-2.695h-2.625m56.441,0,1.969,1.348-1.969-1.348m32.158,0c-2.034,2.405-2.625,7.648,1.313,8.084l.656-5.39v-.674l-1.969-2.021m17.064,8.084h3.281l-.656-7.411,1.969.674c-2.428-6.118-4.253,5.532-4.594,6.737m40.034-8.084v1.348H691.7v-1.348H690.39m-494.844.674c-1.677,2.424-2.44,6.97,1.313,7.411l.656-5.39v-.674l-1.969-1.347m88.6,3.369v-3.369c3.16.351,3.16,3.017,0,3.369m9.844-3.256c3.435-1.058,3.566,5.732,1.2,6.512-3.242,1.07-3.51-5.8-1.2-6.512m86.631-.113c-1.285,2.089-1.715,7.045,1.313,7.411l.656-5.39v-.674l-1.969-1.347m72.849,0c-1.678,2.424-2.44,6.97,1.313,7.411l.656-5.39v-.674l-1.969-1.347m28.221,0c-1.678,2.424-2.44,6.97,1.313,7.411l.656-5.39v-.674l-1.969-1.347m26.252,0c-1.285,2.089-1.715,7.045,1.313,7.411l.656-5.39v-.674l-1.969-1.348M696.3,527.073l.656-5.39v-.674l-1.312-1.348c-3.432,1.048-2.96,7.01.656,7.411m-485-5.726c-2.926,1.723-.638,7.312,2.625,5.39,2.926-1.723.638-7.312-2.625-5.39m4.594-.337v6.063H221.8l-.656-6.063h-5.25m6.563,0,2.625,6.063h.656l1.313-3.369c-1.834,0-1.487-1-1.313-2.695h-3.281m3.938,0,.656,1.347h.656l.656-1.347h-1.969m6.563,6.063V526.4l-1.969-2.695h2.625c-.712-6.762-9.217,3.137-.656,3.368m1.969-6.063v6.063h2.625v-4.716l1.969.674c-.209-1.828-1.175-2.672-1.969-.674l-2.625-1.347m5.25,8.084c4.88,2.109,7.36-3.369,1.313-3.369v-.674c3.01-.082,3.164-1.3,3.938-4.042-6.467,0-4.583,2.774-5.25,8.084m9.844-2.021V526.4l-1.969-2.695h2.625c-.712-6.762-9.217,3.137-.656,3.368m1.313-6.063v6.063h5.907l-.656-6.063h-5.25m11.813,5.39v-.674l-1.969.674-.656-4.716,2.625,1.348c-2.231-7.079-8.514,7.049,0,3.368m4.594.674V526.4l-1.969-2.695h2.625c-.712-6.762-9.217,3.137-.656,3.368m37.409-6.063,2.625,6.063v-5.39l3.281,5.39.656-6.063h-6.563m7.219,0,.656,1.347h.656l.656-1.347h-1.969m6.563,6.063V526.4L316.3,523.7h3.281c-2.653-6.719-9.092,3.369-.656,3.369m3.938-6.063v8.758h3.281l-.656-2.695c2.569-.072,5.225-3.51,2.407-5.726-1.1-.863-3.719-.337-5.032-.337m7.219,0v6.063h3.281l-.656-4.716,1.969.674c-.291-2.543-2.4-1.96-4.594-2.021m6.563.337c-2.926,1.723-.638,7.312,2.625,5.39,2.926-1.723.638-7.312-2.625-5.39m3.938-.337,3.281,6.063,1.313-2.695-1.313-3.369h-3.281m4.594,0,.656,1.348h.656l.656-1.348h-1.969m2.625,0v6.063h2.625l-.656-6.063h-1.969m13.782,6.063V526.4l-1.969-2.695h2.625c-.712-6.762-9.217,3.137-.656,3.369M375.37,523.7v.674l-1.969,2.695h5.25c-.4-1.4-.2-4.157-.984-5.277-1.614-2.3-6.384,1.415-2.3,1.909m9.844.674-1.969,2.021,5.25.674c-.4-1.43-.223-4.865-1.422-5.726-2.432-1.748-3.567,1.279-1.859,3.032m15.095-3.369v6.063h3.281l-.656-4.716,3.281-.674-.656,5.39h3.281l-.656-6.063H400.31m8.532,0,2.625,6.063h.656l1.313-4.042h-.656l-.656,1.347V521.01h-3.281m3.938,0,.656,1.348h.656l.656-1.348h-1.969M420,526.4v-.674l-1.969.674-.656-2.695H420c-2.351-8.117-8.362,6.309,0,2.695m.656-5.39v6.063c.21-.034,3-.151,3-.151.054-.082,0,0-.007-.21,0-.1-.515-.41-.466-.513.373-.789-.362-3.259.006-3.816.5-.764.868-.279,1.223-.311.468-.041.04,4.591.34,4.583.1,0-.826.013-.735.013.18,0-.007.23.173.238a9.7,9.7,0,0,0,2.377.167l-.656-6.063h-5.25m10.5,0,1.969,5.39-2.625-.674v.674c4.873,1.448,3.932-1.954,1.313-4.716l2.625,1.347-3.281-2.021m5.907.337c-2.875,1.693-.632,7.374,2.516,5.39,2.782-1.754.7-7.281-2.516-5.39m7.875-.337c1.381,4.9.643,5.755,5.907,6.063-.686-2.431.193-5.723-2.625-6.063v5.39h-.656v-5.39H444.94m11.157,0v6.063h2.625l-.656-6.063H456.1m4.7.337c-2.869,1.808-.814,7.351,2.516,5.39,2.875-1.693.632-7.374-2.516-5.39m4.484-.337v6.063h5.907l-.656-6.063h-5.25m7.875,0,1.969,5.39-2.625-.674v.674l3.281.674-1.969-5.39,1.969.674-2.625-1.347m12.47.337c-2.926,1.723-.638,7.312,2.625,5.39,2.926-1.723.638-7.312-2.625-5.39m9.3,0c-2.869,1.808-.814,7.351,2.516,5.39,2.875-1.693.632-7.374-2.516-5.39m4.484-.337v8.758h3.281l-.656-2.695c2.569-.072,5.225-3.51,2.407-5.726-1.1-.863-3.719-.337-5.032-.337m11.157,0v6.063h2.625l-.656-6.063h-1.969m3.281,0v6.063H523.7c-1.9-6.746-3.037-5.875-9.844-6.063m10.5,0v6.063h2.625l-.656-6.063h-1.969m3.938,0,1.969,5.39-2.625-1.348.656,2.021h2.625v-6.063h-2.625m8.532,6.063V526.4L534.2,523.7h3.281c-2.653-6.719-9.092,3.368-.656,3.368m19.689-.674v-.674l-1.969.674-.656-2.695h2.625c-2.351-8.117-8.362,6.309,0,2.695m8.532,0v-.674l-1.969.674-.656-4.716,2.625,1.348c-2.231-7.079-8.512,7.049,0,3.368m2.08-5.053c-2.868,1.808-.814,7.351,2.514,5.39,2.875-1.693.63-7.374-2.514-5.39m5.139-.337v6.063h5.907c-1.378-4.9-.643-5.755-5.907-6.063m5.907,0,3.281,6.063,1.313-3.369c-1.838,0-1.49-1-1.313-2.695h-3.281m3.938,0,.656,2.021h.656l.656-2.021h-1.969m7.219,6.063V526.4L586.7,523.7h3.281c-2.651-6.719-9.09,3.369-.656,3.369m1.313-6.063v6.063h3.281V526.4c-1.962-1.642-1.194-3.368,1.313-3.368l-.656-2.021-1.313,1.347-2.625-1.347m5.907,0,1.969,5.39-2.625-.674v.674l3.281.674-1.969-5.39,1.969.674-2.625-1.348m3.938,0v6.063h2.625v-6.063h-2.625m4.706.337c-2.783,1.754-.7,7.281,2.514,5.39,2.875-1.693.63-7.374-2.514-5.39m5.139-.337v6.063h5.907c-1.378-4.9-.643-5.755-5.907-6.063m9.844,0v6.063h3.281l-.656-4.716,1.969.674c-.289-2.543-2.4-1.96-4.594-2.021m7.219,3.369-1.969,2.021,5.25.674c-.4-1.43-.223-4.865-1.424-5.726-2.428-1.748-3.564,1.278-1.857,3.032m13.126,2.021v-.674l-2.625.674-.656-2.695h3.281c-2.3-7.934-8.67,6.443,0,2.695m5.25-5.053c-2.875,1.693-.63,7.374,2.514,5.39,2.783-1.754.7-7.281-2.514-5.39m11.157-.337,3.281,6.063,1.313-2.021v-.674l-1.313-3.369h-3.281m5.034.224.433.225-.433-.225m2.953.113c-2.783,1.754-.7,7.281,2.514,5.39,2.875-1.693.63-7.374-2.514-5.39m5.139-.337c0,5.361.761,6.063,5.907,6.063l-.656-6.063h-2.625l.656,5.39h-1.313v-5.39h-1.969m6.563,0v6.063h3.281l-.656-4.716,2.625-1.348h-5.25m9.188,0,1.969,5.39-2.625-.674v.674c5.034,2.04,2.835-2.6.656-4.716l2.625,1.347-.656-2.021H685.8m3.938,0v6.063h2.625l-.656-6.063h-1.969m11.813,6.063V526.4l-2.625-2.695h3.281c-2.651-6.719-9.09,3.369-.656,3.369m-488.283-5.39V526.4c-2.309-.868-1.928-2.543-1.315-4.716h1.313m6.563,0V526.4h-1.311l1.313-4.716m12.47,0v1.348h-1.313v-1.348H232.3m10.5,0v2.695h-.656l.656-2.695m6.563,0v1.348h-1.313v-1.348h1.313m5.907,0V526.4h-1.313l1.313-4.716m11.813,0v1.348h-1.313v-1.348h1.313m50.534,0v1.348h-1.312v-1.348h1.313m9.188,0V526.4h-1.313v-4.716h1.313m11.813,0V526.4c-2.307-.868-1.926-2.543-1.313-4.716h1.313m15.751,0V526.4c-2.252-.848-2.156-2.659-1.313-4.716h1.313m6.563,0v1.348h-1.313v-1.348h1.313m7.875,0h.656c.886,2.16,1.1,3.915-1.313,4.716l.656-4.716m7.219,0V523.7h-.656l-.656-2.021h1.313m10.5,0V523.7h-1.313v-2.021h1.313m10.5,0V526.4c-2.252-.848-2.156-2.66-1.313-4.716h1.313m21.658,0-1.969,1.348,1.969-1.348m20.345,0V526.4c-2.413-.8-2.2-2.556-1.313-4.716h1.313m22.97,0c1.63,1.6,1.683,3.835-.656,4.716l.656-4.716m7.219,0V526.4h-1.313l1.313-4.716m18.376,0V526.4c-2.307-.868-1.925-2.543-1.313-4.716H487.6m8.532,0c1.63,1.6,1.683,3.835-.656,4.716l.656-4.716m7.219,0V526.4h-1.313v-4.716h1.313m14.438,0V526.4h-1.313l1.313-4.716m3.281,0V526.4h-1.313l1.313-4.716m8.532,0,.656,1.348h-1.313l.656-1.348m5.907,0v1.348h-1.313v-1.348h1.313m13.126,0V526.4H547.32l1.313-4.716m6.563,0-1.969,1.348,1.969-1.348m13.126,0c1.628,1.6,1.68,3.835-.656,4.716l.656-4.716m7.219,0V526.4h-1.313l1.313-4.716m12.47,0v1.348H586.7v-1.348h1.313m18.376,0h.656c.886,2.16,1.1,3.915-1.313,4.716l.656-4.716m7.219,0V526.4h-1.313l1.313-4.716m15.095,0V523.7h-1.313v-2.021H628.7m10.5,1.348h-1.969l.656-1.348,1.313,1.348m8.532-1.348V526.4c-2.415-.8-2.2-2.556-1.313-4.716h1.313m18.376,0h.656c.886,2.16,1.1,3.915-1.313,4.716l.656-4.716m34.127,0v1.348h-1.313v-1.348h1.313m-38.721.674.656.674-.656-.674m-349.147.674.656.674-.656-.674m32.815,0,.656.674-.656-.674m30.846,1.348V526.4h-.656l.656-2.021m10.5,0-1.313,2.021,1.313-2.021m2.625,0v.674h3.281l-3.281-.674m239.546,0-1.313,2.021,1.313-2.021m-328.8.674v4.042l1.969-4.042H299.9m-55.129,2.695v.674h-3.937l3.938-.674m412.807,0,1.969,2.021-1.969-2.021m1.969,0,.656.674-.656-.674M458.065,543.466c-5.622,2.032-3.845,20.168-3.281,25.376a5.106,5.106,0,0,0,3.281,4.491c4.822,1.743,12.605.224,17.72.224h39.378c6.028,0,15.326,1.827,21-.224a5.106,5.106,0,0,0,3.281-4.491c.564-5.208,2.34-23.344-3.281-25.376-5.676-2.051-14.973-.224-21-.224H475.784c-5.115,0-12.9-1.518-17.72.224m-99.1,9.881V562.1h5.907v-2.021h-4.594v-6.737h-1.312m35.44,0V562.1h1.313v-6.063h.656l1.313,6.063H399l1.313-5.39h.656v5.39h1.969v-8.758h-3.281l-1.969,4.716-.656-4.716H394.4m79.411,2.695c-1.895.768-2.922-.7-4.594-.224-3.971,1.128.635,4.213,2.625,4.266v-.674h-2.625v-2.021h4.594c0,4.82-6.489,7.188-8.313,2.021-2.013-5.7,6.18-8.478,8.313-3.369m9.844-2.695,1.313,2.021v1.347c-2.149,1.8-.708,3.135,0,5.39H481.69v-5.39h-1.313v2.695H476.44v.674h3.938c-6.284,9.969-7.19-11.6-.656-3.369l2.625-3.368h1.313m11.157,2.021h1.969l1.969-2.021,1.969,3.368c4.117-5.187,5.25,2.219,5.25,5.39h-9.188c0-4.97-1.186-5.844-5.907-6.737,1.132,1.426,3.938,1.372,4.484,3.369,1.183,4.317-6.026,4.416-7.11.674l5.25.674c-1.328-1-4.232-1.748-4.922-3.369-1.506-3.534,5.145-4.8,6.235-1.347m19.032-2.021,1.969,3.368c2.4-3.025,5.165-.62,5.25,2.695h-3.938v.674h3.938c-1.38,2.189-3.555,2.809-5.25.674L511.88,562.1v-5.39h-2.625v5.39H506.63v-6.737l5.907-2.021h1.313m14.438,0V562.1c-2.928,0-9.091-.421-6.235-5.39,1.233-2.144,3.444-.762,4.266-3.368h1.969m-157.51,6.737-3.281.674,3.938-1.348c-.339-4.406-5.907-5.758-5.907-.674,0,3.511,4.192,4.706,5.25,1.348m1.969-2.695,3.281-.674v.674c-6.995,1.322-2.426,4.458,1.969,4.716-.545-1.931-3.049-11.7-5.25-4.716m6.563-2.021V562.1h1.313c0-3.025.18-4.231,2.625-6.063l-3.938-.674m4.594,0V562.1h1.313c0-2.586.024-4.551,2.625-5.39v5.39h1.969c0-5.806-.732-6.052-5.907-6.737m21.658.337c-3.479,1.953-1.114,7.615,2.625,6.176,3.939-1.516,1.238-8.344-2.625-6.176m5.907-.337V562.1h1.313c0-3.025.18-4.231,2.625-6.063l-3.938-.674m9.188,4.716-3.281.674,3.938-1.347c-.339-4.406-5.907-5.758-5.907-.674,0,3.511,4.192,4.706,5.25,1.347m-51.191-3.368v1.347H367.5v-1.347h1.969m38.721,0v4.042c-3.336-.371-3.336-3.672,0-4.042m11.157,0v1.347h-1.969v-1.347h1.969m57.1,1.347h1.969l-.656-1.347-1.313,1.347m22.314-1.347v4.042l4.594-3.369-4.594-.674m15.095,0v4.042h1.313v-4.042H513.85m3.281,1.347H519.1l-.656-1.347-1.313,1.347m7.219-1.347v4.042h1.313v-4.042h-1.313m-148.322,2.021-1.969,2.021.656-2.021h1.313m126.664,0-.656,2.021.656-2.021M992.286,718.4l1.969,2.695h.656l1.969-2.695Z" transform="translate(110.691)" fill="#cecece"/><path d="M835.262,144.485v-3.278c-7.02-1.843-7.4,2.821,0,3.278m-2.228,0,.557.41-.557-.41M536.648,172.347a11.07,11.07,0,0,0,.291-2.859c-.633-7.118-14.261,1.548-4.188,2.957a17.836,17.836,0,0,0,3.9-.1m302.514,11.882c2.167-.371,4.88-.305,5.571-2.049-2.574.116-4.017.5-5.571,2.049m-345.412,4.1h-.557l-.557-.819c-3.924,1.818-7.6,4.085-7.243,7.785l15.6-7.375c-2.342-2.1-5.414-2.082-7.243.41m335.941-.41v.41h1.671l-1.671-.41m-29.527,12.7c-6.864.144-10.9,4.941-15.895,7.885a59.79,59.79,0,0,1-12.518,5.81c-3.443.991-8.3,1.836-10.524,4.219-2.306,2.47,3.287,4.665,6.067,4.354,3.644-.406,6.134-2.866,8.975-4.337,5.5-2.848,10.206-5.983,15.56-9.018,4.591-2.6,8.919-4.017,8.334-8.913m-616.17,9.834-.557,1.639,2.786-.41-2.228-1.229m464.818,1.912.19.273-.19-.273m-1.855.546.557.41-.557-.41m-610.042,4.1c7.375,2.4,2.431-5.326,0,0m610.6-2.458-7.755,14.506-6.173,2.293c2.4,3.635,10.786,7.449,14.106,2.009,1.214-2-1.265-3.748-1.493-5.7-.524-4.5,3.421-8.521,1.315-13.112m-486.239,7.183a2.058,2.058,0,1,0,.388,4.072c3.092-.23,2.564-4.124-.388-4.072m645.016,3.061-6.128,2.458v1.639l4.457-2.049c1.621-.25,2.111-.849,1.671-2.049m-335.384,1.639.557.41-.557-.41m1.114,0,.557.41-.557-.41m-415.608.41.557.41-.557-.41m1.114.41c2.323,3.587,6.825,6.241,10.583,9.014,5.887,4.342,11.276,8.959,17.83,12.78,3.8,2.213,10.4,6.013,12.814.742-17.069-1.293-25.96-17.436-41.227-22.536m1.671.819-.557.41.557-.41m411.152,0c-6.925,8.8-15.03,17.092-22.156,25.813-3.614,4.423-7.31,10.52-13.537,13.279-4.941,2.19-12.192,2.118-17.79,2.4-9.047.45-18.353,1.045-27.3,2.139-36.507,4.464-72.534,9.92-108.638,15.785v.41c13.617,0,27.36-2.756,40.669-4.715,22.843-3.362,45.455-6.789,68.525-9.217,9.275-.976,18.544-1.761,27.856-2.5,2.844-.225,7.82-1.352,10.3.061,2.532,1.445.828,3.742-.464,5.308-3.608,4.373-8.337,8.25-11.75,12.7-5.893,7.686-13.271,14.8-19.034,22.536-5.446,7.315-9.307,15.351-13.975,22.945-2.283,3.714-3.966,7.594-6.942,11.063-.923,1.076-3.224,2.8-2.251,4.195,1.934,2.773,10.979-.74,13.478-1.563,13.178-4.34,25.9-9.553,38.441-14.807,35.611-14.924,71.5-29.12,108.08-42.733,12.913-4.806,25.1-10.386,37.327-16.081,5.584-2.6,12.691-4.943,16.713-8.909,7.816-.834,19.109-6.129,24.808-10.07,2.334-1.614,4.986-3.761,4.429-6.311-.992-4.514-13.382-9.144-18.652-10.662l7.788,6.587,1.125,5.706-2.446,5.588-13.142,6.165-26.753,11.793L454.75,318.1l-53.483,22.159-17.828,6.22c11.3-20.322,22.47-39.269,38.94-57.773,4.982-5.6,10.374-15.21,18.464-18.623,5.942-2.508,14.517-2.119,21.149-2.762,12.346-1.2,24.575-3.2,36.77-4.969,5.582-.811,15.432-.826,19.5-3.967-6.972.373-13.528,2.031-20.365,2.848-11.726,1.4-23.589,2.1-35.347,3.359-3.676.395-16.928,3.935-17.872-.394-.527-2.415,4.716-6.116,6.131-8.272,5.79-8.825,19.12-17.9,20.655-27.862h-1.114m-449.592.819c.57,3.9,5.653,5.682,9.471,7.967,8.894,5.323,18.46,9.936,26.747,15.8,2.4,1.7,10.4,5.052,10.027,7.781-.408,2.969-7.556,4.443-10.59,5.532-8.87,3.185-17.613,6.529-26.742,9.306-3.785,1.151-8.378,1.85-8.914,5.243,13.771-4.45,27.028-9.613,40.669-14.248,3.129-1.063,12.436-2.6,12.466-5.835.027-2.877-8.738-6.375-11.352-8.189-12.634-8.768-28.452-15.085-41.784-23.355m770.478.578c-6.758.707-11.828,6.572-16.819,9.306-3.644,2-8.429,2.447-11.961,4.732-1.928,1.246-7.254,6.388-1.27,6.464,3.5.047,5.12-3.313,7.889-4.468,4.034-1.685,8.167-2.646,11.889-4.842,2.485-1.464,3.867-3.678,6.312-5.143,2.184-1.306,5.566-1.405,7.254-3.193s-1.008-3.094-3.293-2.855m-159.881,1.471v.41h1.671l-1.671-.41M467,232.986l-.557.41.557-.41m254.78.606c-2.223.889-3.086,2.825-4.986,3.974-1.616.976-3.8.778-5.482,1.635-2.084,1.064-3.109,2.914-5.376,3.852-3.081,1.275-7.716,3.367-11.075,4.028-2.574.506-5.85-.113-7.905,1.45-4.229,3.22,6.462,5.984,9.577,5.365,8.847-1.757,16.708-7.352,23.31-11.627,1.805-1.169,4.423-1.106,5.989-2.521,2.88-2.6,2.017-8.585-4.05-6.156m-376.974,15.1.371.137-.371-.137m-80.039,41.657c-1.606-5.724,11.457-10.386,17.271-12.774,21.088-8.66,42.852-17.318,62.4-27.79-3.872-.93-9.113,2.419-12.318,3.863-9.83,4.428-20.234,8.019-30.023,12.557-12.4,5.746-25.783,10.064-37.884,16.214-4.037,2.052-10.852,4.113-11.191,8.332-.168,2.089,2.449,3.333,4.512,4.375a167.905,167.905,0,0,0,16.15,7.121c23.066,8.738,43.7,19.735,64.105,31.351,3.53,2.01,7.613,3.387,11.1,5.458,4.413,2.618,7.986,5.784,12.814,8.053,1.489.7,7.9,3.3,8.794.813.536-1.495-2.446-2.694-3.776-3.352-5.193-2.572-9.663-5.854-14.49-8.777-19.994-12.107-42.729-22.9-65.183-32.486-6.192-2.644-12.9-4.606-18.941-7.452-3.013-1.421-6.163-2.984-3.344-5.5m577.733-37.69v.41l4.457-2.458-4.457,2.049m-124.236,9.834c3.337,5.518,9.744,2.774,15.042,1.034,2.162-.71,4.8-.692,6.067-2.39,1.688-2.266.574-6.988-4.206-6.091-3.744.7-2.262,4.912-7.437,5.346a31.136,31.136,0,0,0-9.465,2.1m-189.419-5.736v.819l4.457-.41-4.457-.41M753.924,281.34c4.546-.47,10.853-2.975,12.814-6.146,9.549-1.956,17.415-8.5,26.184-11.84,3.577-1.363,8.736-2.743,10.028-5.779-5.766.827-10.034,3.955-14.736,6.3-7.259,3.628-14.652,7.2-21.939,10.9-3.955,2.012-10.73,2.883-12.351,6.562m-227.3-23.355.557.41-.557-.41m-347.083,5.327,9.471-4.1c-3.831.546-7.084,1.8-9.471,4.1m622.856,9.424c7.6-.642,20.78-8.122,25.07-12.7-7.337,1.763-21.694,7.391-25.07,12.7m-58.5,1.229c6.9.788,14.652-5.1,20.056-7.78,2.418-1.2,4.735-2.172,6.128-4.1-6.58.739-12.947,4.744-18.385,7.391-2.83,1.377-5.839,2.4-7.8,4.491M181.209,262.492l-.557.41.557-.41M898.773,359.6l1.114,2.458-2.786.41V363.7l33.427,15.493,85.239,43.03,35.1,15.6,12.814,5.362c-2.323-4.539-7.933-7.015-13.371-9.344-8.385-3.589-17.131-6.693-25.07-10.816-25.616-13.3-52.012-25.764-77.439-39.3-8.524-4.537-17.432-8.591-26.184-12.895-6.151-3.024-13.365-7.047-20.613-8.361v-.41c5.359-1.009,9.493-3.986,13.928-6.271,9.3-4.789,18.34-9.756,27.856-14.323,35.427-17,71.623-33.9,105.852-52.214,10.485-5.612,21.237-10.89,31.756-16.478,4.011-2.132,9.688-4.284,10.028-8.232l-13.382,7.087L1049.689,286.1l-89.077,42.5-42.341,21.278-19.5,9.724M20.757,321.491v28.272c6.812-2.348,13.061-6.1,19.5-8.99,8.306-3.733,17.156-6.792,25.627-10.316,3.607-1.5,7.353-3.334,11.142-4.537,2.1-.666,5.084-.769,6.552-2.212,2.134-2.1-.983-3.631-3.217-4.521-5.134-2.044-20.556-7.555-11.129-11.617,25.618-11.04,52.84-19.969,78.549-30.852,6.147-2.6,12.752-4.466,18.942-6.981,2.771-1.126,5.66-2.053,6.685-4.379-9.615,2.115-18.224,6.933-27.3,10.048-28.587,9.809-56.212,21.089-84.124,31.866-13.189,5.092-26.515,11.665-41.227,14.221M928.3,273.142l.557.41-.557-.41M504.893,456.7c21.418-4.96,42.762-14.262,62.4-22.167,25.583-10.3,51.243-20.17,76.325-31.141,61.567-26.929,124.649-52.663,183.848-82.306,23.421-11.728,47.606-22.545,71.868-33.322,6.513-2.894,13.081-5.776,19.5-8.779,3.148-1.473,6.73-2.875,8.357-5.437l-17.828,7.506-34.541,15.711L838.6,311.751l-36.235,18.29-79.645,34.894L623,409.657,582.332,425.49l-39,15.727-23.956,8.874L504.893,456.7M790.041,277.766c-5.426.355-11.738,5.866-16.017,8.135-.741.392-4.184,2.506-1.443,2.784,1.85.188,3.878-.946,5.3-1.663,4.2-2.115,9.588-4.569,13.064-7.3,1.1-.869,1.109-2.091-.9-1.96m-177.3,7.444c-3.61-.229-5.855,4.267-9.243,5.12-2.306.58-4.93.182-7.1,1.07-1.95.8-3.031,2.421-5.2,2.975-2.1.539-4.4-.109-6.479.614-2.173.757-2.9,2.729-5.265,3.269-2.1.478-4.391-.244-6.456.4-1.948.612-2.28,2.5-4.258,2.975-1.5.357-3.957-.392-4.956.821-1.941,2.357,8.854,4.276,10.748,4.414,5.925.431,2.936-3.694,6.382-5.046,2.056-.8,4.646-.173,6.769-.91,5.426-1.88,9.783-4.92,14.819-7.12,2.017-.882,4.474-.89,6.435-1.909,1.214-.63,7.722-6.429,3.805-6.678m9.705,44.066c6.006,1.633,10.808-2.39,15.6-4.558,12.446-5.632,24.641-11.27,36.77-17.37a91.565,91.565,0,0,1,11.683-5.122c1.042-.352,3.76-1.044,3.237-2.246-.6-1.382-3.733-.585-4.891-.238-4.267,1.275-7.967,3.449-11.7,5.386-7.566,3.927-16.045,6.778-23.633,10.469-2.022.984-3.22,2.6-5.365,3.523-7.209,3.095-16.1,5.339-21.7,10.156M20.76,381.313c14.2-3.512,28.491-9.623,41.784-14.723,28.456-10.919,56.6-22.31,85.8-32.134,10.548-3.549,20.157-7.914,31.2-10.554,9.473-2.265,17.809-7.78,26.184-11.613,2.412-1.1,6.754-4.125,9.753-3.914,2.817.2.108,4.054-.456,4.921a127.078,127.078,0,0,1-10.3,13.931c-11.762,13.632-23.774,26.651-36.608,39.744-4.323,4.41-8.344,12.515-14.829,15.281-8.254,3.521-23.975,2.557-33.354,3.012-22.31,1.082-44.626,3.491-66.854,5.2l-23.956,1.908c-3.109.244-7.155-.047-8.357,2.458,16.8-.027,34.021-2.462,50.7-3.907,14.451-1.252,29.01-1.469,43.455-2.775,8.329-.753,16.718-1.04,25.07-1.652,2.211-.162,7.041-1.109,8.9.086,1.817,1.171-1.437,3.927-2.239,4.97-3.32,4.319-6.01,9.065-9.016,13.521a305.97,305.97,0,0,1-35.476,43.842c-3.753,3.8-8.731,11.957-15.1,13.414-6.876,1.574-14.467-5.548-18.936-8.472-14.869-9.728-30.806-20.183-47.356-28.3.121,5.473,7.61,7.862,12.814,11.031,8.945,5.447,18.538,10.113,27.665,15.338,4.711,2.7,8.728,5.973,13.549,8.563,5.055,2.717,9.934,10.929,17.8,8.452,4.195-1.321,1.973-4.061,2.905-6.508,1.232-3.235,5.075-6.691,7.893-9.284,6.273-5.77,10.9-12.054,16.454-18.169,6.4-7.056,13.482-13.737,18.827-21.306,6.068-8.593,10.435-20.781,20.028-27.661,3.329-2.388,10.854-2.453,15.271-2.672,9.664-.479,19.407-2,28.97-3.1,28.14-3.241,56.493-6.022,84.682-8.89,14.725-1.5,29.713-4.277,44.569-4.8-3.189,3.567-8.744,5.447-13.371,7.865-10.992,5.743-22.245,11.038-33.984,15.906-13.281,5.507-25.7,12.071-39,17.589-20.7,8.586-42.145,16.272-62.954,24.756-9.68,3.947-19.348,7.891-28.97,11.908-5.68,2.372-11.961,4.2-16.156,8.022,17.168-3.658,33.312-12.349,49.026-18.513,21.831-8.565,44.156-16.637,65.74-25.515,13.04-5.364,25.38-11.61,38.441-16.973,12.712-5.22,24.9-11.157,36.77-17.376,4.293-2.249,10.791-4.105,12.257-8.077h-3.9l3.343-2.458c-9.656-10.052-26.919-15.609-40.67-21.9-15.532-7.111-29.879-16.209-43.455-25.2-6.484-4.292-13.639-8.1-20.613-11.95-2.617-1.444-5.96-3.711-9.471-3.586-3.964.141-8.947,2.587-12.257,4.072-7.784,3.491-15.3,7.76-23.4,10.81-29.154,10.985-59.875,19.868-88.581,31.6q-30.068,12.284-60.726,23.677c-5.575,2.082-18.713,4.975-19.5,10.1m631.212-79.079c-5.66-1.387-10.446,2.558-15.042,4.532-1.281.55-4.953,1.59-4.635,3.04.379,1.762,4.747.161,5.749-.236,4.641-1.841,11.042-4.015,13.928-7.336M331.631,363.284c-12.583,2.245-25.683,3-38.441,4.477-23.941,2.767-47.829,5.77-71.868,8.057-18.949,1.8-38.86,5.781-57.94,5.9,1.912-7.53,11.35-14.13,17.31-20.079a388.24,388.24,0,0,0,33.042-37.284c3.325-4.3,7.134-8.78,9.207-13.521.751-1.719,1.5-4.651,4.562-4.858,2.857-.192,5.7,2.165,7.746,3.34,6.21,3.573,12.389,7.046,18.385,10.826,12.144,7.655,23.8,16.126,37.327,22.493,8.215,3.868,16.477,7.662,24.652,11.536,5.9,2.795,11.576,4.92,16.018,9.11m200-45.071c-2.656-.17-6.22-1.25-8.689-.173-1.587.692-1.962,2.35-3.792,2.767-5.392,1.23-10.471-1.563-7.575,4.781-1.542-.228-2.971-.558-4.464-.917-1.844-.442-8.074-.225-4.674,2.1,4.587,3.136,19.768,5.735,16.38-2,5.4-.252,13.171-1.429,17.408-4.14,1.479-.946,1.441-2.606,3.014-3.487,2.277-1.276,4.942-.826,6.877-2.617-5.889-1.046-15.477-2.971-14.485,3.688m-4.457,43.022v.819c7.3,2.03,17.29-4.956,22.876-8.057,16.013-8.886,33.426-16.861,50.111-25.08,5.309-2.616,17.109-6.892,18.936-11.524-9.928.173-19.416,8.468-27.3,12.412-15.293,7.651-30.635,15.37-46.241,22.65-6.151,2.869-11.816,6.41-18.385,8.779M56.972,330.915v.41l-2.786.41,2.786-.819m-21.17.41.557.819H35.245l.557-.819M465.9,343.617c-9.057-1.587-10.074.889-5.571,6.146-5.254-.314-22.331-4.181-14.485,4.1-5.268-1.119-16.6-2.261-9.471,4.1-8.169-1.08-11.205-.289-7.243,5.736-2.823-.577-5.609-1.17-8.357-1.921a15.912,15.912,0,0,0-5.014-.793,10.039,10.039,0,0,0-3.334.809c-11.654,4.754,16.7,13.83,13.362,4.773,5.209.751,12.415.188,8.914-4.917,4.941-.027,8.361-.833,7.8-4.917,4.727,1.081,15.388-.219,7.8-4.507v-.41c4.694.349,20.152,3.389,15.042-4.1,5.6.545,10.213.416,7.8-4.507,4.543.429,9.5.1,11.876-3.3.793-1.131.29-3.453,1.928-4.132,3.437-1.424,8.233,1.028,12.381-.765-3.34-1.921-15.043-5.266-18.38-2.229-2.153,1.959.568,5.5-2.487,6.951-4.705,2.227-12-2.707-12.56,3.882m52.369,4.507c-4.231,1.067-2.8,3.993-5.875,5.74-4.358,2.475-13.355-.893-14.6,4.915a17.658,17.658,0,0,0-.138,3.686c-5.149-.4-17.678-3.393-13.928,3.688-7.212-.421-15.4-1.538-10.028,5.736-5.293.339-15.642-2.759-11.7,4.1-6.538-.56-9.7-.6-9.471,4.917-4.249-1.4-8.749-3.432-13.371-2.049v.41c4.139,1.762,24.643,9.182,20.056,0l.557-.41c4.669.769,9.69.813,9.471-3.688,6.878.235,11.919-.175,8.914-6.146,4.617.338,11.776,1.077,11.7-3.688,8.329-.77,13.36.285,13.371-7.375,8.63-.034,19.977-3.074,21.728-10.243,6.861-.061,13.436-3.568,19.638-5.423,2.572-.769,5.616.093,7.985-1.217,2.64-1.46.968-4.4,4.23-5.482,5.186-1.722,13.091.225,16.059-4.267-6.082.13-16.89-.282-22.208,1.935-2.761,1.151-1.712,3.177-3.559,4.547-1.481,1.1-4.567.321-6.442.8-2.127.537-3.121,2.209-5.244,2.739-5.067,1.265-16.4,1.962-17.144,6.782m571.6-15.57c-8.969,2.575-21,4.162-26.563,10.661-2.657,3.1-4.229,14.92,4.279,13.1,1.393,8.359,12.513,13.241,22.842,15.57-.279-6.084-26.859-11.951-12.256-18.848v-1.229c-5.315-.615-7.571,1.662-11.142,4.1-.184-2.85-1.292-5.8-.111-8.6,2.836-6.771,15.17-9.806,23.51-11.473l-.557-3.278M590.689,344.436c6.607,1.8,14.145-2.783,19.5-5.267,1.437-.666,5.5-2.092,5.192-3.673-.406-2.1-5.053-.522-6.307-.007-5.66,2.308-14.552,5.094-18.385,8.95M44.716,335.015v.41l-2.228-.41h2.228m1045.708,18.848v-6.556c-7.075,1.116-5.6,4.516,0,6.556M560.05,377.218c5.576,1.55,10.185-2.177,14.506-4.441,11.177-5.857,22.531-11.277,33.963-16.829,3.376-1.639,7-2.915,10.563-4.312,1.02-.4,3.215-1.1,2.986-2.19-.279-1.374-3.354-1.228-4.635-1.053-4.078.555-7.772,3.043-11.142,4.7-10.992,5.4-22.1,10.5-32.87,16.209-4.444,2.355-10.313,4.508-13.371,7.918m-37.884.819c5.224,3.5,12.483-2.764,16.713-5.056a317.916,317.916,0,0,1,32.87-15.216c2.724-1.093,11.215-3.157,11.978-5.557.752-2.385-4.7-.995-5.85-.585-6.3,2.252-12.366,4.9-18.385,7.523-5.32,2.318-10.428,4.85-15.6,7.336-7.5,3.6-14.578,7.573-21.728,11.555m-.557-9.834c-5.6-1.568-9.75,1.49-13.928,3.956-8.306,4.9-18.047,8.426-26.68,13.048-1.774.95-12.072,5.372-10.717,7.213,1.832,2.49,10.771-3.046,12.327-3.948,9.1-5.278,19.57-9.036,28.97-13.992,3.51-1.851,8.317-3.22,10.028-6.278m154.321,108.17h.557c12.513-6.651,26.976-11.569,40.112-17.552,33.561-15.283,67.015-30.377,99.167-47.26,13.672-7.178,27.566-14.112,41.227-21.293,4.474-2.353,11.733-7.8,17.271-8.249,3.694-.3,7.649,3.483,10.089,5.141,8.251,5.6,16.986,10.724,25.566,16.053,11.766,7.311,24.53,13.337,36.77,20.155,17.454,9.723,34.263,19.827,52.369,28.961,8.334,4.2,16.964,8.074,25.627,11.9,3.159,1.393,8.9,3.432,10.279,6.118,1.2,2.344-2.017,3.949-4.162,5.169-4.284,2.432-13.22,5.989-15.031,9.873l-3.9,2.458c8.178-2.729,15.17-7.814,22.842-11.289,2.223-1.005,6.68-2.287,6.184-4.695-.579-2.8-6.223-6.069-9.07-7.739-9.594-5.626-21-9.635-31.1-14.771-17.622-8.959-34.173-18.648-51.255-28.13-9.989-5.545-20.418-10.454-29.99-16.417-9.376-5.843-18.819-11.53-27.95-17.572-4.3-2.846-8.424-6.974-13.939-8.57-7-2.028-11.064,1.517-16.156,4.357-10.006,5.577-20.268,10.756-30.63,15.97-19.839,9.979-38.5,21.1-58.5,30.922-18.034,8.857-37.132,16.408-55.154,25.293-9.995,4.927-20.853,8.943-30.641,14.071-3.788,1.986-8.63,3.863-10.585,7.1M483.163,398.525c8.646,1.008,19.23-7.006,26.184-10.169,1.658-.754,8.47-2.344,7.68-4.345-1.109-2.806-7.888.521-9.351,1.247-7.635,3.79-19.609,7.368-24.513,13.268m18.385,4.917c2.626,3.665,9.441-.054,12.814-1.467,9.6-4.016,18.965-8.347,28.413-12.543,3.734-1.658,8.741-2.551,10.585-5.657-7.882-.3-15.307,3.389-21.727,6.507-9.639,4.68-19.516,9.679-30.084,13.16m-193.319,9.014c-1.134-2.1-4.734-1.911-7.2-.964-3.414,1.311-2.237,4.788-5.694,5.967-2.553.87-5.607.006-8.275.589-2.576.563-4.118,2.451-6.685,2.947-1.557.3-4.3-.621-5.465.431-1.632,1.473,1.806,2.6,3.239,2.757,4.155.468,7.7.238,10.9-1.826,3.15-2.033,6.6-1.35,10.263-2.423,4.685-1.372,4.383-5.639,8.92-7.478M334.413,452.2l2.786-1.639c5.06-.322,10.517-3.644,15.042-5.351,13.6-5.135,27.333-11.376,40.112-17.566,4.308-2.086,9.075-3.625,13.339-5.765.936-.47,3.618-1.778,2.536-2.855-1.06-1.055-3.646.027-4.733.473-4.577,1.888-9.053,4.139-13.37,6.332-9.162,4.656-19.154,9.549-28.97,13.392-8.5,3.327-20.749,7.291-26.742,12.98m-116.437-7.375c4.664,6.281,13.046,1.428,18.427-.265,2.593-.815,5.748-.361,8.008-1.785,2.18-1.373,2.077-3.923,4.9-4.865,2.441-.816,5.138.086,7.666-.28,2.421-.351,4.1-1.718,6.128-2.63,3.154-1.417,13.494-3.94,12.884-7.687-.389-2.4-9.116-1.11-10.7-.061-1.384.919-1.685,2.425-3.053,3.386-2.128,1.5-6.912,2.932-9.721,3.566-3.015.681-6.508-.449-9.333.7-3.256,1.32-1.7,4.7-4.766,6.2-3,1.48-6.723-.586-9.975-.114-3.683.535-6.607,3.076-10.467,3.834m871.888-4.917c-1.855,1.017-3.766,1.979-5.571,3.045-1.309.772-2.563,1.587-3.894,2.331-.93.516-4.93,2.062-3.978,3.266,1.1,1.382,5.036-.358,6.2-.841,4.139-1.718,8.73-3.887,7.243-7.8m-731.5,13.521c5.968-.465,10.823-3.516,16.156-5.324,2.778-.942,5.664-1.389,6.685-3.69-3.894.713-6.524,2.678-10.033,3.974-4.525,1.671-9.678,1.768-12.809,5.041m-222.289-.819.557.41-.557-.41m65.739.858c-2.932.2-8.493,1.445-10.752,2.859-1.9,1.189-2.359,3.434-4.925,4.087-3.391.863-6.367-1.761-9.689.256-5.086,3.089-2.225,7.871,4.186,7.924,3.061.027,4.993-2.028,7.274-3.216,2.007-1.045,4.491-1.2,6.489-2.2,2.149-1.076,3.586-2.751,5.769-3.826,1.972-.971,5.727-1.557,6.795-3.259,1.288-2.052-3.353-2.746-5.147-2.624m-71.309,2.01,5.014-1.639a5.938,5.938,0,0,0-5.014,1.639m-2.786,0,.557.41-.557-.41m366.025,5.327,3.9-1.639-3.9,1.639m-184.405,4.1c2.017.027,3.113-.231,3.9-1.639l-3.9,1.639m513.1,8.6c6.156-1.955,10.58-5.218,17.271-6.715,14.1-3.156,31.215-.767,42.9,5.932,4.4,2.523,9.989,6.614,10.061,11.027.067,4.437-4.735,7.572-6.719,11.473,14.167-2.389,14.39-13.894,6.028-20.478-12.14-9.555-35.388-13.477-52.269-10.326-6.886,1.285-16.045,3.087-17.271,9.088m-667.57-3.562c-1.924.67-2.286,2.668-3.183,3.921-1.733,2.422-5.793,3.911-6.834,6.6-.81,2.09,2.1,3.385,4.593,2.749,3.885-.983,9.748-5.035,10.588-8.076.547-1.982-1.266-6.55-5.165-5.193m189.008,3.562h.557l.557-1.229,1.671.819,3.343-2.868-6.128,3.278m-118.665-1.229c-8.492,1-16.215,6.724-23.4,9.842-3.016,1.307-6.416.729-9.471,1.893-5.884,2.241-10.891,5.88-16.713,8.018-1.931.713-4.132.562-6.128,1.115-3.118.869-16.681,5.24-14.282,8.068,4.695,5.54,14.662-1.143,19.3-3.04,9.357-3.827,17.486-8.928,26.99-12.546,9.17-3.491,20.081-4.761,23.707-13.349m443.464,6.965c2.529-.437,3.922-1.116,5.014-2.868l-5.014,2.868m157.106,12.7c-3.025-3.4-6.424-6.818-6.552-11.063-.02-.725.791-3.624-.969-3.638-2.752-.02-2.457,3.671-2.184,4.867.836,3.606,4.078,9.535,9.7,9.834m35.655-14.071c-3.46.133-14.452,1.066-16.418,3.3-1.2,1.356.535,2.569,2.011,3.229,3.649,1.635,8.864,4.261,13.287,4.134,7.025-.2,9.789-11,1.12-10.666m-730.375,2.672c-6.687,1.086-4.318,7.556,1.679,6.474,7.209-1.307,5.294-7.6-1.679-6.474m518.115,7.3c2.284,4.327,6.323-.783,0,0m235.844,7.24.19.271-.19-.271M389.173,554.922c-2.342.869-1.62,4.261,1.3,3.339a1.8,1.8,0,1,0-1.3-3.339m678.958,8.727c.034,1.438-3.181,3.9-5.014,4.1,3.744,1.516,12.162-2.487,13.928-4.917h.557l1.114.819V562.01l2.786-1.229c-5.125-1.032-8.775,1.684-13.371,2.868m9.471-2.868-.557.41.557-.41m-711.994,7.375,10.028-.82c-2.345-4.347-8.659-3.2-10.028.82m702.523-1.229v.41h-1.672l1.672-.41m-6.685.819.557.41-.557-.41m-1.114,2.049,2.786-.41-2.786.41m-2.228-.41-2.228,1.229v.41l1.114.819-2.228-.41.557,1.229-2.228-.41,6.128-.41,1.672-1.639-1.672-.82H1058.1m4.457.82.557.41-.557-.41m-4.457.41-.557.41.557-.41m-705.865,2.458,1.671-1.229-1.671,1.229m698.068.41.557.819h.557l.557-.819Z" transform="translate(0 122.411)" fill="rgba(206,206,206,0.26)"/></g></svg>