<?xml version="1.0" encoding="UTF-8" standalone="no"?>
<!-- Created with Inkscape (http://www.inkscape.org/) -->

<svg
   width="137.84991mm"
   height="142.43034mm"
   viewBox="0 0 137.84991 142.43034"
   version="1.1"
   id="svg17809"
   inkscape:version="1.1 (c68e22c387, 2021-05-23)"
   sodipodi:docname="database.svg"
   xmlns:inkscape="http://www.inkscape.org/namespaces/inkscape"
   xmlns:sodipodi="http://sodipodi.sourceforge.net/DTD/sodipodi-0.dtd"
   xmlns="http://www.w3.org/2000/svg"
   xmlns:svg="http://www.w3.org/2000/svg">
  <sodipodi:namedview
     id="namedview17811"
     pagecolor="#ffffff"
     bordercolor="#666666"
     borderopacity="1.0"
     inkscape:pageshadow="2"
     inkscape:pageopacity="0.0"
     inkscape:pagecheckerboard="0"
     inkscape:document-units="mm"
     showgrid="false"
     inkscape:zoom="0.67081229"
     inkscape:cx="168.45249"
     inkscape:cy="398.77027"
     inkscape:window-width="1680"
     inkscape:window-height="987"
     inkscape:window-x="-8"
     inkscape:window-y="-8"
     inkscape:window-maximized="1"
     inkscape:current-layer="layer1" />
  <defs
     id="defs17806" />
  <g
     inkscape:label="Layer 1"
     inkscape:groupmode="layer"
     id="layer1"
     transform="translate(-60.44556,-43.167291)">
    <path
       style="fill:#cecece;fill-opacity:1;stroke-width:0.459443"
       d="m 160.94391,184.78162 c -0.40616,-0.44883 -0.88046,-1.74101 -1.05399,-2.87153 -0.43862,-2.85771 -1.33806,-4.44094 -3.01576,-5.30852 -1.89174,-0.97826 -3.62535,-0.59275 -6.35927,1.41412 -1.20567,0.88505 -2.68685,1.60919 -3.29151,1.60919 -1.47104,0 -7.27722,-5.79716 -7.27722,-7.2659 0,-0.57218 0.72362,-2.11485 1.60805,-3.42815 1.77895,-2.64162 2.00601,-4.34129 0.84295,-6.3102 -0.92783,-1.57068 -2.12548,-2.1566 -5.25741,-2.57207 -3.61214,-0.47916 -4.08525,-1.19518 -4.08525,-6.18272 0,-2.29087 0.20239,-4.54339 0.44977,-5.00561 0.30232,-0.56489 1.57577,-1.09092 3.88428,-1.60452 3.07886,-0.68499 3.53757,-0.93086 4.42979,-2.3745 1.30236,-2.10727 0.99495,-3.97306 -1.14548,-6.95239 -0.90507,-1.2598 -1.6456,-2.71956 -1.6456,-3.24389 0,-1.08662 5.42077,-6.74006 6.91843,-7.21538 0.68133,-0.21626 1.69481,0.18162 3.47732,1.36515 3.50953,2.3302 4.52178,2.64976 6.61118,2.08714 1.4245,-0.38359 1.9277,-0.83969 2.6673,-2.41773 0.50137,-1.06972 1.0435,-2.89911 1.20473,-4.06527 0.48386,-3.49976 0.95357,-3.8329 5.6166,-3.98352 5.58846,-0.18054 6.16636,0.17707 7.04383,4.35877 0.75773,3.61108 1.72158,5.00469 3.86789,5.59249 1.61697,0.44282 3.2289,-0.0823 5.95939,-1.94149 0.98286,-0.66922 2.11514,-1.21677 2.51614,-1.21677 0.96705,0 7.41265,6.42803 7.41265,7.39244 0,0.41443 -0.82651,1.97022 -1.83669,3.45733 -2.07079,3.04846 -2.29801,4.70183 -0.94996,6.91264 0.94895,1.55627 1.15165,1.65169 5.22451,2.45938 3.25046,0.6446 3.5349,1.18256 3.5349,6.68557 0,4.68261 -0.51692,5.41953 -4.13859,5.89996 -3.07808,0.40832 -4.72161,1.25331 -5.42028,2.78671 -0.92191,2.02341 -0.63508,3.6897 1.05917,6.15269 0.88442,1.28574 1.60805,2.81341 1.60805,3.39485 0,0.69525 -1.06558,2.11455 -3.11278,4.14606 -3.59234,3.56483 -4.5298,3.78743 -7.25772,1.72338 -2.08293,-1.57602 -4.20904,-1.78692 -6.19397,-0.6144 -1.39292,0.82283 -2.02538,2.05346 -2.48572,4.8367 -0.46249,2.79621 -1.09685,3.11601 -6.18081,3.11601 -3.71825,0 -4.6174,-0.1403 -5.22892,-0.81602 z m 6.98258,-6.10419 c 0.6701,-2.23659 3.15408,-5.11092 5.29469,-6.1267 2.18517,-1.03694 6.30375,-0.94764 8.65347,0.18764 1.83107,0.88468 1.94726,0.88934 2.7273,0.10922 0.78006,-0.78006 0.76615,-0.91081 -0.32667,-3.0694 -2.55807,-5.05286 -0.79645,-10.9028 3.99467,-13.26535 1.34459,-0.66302 3.01328,-1.32024 3.70818,-1.46048 0.9754,-0.19686 1.26348,-0.51816 1.26348,-1.40927 0,-0.63484 -0.25844,-1.22754 -0.5743,-1.31711 -0.31587,-0.0896 -1.40131,-0.39223 -2.4121,-0.67262 -3.59406,-0.99698 -6.17478,-4.30147 -6.54461,-8.38004 -0.25889,-2.85521 0.65479,-6.22056 1.98967,-7.3284 0.59261,-0.49182 0.55568,-0.69723 -0.2865,-1.59369 l -0.96677,-1.02909 -2.14978,1.20365 c -5.57469,3.12123 -12.81659,-0.0709 -14.31307,-6.30883 -0.50745,-2.11532 -0.68736,-2.34702 -1.82243,-2.34702 -1.14946,0 -1.30804,0.21739 -1.81672,2.49039 -1.04087,4.65109 -5.36394,8.09597 -10.12309,8.06671 -1.75445,-0.0104 -5.22645,-1.39578 -6.58803,-2.62799 -0.76974,-0.69661 -0.89569,-0.68261 -1.77576,0.19746 l -0.94725,0.94726 1.27255,1.92295 c 2.5219,3.81086 1.9071,9.1912 -1.4318,12.5301 -1.3718,1.37179 -2.48867,1.9106 -6.09971,2.94267 -0.36152,0.10332 -0.54646,0.68037 -0.45944,1.43359 0.12051,1.0434 0.42273,1.30679 1.75369,1.52852 6.63564,1.10544 10.21642,8.37725 7.12854,14.47659 -1.12022,2.21273 -1.12526,2.27082 -0.27108,3.12499 0.85417,0.85417 0.8946,0.85345 2.17518,-0.0391 3.24394,-2.26074 6.67779,-2.52121 10.18663,-0.77268 2.84197,1.41622 4.40376,3.3019 5.1998,6.27817 0.50684,1.89507 0.73675,2.17404 1.79177,2.17404 1.01705,0 1.29961,-0.29802 1.76949,-1.86635 z m -5.56301,-13.45788 c -10.01455,-2.79839 -12.53719,-15.73148 -4.28502,-21.96846 6.76411,-5.11233 16.4487,-2.24763 19.39225,5.73622 0.93675,2.54076 0.72467,6.70967 -0.47174,9.27344 -1.17289,2.51338 -4.1499,5.47996 -6.47344,6.4508 -2.2979,0.96013 -5.77057,1.17627 -8.16205,0.508 z m 5.18555,-4.89129 c 1.37477,0 4.48791,-3.10474 5.07373,-5.06004 2.03652,-6.79729 -5.82405,-12.2515 -11.4607,-7.9522 -3.68882,2.81358 -3.75454,9.01845 -0.12294,11.6044 1.41386,1.00674 4.1264,1.86927 5.01803,1.59562 0.33653,-0.10332 1.00787,-0.18778 1.49188,-0.18778 z M 102.18744,179.3828 C 94.7602,178.36976 88.10579,176.87756 81.81228,174.81386 70.67162,171.16073 64.77092,167.27221 61.72871,161.57894 l -1.03657,-1.93986 -0.12329,-47.01664 -0.12329,-47.01666 1.22448,-2.72847 c 2.62257,-5.84388 11.79095,-11.79438 23.26089,-15.09687 17.05478,-4.9105 43.10998,-6.02895 63.74329,-2.73626 18.58242,2.96542 31.76086,9.40861 35.80774,17.50712 l 1.40861,2.8189 v 25.32351 c 0,27.86872 0.0502,27.36574 -2.72644,27.36574 -2.07164,0 -2.53368,-1.0326 -2.78688,-6.22806 l -0.22972,-4.71387 -3.38693,2.23233 c -7.89558,5.20401 -20.16694,8.784 -36.35494,10.60606 -7.91819,0.89123 -28.08628,0.76453 -36.29603,-0.22802 -15.62515,-1.88908 -27.91582,-5.66071 -35.27995,-10.82636 -1.46524,-1.0278 -2.75846,-1.86895 -2.87382,-1.8692 -0.28848,-4.7e-4 -0.0424,19.62705 0.26935,21.47815 0.38079,2.26156 4.01569,5.59037 8.77366,8.03485 9.46812,4.8644 22.60667,7.7464 39.67797,8.70356 9.98519,0.55988 11.02663,0.83416 11.02663,2.90411 0,0.5534 -0.37809,1.34836 -0.8402,1.76655 -1.01331,0.91704 -5.99855,1.01161 -15.05873,0.28569 C 91.31063,148.72347 77.8006,144.9331 68.38789,138.58541 l -2.41208,-1.62664 -0.0616,7.20515 c -0.10384,12.14171 0.0446,14.38238 1.06246,16.04936 3.90113,6.38881 20.39839,12.50701 38.74098,14.36758 2.77964,0.28195 5.51338,0.69817 6.07495,0.92492 1.41454,0.57116 1.84025,2.52865 0.79995,3.67816 -0.9749,1.07726 -3.59747,1.12739 -10.40507,0.19886 z m 38.67759,-64.82851 c 18.74091,-2.07889 34.15664,-7.77448 38.32697,-14.16054 l 1.18518,-1.81486 V 87.87393 c 0,-5.88773 -0.10297,-10.70496 -0.22866,-10.70496 -0.12572,0 -1.2372,0.72458 -2.4699,1.61018 -5.73283,4.11862 -16.65577,8.00184 -27.62471,9.82087 -9.34158,1.54915 -15.21297,1.98216 -26.87744,1.98216 -11.66449,0 -17.53587,-0.43301 -26.87745,-1.98216 -11.2473,-1.86519 -22.69452,-6.01748 -28.1449,-10.20909 -1.20247,-0.92478 -2.23622,-1.68166 -2.2972,-1.68198 -0.13024,-4.5e-4 0.35325,22.683584 0.48736,22.868154 0.05,0.06876 0.9464,1.053206 1.99198,2.187546 9.59035,10.40431 42.19753,16.15421 72.52877,12.78964 z m 3.21612,-30.24973 c 15.63679,-2.44005 27.28966,-6.47198 32.84966,-11.36609 6.25964,-5.50996 4.1382,-10.82145 -6.43166,-16.10304 -15.33424,-7.66226 -45.09031,-10.6335 -69.78545,-6.96826 -20.25002,3.00548 -34.73796,10.02313 -34.73796,16.82634 0,2.36985 0.90308,4.00627 3.44638,6.24496 6.8,5.98561 20.8109,10.17196 40.88992,12.21761 4.77561,0.48654 29.12976,-0.12763 33.76911,-0.85152 z"
       id="path14318"
       sodipodi:nodetypes="sssssssssssssssssssssssssssssssssssssssscsssssssssssscsssscsscsssssssssssccssssssssssssssscccsssscssscsssscssssssscscsssssscssssssscssscssssssc" />
  </g>
</svg>
