<?xml version="1.0" encoding="UTF-8" standalone="no"?>
<!-- Created with Inkscape (http://www.inkscape.org/) -->

<svg
   width="88.370796mm"
   height="165.68806mm"
   viewBox="0 0 88.370796 165.68806"
   version="1.1"
   id="svg18062"
   inkscape:version="1.1 (c68e22c387, 2021-05-23)"
   sodipodi:docname="easel.svg"
   xmlns:inkscape="http://www.inkscape.org/namespaces/inkscape"
   xmlns:sodipodi="http://sodipodi.sourceforge.net/DTD/sodipodi-0.dtd"
   xmlns="http://www.w3.org/2000/svg"
   xmlns:svg="http://www.w3.org/2000/svg">
  <sodipodi:namedview
     id="namedview18064"
     pagecolor="#ffffff"
     bordercolor="#666666"
     borderopacity="1.0"
     inkscape:pageshadow="2"
     inkscape:pageopacity="0.0"
     inkscape:pagecheckerboard="0"
     inkscape:document-units="mm"
     showgrid="false"
     inkscape:zoom="0.67081229"
     inkscape:cx="71.55504"
     inkscape:cy="157.27201"
     inkscape:window-width="1680"
     inkscape:window-height="987"
     inkscape:window-x="-8"
     inkscape:window-y="-8"
     inkscape:window-maximized="1"
     inkscape:current-layer="layer1" />
  <defs
     id="defs18059" />
  <g
     inkscape:label="Layer 1"
     inkscape:groupmode="layer"
     id="layer1"
     transform="translate(-85.97396,-106.87299)">
    <path
       style="fill:#cecece;fill-opacity:1;stroke-width:0.264583"
       d="m 96.31639,272.24413 c -0.78696,-0.31464 -1.83348,-1.41788 -2.16024,-2.27732 -0.47188,-1.24115 -0.2271,-2.66626 1.99065,-11.58935 1.2297,-4.94771 3.55772,-14.35365 5.17338,-20.90208 1.61565,-6.54844 3.7648,-15.2247 4.77588,-19.28058 1.01107,-4.05588 1.83832,-7.53846 1.83832,-7.73906 0,-0.29654 -0.90286,-0.36507 -4.82865,-0.36648 -5.44562,-0.002 -5.83248,-0.11449 -6.99477,-2.03449 -0.86566,-1.42997 -0.81323,-2.89825 0.151,-4.22933 1.30839,-1.80619 1.86005,-1.93652 8.19642,-1.93652 h 5.57216 l 0.41357,-1.38907 c 0.22747,-0.76398 0.48542,-1.83554 0.57324,-2.38125 l 0.15966,-0.99218 H 98.57548 85.97396 v -41.90814 c 0,-35.23829 0.0577,-41.93029 0.36244,-42.04724 0.19935,-0.0765 9.17677,-0.119 19.94983,-0.0945 l 19.58738,0.0446 0.0989,-1.74899 c 0.0799,-1.41252 0.24026,-1.9343 0.83364,-2.71226 1.48013,-1.94055 3.78349,-2.34556 5.65001,-0.99346 1.32762,0.96172 1.93646,2.2316 1.93673,4.03949 l 2.2e-4,1.41522 19.6451,-9.5e-4 c 10.8048,-5.3e-4 19.79392,0.042 19.97583,0.0944 0.26278,0.0758 0.33072,8.70432 0.33072,42.00357 v 41.90813 h -12.30312 c -11.54668,0 -12.30219,0.0285 -12.28787,0.46302 0.008,0.25466 0.23219,1.29646 0.49735,2.3151 l 0.4821,1.85208 6.18338,0.1323 c 5.57681,0.11931 6.26645,0.18394 7.03024,0.65881 2.47928,1.54145 2.5396,5.24853 0.11223,6.89797 -0.92573,0.62905 -1.07852,0.6453 -6.06862,0.6453 h -5.11898 l 0.17749,0.8599 c 0.23173,1.12262 6.53286,26.7206 12.44987,50.57686 0.79068,3.18788 1.4376,6.25756 1.4376,6.82152 0,3.86197 -4.50034,5.66566 -7.03478,2.81946 -0.99344,-1.11563 0.7071,5.44655 -13.25665,-51.15586 -1.2565,-5.09323 -2.39874,-9.40925 -2.53833,-9.59115 -0.1863,-0.24279 -1.51155,-0.33073 -4.98389,-0.33073 h -4.7301 v 29.51158 c 0,29.00397 -0.009,29.52945 -0.52995,30.55037 -1.50593,2.95187 -5.11087,3.19317 -7.14687,0.47838 l -0.65755,-0.87679 -0.0695,-29.83177 -0.0695,-29.83177 h -4.60904 c -4.16064,0 -4.62244,0.0451 -4.74689,0.46302 -0.0758,0.25466 -0.92454,3.67771 -1.88602,7.60677 -1.77004,7.23321 -5.7793,23.46806 -10.32163,41.79579 -1.50389,6.06799 -2.6861,10.31102 -2.98563,10.71562 -1.21346,1.63916 -3.27883,2.28158 -5.05375,1.57193 z m 29.60965,-72.73646 v -2.38125 h -3.01022 -3.01022 l -0.56165,2.23938 c -0.30891,1.23166 -0.56166,2.30322 -0.56166,2.38125 0,0.078 1.60735,0.14187 3.57188,0.14187 h 3.57187 z m 16.13312,2.18281 c -0.008,-0.25384 -0.46872,-2.28571 -0.80943,-3.57188 l -0.26283,-0.99218 h -3.29709 -3.2971 v 2.38125 2.38125 h 3.83646 c 2.11005,0 3.83355,-0.0893 3.82999,-0.19844 z m 26.66418,-46.56754 0.0671,-36.31495 -38.56396,0.067 -38.56396,0.067 -0.068,35.98333 c -0.0374,19.79084 -0.0112,36.13257 0.0582,36.31496 0.1005,0.26408 7.95318,0.31795 38.56489,0.26457 l 38.43869,-0.067 z"
       id="path14776" />
  </g>
</svg>
