<?xml version="1.0" encoding="UTF-8" standalone="no"?>
<!-- Created with Inkscape (http://www.inkscape.org/) -->

<svg
   width="132.88048mm"
   height="161.72298mm"
   viewBox="0 0 132.88048 161.72298"
   version="1.1"
   id="svg17891"
   inkscape:version="1.1 (c68e22c387, 2021-05-23)"
   sodipodi:docname="ligthbulb.svg"
   xmlns:inkscape="http://www.inkscape.org/namespaces/inkscape"
   xmlns:sodipodi="http://sodipodi.sourceforge.net/DTD/sodipodi-0.dtd"
   xmlns="http://www.w3.org/2000/svg"
   xmlns:svg="http://www.w3.org/2000/svg">
  <sodipodi:namedview
     id="namedview17893"
     pagecolor="#ffffff"
     bordercolor="#666666"
     borderopacity="1.0"
     inkscape:pageshadow="2"
     inkscape:pageopacity="0.0"
     inkscape:pagecheckerboard="0"
     inkscape:document-units="mm"
     showgrid="false"
     inkscape:zoom="0.67081229"
     inkscape:cx="237.02607"
     inkscape:cy="649.21291"
     inkscape:window-width="1680"
     inkscape:window-height="987"
     inkscape:window-x="-8"
     inkscape:window-y="-8"
     inkscape:window-maximized="1"
     inkscape:current-layer="layer1" />
  <defs
     id="defs17888" />
  <g
     inkscape:label="Layer 1"
     inkscape:groupmode="layer"
     id="layer1"
     transform="translate(-42.025896,23.275835)">
    <path
       style="fill:#cecece;fill-opacity:1;stroke-width:0.0363351"
       d="m 107.85307,138.43168 c -1.18862,-0.0987 -2.32381,-0.46065 -3.34166,-1.06561 -1.35038,-0.80261 -2.48446,-2.0767 -3.12793,-3.5141 -0.0982,-0.21939 -0.17857,-0.40728 -0.17857,-0.41754 0,-0.0103 3.27017,-0.0187 7.26703,-0.0187 3.99687,0 7.26703,0.009 7.26703,0.0198 0,0.0715 -0.38812,0.86731 -0.5804,1.1901 -1.23919,2.08028 -3.2974,3.44654 -5.66924,3.76331 -0.40195,0.0537 -1.24032,0.0756 -1.63626,0.0427 z m -18.529751,-8.21107 c -1.64634,-0.34773 -2.80357,-1.8715 -2.71444,-3.57422 0.0428,-0.81753 0.31947,-1.4977 0.87124,-2.14181 0.38467,-0.44904 1.10598,-0.8873 1.7342,-1.05368 l 0.30884,-0.0818 h 18.948781 18.94878 l 0.30885,0.082 c 1.22407,0.32487 2.191,1.28696 2.51039,2.49783 0.1175,0.44545 0.1331,1.10082 0.0373,1.56491 -0.28332,1.37193 -1.32882,2.43088 -2.67418,2.70855 -0.31713,0.0655 -0.93258,0.0676 -19.14926,0.0656 -17.962831,-0.002 -18.835701,-0.005 -19.130461,-0.0673 z m 0.27252,-9.76608 c -0.55564,-0.0779 -1.24984,-0.3807 -1.70228,-0.74248 -0.54493,-0.43573 -1.01225,-1.15521 -1.18832,-1.82955 -0.16559,-0.63422 -0.12771,-1.43038 0.0982,-2.06427 0.39881,-1.11889 1.40482,-1.98673 2.57493,-2.22126 0.26412,-0.0529 1.98593,-0.0573 19.220731,-0.0482 l 18.93061,0.01 0.27007,0.0837 c 1.25121,0.38788 2.14469,1.31481 2.45853,2.55058 0.10246,0.40344 0.0943,1.28693 -0.0157,1.68958 -0.33245,1.21764 -1.26176,2.14563 -2.50277,2.49922 l -0.28282,0.0806 -18.87611,0.004 c -10.381871,0.002 -18.925171,-0.003 -18.985121,-0.0115 z m -0.0739,-9.83712 c -0.71335,-0.11089 -1.33317,-0.42726 -1.88222,-0.96072 -1.34944,-1.31116 -1.39371,-3.46284 -0.0997,-4.84463 0.45528,-0.48614 1.01545,-0.82257 1.67197,-1.00415 l 0.34749,-0.0961 h 18.912441 18.91245 l 0.34958,0.0966 c 0.64726,0.17892 1.2021,0.50862 1.64901,0.97985 0.61471,0.64816 0.91109,1.34289 0.95135,2.23 0.0468,1.03225 -0.27991,1.88036 -1.00215,2.6011 -0.4025,0.40166 -0.80177,0.66358 -1.26967,0.83288 -0.64514,0.23344 0.80787,0.21761 -19.6269,0.2139 -14.694181,-0.003 -18.683331,-0.013 -18.913671,-0.0488 z m 1.0186,-10.21141 c -0.82512,-0.15397 -1.59569,-0.627853 -2.09722,-1.289743 -0.22937,-0.3027 -0.51493,-0.88112 -0.61931,-1.25442 l -0.0813,-0.29068 -0.01,-7.85098 -0.01,-7.85098 -0.12632,-0.0602 c -0.21938,-0.10462 -1.7562,-1.03777 -2.36167,-1.43401 -4.17504,-2.73229 -7.89224,-6.22113 -10.86814,-10.2005 -3.1526,-4.21565 -5.54357,-9.10022 -6.93486,-14.16741 -1.38684,-5.051 -1.83086,-10.58237 -1.27049,-15.82725 0.6601,-6.17832 2.60581,-11.9742 5.82452,-17.35003 1.33381,-2.22772 2.956,-4.42928 4.7656,-6.46766 0.61788,-0.69601 2.65523,-2.73371 3.34195,-3.34254 6.1301,-5.4348304 13.38658,-8.9298504 21.274231,-10.2465604 2.47392,-0.41298 4.50688,-0.57856 7.10351,-0.57856 2.50646,0 4.54406,0.16014 6.886,0.54117 7.99491,1.30077 15.29877,4.79565 21.49175,10.2837404 0.67803,0.60085 2.75539,2.67904 3.35956,3.36092 2.14498,2.4208 3.97646,5.00364 5.53951,7.81205 0.43047,0.77346 1.29594,2.51959 1.67489,3.37917 2.4616,5.58376 3.68545,11.63878 3.58393,17.73155 -0.0316,1.89841 -0.14378,3.45508 -0.37171,5.1596 -1.05603,7.89718 -4.33602,15.33314 -9.49492,21.52558 -1.57377,1.88906 -3.47728,3.79209 -5.39948,5.39811 -1.84431,1.54094 -3.83776,2.94015 -5.90446,4.14438 l -0.59953,0.34933 -0.0183,7.86373 c -0.0172,7.39741 -0.0221,7.87665 -0.0829,8.08173 -0.201,0.67872 -0.47532,1.15966 -0.91454,1.60338 -0.44585,0.45043 -0.96509,0.753213 -1.61856,0.943843 -0.23031,0.0672 -0.67741,0.0691 -18.02223,0.0748 -14.502751,0.005 -17.833001,-0.003 -18.040401,-0.0415 z M 122.27929,86.511857 c 0,-7.69552 -0.0109,-7.29986 0.21943,-7.93651 0.21617,-0.59743 0.71032,-1.2499 1.21565,-1.60516 0.11999,-0.0844 0.51248,-0.30554 0.8722,-0.49151 3.49051,-1.80461 6.33718,-3.88037 9.06683,-6.61141 0.9322,-0.93267 1.45818,-1.50635 2.21691,-2.41795 3.9693,-4.76905 6.64221,-10.55428 7.68035,-16.62333 0.36909,-2.15779 0.50684,-3.81469 0.50898,-6.12248 0.001,-1.51041 -0.0294,-2.17243 -0.16341,-3.50634 -0.93705,-9.33066 -5.45164,-17.82432 -12.67849,-23.85307 -2.25369,-1.88006 -5.01228,-3.63461 -7.63038,-4.85315 -5.77371,-2.6872604 -11.98279,-3.7748904 -18.33108,-3.2110004 -6.580161,0.58449 -12.849291,2.9940304 -18.146041,6.9744204 -2.25092,1.69152 -4.28323,3.6324 -6.08614,5.81235 -4.51272,5.45647 -7.26785,12.06419 -7.97655,19.13045 -0.13278,1.32395 -0.16447,1.99897 -0.16374,3.48818 9.1e-4,1.85837 0.0866,3.20554 0.30851,4.85074 1.21144,8.98092 5.84957,17.18393 12.95167,22.90636 1.92747,1.55303 3.7634,2.75337 5.9953,3.91974 1.00966,0.52765 1.2147,0.66275 1.56434,1.03084 0.40845,0.42999 0.67744,0.90828 0.86507,1.53819 0.0755,0.25351 0.0758,0.27792 0.0864,7.42146 l 0.0107,7.16711 h 13.806741 13.80674 z m -59.711131,4.26166 c -0.57454,-0.13909 -1.21167,-0.63734 -1.48515,-1.1614 -0.2232,-0.42771 -0.29546,-0.75935 -0.27274,-1.25166 0.0255,-0.55208 0.15012,-0.90811 0.4641,-1.32566 0.0755,-0.10038 2.55829,-2.60213 5.51737,-5.55944 4.68021,-4.67742 5.38672,-5.36993 5.43081,-5.3231 0.0279,0.0296 0.20207,0.22551 0.38711,0.43535 0.59201,0.67135 1.78157,1.91981 2.32478,2.43988 l 0.52669,0.50427 -5.45011,5.44412 c -5.36252,5.35662 -5.45485,5.44653 -5.74493,5.59438 -0.16216,0.0826 -0.39925,0.17487 -0.52686,0.20495 -0.28854,0.068 -0.88672,0.0672 -1.17107,-0.002 z m 90.619861,0 c -0.11678,-0.0283 -0.3457,-0.11934 -0.5087,-0.20237 -0.29217,-0.14883 -0.37333,-0.22786 -5.74553,-5.59435 l -5.44916,-5.44339 0.54392,-0.52315 c 0.56703,-0.54539 1.70411,-1.74066 2.33925,-2.45899 0.20321,-0.22982 0.38122,-0.42198 0.39559,-0.42704 0.0144,-0.005 2.4807,2.44757 5.48074,5.45027 4.74171,4.74592 5.47182,5.49081 5.58631,5.69929 0.21958,0.39983 0.28174,0.62265 0.30316,1.08667 0.0227,0.49231 -0.0495,0.82395 -0.27274,1.25166 -0.27781,0.53236 -0.913,1.02431 -1.50178,1.16309 -0.28854,0.068 -0.88671,0.0672 -1.17106,-0.002 z M 48.664099,69.979077 c -0.81444,-0.21994 -1.482,-0.89511 -1.69292,-1.71222 -0.0789,-0.30574 -0.0796,-0.85297 -10e-4,-1.16273 0.13482,-0.53395 0.51409,-1.07266 0.97601,-1.38635 0.12793,-0.0869 0.6548,-0.32824 1.29375,-0.59267 0.59286,-0.24535 3.88783,-1.61019 7.32215,-3.03296 3.43432,-1.42277 6.25027,-2.58081 6.25766,-2.57341 0.007,0.007 0.0806,0.20877 0.16259,0.4475 0.40592,1.18144 0.81967,2.27221 1.26654,3.339 0.14188,0.33871 0.24568,0.6274 0.23066,0.64154 -0.015,0.0141 -1.31901,0.56019 -2.89778,1.21344 -1.57876,0.65325 -3.43458,1.42168 -4.12404,1.70762 -5.85965,2.43015 -7.4475,3.07955 -7.642,3.12541 -0.30582,0.0721 -0.85687,0.0653 -1.1513,-0.0142 z m 118.449331,0.0128 c -0.1118,-0.0271 -0.43882,-0.14663 -0.7267,-0.26552 -0.28788,-0.1189 -0.96489,-0.39929 -1.50447,-0.62308 -1.7815,-0.7389 -3.00357,-1.24504 -7.72122,-3.19791 -2.56798,-1.06301 -4.68137,-1.94437 -4.69642,-1.95857 -0.015,-0.0142 0.11257,-0.36015 0.28359,-0.76877 0.36159,-0.86397 0.73862,-1.85452 1.10547,-2.9043 0.14304,-0.40935 0.26521,-0.74941 0.27148,-0.75568 0.006,-0.006 0.48344,0.18384 1.06037,0.42248 1.63847,0.67771 9.95436,4.12164 12.7217,5.26854 0.97274,0.40315 1.17516,0.51938 1.48933,0.85523 0.36175,0.38671 0.55926,0.80643 0.62456,1.32725 0.14904,1.1886 -0.62013,2.30334 -1.79458,2.60088 -0.26553,0.0673 -0.83493,0.067 -1.11311,-5.5e-4 z M 43.795379,45.463787 c -1.24254,-0.32633 -2.00439,-1.61265 -1.70404,-2.87715 0.19268,-0.81124 0.92784,-1.54084 1.74722,-1.73401 0.19949,-0.047 1.30907,-0.0541 8.52506,-0.0546 l 8.29572,-5.4e-4 -0.0202,0.15442 c -0.0779,0.59643 -0.18016,3.55139 -0.14401,4.16038 l 0.0243,0.40877 -8.26211,-0.002 c -7.08099,-0.002 -8.29067,-0.01 -8.46194,-0.0549 z m 112.653341,-0.3515 c 0.0361,-0.60899 -0.0661,-3.56395 -0.14401,-4.16038 l -0.0202,-0.15442 8.29572,5.4e-4 c 9.09563,5.8e-4 8.50811,-0.0135 8.96962,0.21545 0.32055,0.15905 0.50435,0.29628 0.75342,0.56253 0.24339,0.26019 0.47224,0.68623 0.55769,1.03824 0.068,0.28012 0.0581,0.87393 -0.0194,1.15982 -0.17712,0.65363 -0.63886,1.21714 -1.23891,1.51194 -0.5159,0.25345 0.18341,0.23505 -8.93285,0.23505 h -8.24539 l 0.0243,-0.40877 z M 55.971409,23.992427 c -4.2646,-1.76726 -7.84298,-3.26689 -7.95197,-3.3325 -0.58059,-0.3495 -0.99721,-1.00104 -1.09648,-1.71474 -0.15413,-1.10817 0.55793,-2.22881 1.63233,-2.56895 0.36406,-0.11525 0.89398,-0.13234 1.25398,-0.0404 0.15964,0.0408 1.40211,0.53508 2.76105,1.09849 1.35893,0.56342 3.75433,1.55603 5.3231,2.20581 1.56877,0.64978 3.6208,1.49997 4.56006,1.8893 0.93926,0.38934 2.04294,0.84611 2.45262,1.01506 0.40968,0.16895 0.75737,0.31965 0.77265,0.3349 0.0153,0.0153 -0.13519,0.36446 -0.33437,0.77602 -0.54215,1.12025 -1.31977,2.88283 -1.53936,3.48915 -0.0127,0.035 -0.0358,0.063 -0.0514,0.0623 -0.0156,-6.9e-4 -3.5176,-1.44719 -7.78219,-3.21446 z m 97.159331,3.13396 c -0.3821,-0.98731 -0.93989,-2.25192 -1.53351,-3.47675 -0.19793,-0.40839 -0.34737,-0.75496 -0.33209,-0.77017 0.0153,-0.0152 0.80444,-0.34905 1.7537,-0.74188 2.73905,-1.1335 8.66758,-3.59064 11.26389,-4.66844 1.30898,-0.54339 2.50258,-1.03053 2.65247,-1.08252 0.23938,-0.083 0.32994,-0.0945 0.74487,-0.0944 0.41868,0 0.50264,0.011 0.73886,0.096 0.38119,0.13713 0.63899,0.30071 0.93221,0.59154 0.51613,0.51192 0.76086,1.22242 0.67018,1.94566 -0.09,0.71801 -0.50883,1.38049 -1.09621,1.73407 -0.10863,0.0654 -1.4633,0.64304 -3.01039,1.28366 -1.54708,0.64062 -3.85116,1.59502 -5.12016,2.12087 -6.50734,2.69656 -7.59061,3.14408 -7.61053,3.14408 -0.0119,0 -0.0359,-0.0368 -0.0533,-0.0817 z M 67.427579,5.4706366 c -6.11342,-6.11930003 -6.21885,-6.22721003 -6.36355,-6.51308 -0.21277,-0.42034 -0.27743,-0.72688 -0.25463,-1.20728 0.012,-0.25197 0.0457,-0.47562 0.0946,-0.62764 0.22775,-0.70773 0.83566,-1.31041 1.5495,-1.53618 0.36456,-0.11531 1.05339,-0.11538 1.41707,-1.5e-4 0.5746,0.18206 0.23565,-0.13839 6.97635,6.5957 l 6.24964,6.24351 -0.23566,0.2076 c -0.75956,0.66909 -1.53948,1.4024304 -2.31719,2.1787804 -0.48546,0.48462 -0.88649,0.88113 -0.89117,0.88113 -0.005,0 -2.80591,-2.8000804 -6.22494,-6.2223904 z m 75.422251,5.7899404 c -0.44251,-0.47283 -1.83417,-1.8010404 -2.53921,-2.4234404 -0.24481,-0.21611 -0.44511,-0.40198 -0.44511,-0.41303 0,-0.0111 2.80825,-2.82485 6.24056,-6.25286 6.73037,-6.72193 6.39285,-6.40294 6.96727,-6.58494 0.36368,-0.11523 1.0525,-0.11516 1.41707,1.5e-4 0.71374,0.22574 1.3212,0.82791 1.54969,1.53618 0.0502,0.15577 0.0823,0.3725 0.0941,0.63656 0.0216,0.48124 -0.0305,0.72759 -0.24921,1.1802 l -0.14927,0.30884997 -6.21792,6.22239003 c -3.41986,3.42232 -6.22813,6.2224004 -6.2406,6.2224004 -0.0125,0 -0.20479,-0.19461 -0.42739,-0.43246 z M 88.042289,0.05669657 c -0.23317,-0.56456 -0.5696,-1.37800997 -0.74762,-1.80766997 -0.17803,-0.42966 -0.91295,-2.20373 -1.63316,-3.94237 -0.72023,-1.73863 -1.90891,-4.6081096 -2.64152,-6.3766096 -0.73262,-1.7685 -1.3552,-3.31365 -1.38351,-3.43367 -0.0744,-0.31552 -0.0662,-0.78919 0.0196,-1.12455 0.10727,-0.4194 0.30042,-0.75472 0.62144,-1.07887 0.22589,-0.22809 0.33754,-0.30808 0.6177,-0.44253 0.40957,-0.19655 0.61455,-0.2429 1.0743,-0.2429 0.66372,0 1.16352,0.20563 1.63188,0.6714 0.16121,0.16031 0.33629,0.36679 0.38906,0.45883 0.0654,0.11404 6.5048,15.6011896 6.88076,16.54861957 0.008,0.0213 -0.3094,0.1555 -0.72175,0.30462 -0.89486,0.32363 -2.18769,0.8408 -3.03742,1.21507 -0.34602,0.1524 -0.63288,0.27710003 -0.63747,0.27710003 -0.005,0 -0.19912,-0.46191003 -0.43229,-1.02647003 z m 39.752711,0.73633 c -0.77398,-0.34568 -2.12523,-0.88601 -3.04484,-1.21755 -0.36967,-0.13328 -0.67658,-0.24676 -0.68201,-0.25219 -0.005,-0.005 0.0953,-0.26163 0.22375,-0.56931997 0.12849,-0.30769 0.67017,-1.61407 1.20373,-2.90306 1.22356,-2.95591 2.08443,-5.03429 2.63376,-6.3586496 0.23624,-0.56956 0.94657,-2.28444 1.57852,-3.81086 0.63194,-1.52641 1.19252,-2.84959 1.24573,-2.94038 0.24848,-0.424 0.76281,-0.84138 1.25218,-1.01614 0.35525,-0.12686 0.9655,-0.15536 1.35007,-0.0631 0.85509,0.20525 1.55973,0.92212 1.75087,1.78127 0.0862,0.38737 0.06,0.92347 -0.062,1.2711 -0.0491,0.13989 -0.67943,1.67686 -1.4007,3.4155 -1.50102,3.6182196 -3.34585,8.0701996 -4.54337,10.96412957 -0.45275,1.09414 -0.83205,1.98869003 -0.84287,1.98789003 -0.0108,-8e-4 -0.30908,-0.13070003 -0.66279,-0.28868003 z M 106.1107,-12.233663 c 5.8e-4,-10.00009 -0.0191,-9.21672 0.24496,-9.75599 0.10121,-0.20671 0.20832,-0.34724 0.44357,-0.58201 0.49364,-0.49262 0.98741,-0.70276 1.65455,-0.70416 0.44272,-9.3e-4 0.66987,0.0502 1.07052,0.24095 0.41157,0.19595 0.86183,0.6389 1.06248,1.04522 0.26572,0.53806 0.24581,-0.24984 0.24641,9.75599 l 5.5e-4,9.0111096 h -2.36179 -2.36178 l 5.4e-4,-9.0111096 z"
       id="path14547" />
  </g>
</svg>
