<svg xmlns="http://www.w3.org/2000/svg" width="50" height="35" viewBox="0 0 50 35"><path d="M40.775,105.806c-5.266-1.565-9.062-8.8-8.161-15.548.915-6.857,6.126-14.072,12.993-17.99,2.024-1.155,2.074-1.15,2.525.265a1.524,1.524,0,0,1-.716,2.1c-5.177,2.879-9.736,9.981-9.718,15.141.015,4.359.752,5.153,2.546,2.741,4.322-5.809,13.571-2.624,13.571,4.673,0,6.571-6.184,10.659-13.041,8.621Zm27.422-.577c-9.256-4.177-9.249-19.436.013-28.348A33.1,33.1,0,0,1,73.8,72.612c2.676-1.483,2.715-1.485,3.062-.164.266,1.013-.362,1.847-2.585,3.434-5.169,3.689-7.691,8.365-7.691,14.263,0,4.046.734,5.048,1.989,2.718,1.722-3.2,7.078-4.307,10.388-2.151,5.521,3.6,4.331,12.219-2.052,14.869-2.979,1.237-5.409,1.139-8.711-.352Z" transform="translate(-32.481 -71.435)" fill="#888"/></svg>